G75*
G70*
%OFA0B0*%
%FSLAX24Y24*%
%IPPOS*%
%LPD*%
%AMOC8*
5,1,8,0,0,1.08239X$1,22.5*
%
%ADD10C,0.0000*%
D10*
X000758Y011497D02*
X000758Y001527D01*
X008750Y001527D01*
X008750Y011497D01*
X000758Y011497D01*
X003516Y008212D02*
X003519Y008270D01*
X003527Y008328D01*
X003540Y008385D01*
X003558Y008440D01*
X003581Y008493D01*
X003609Y008545D01*
X003642Y008593D01*
X003678Y008638D01*
X003719Y008680D01*
X003764Y008718D01*
X003811Y008751D01*
X003862Y008780D01*
X003914Y008805D01*
X003969Y008824D01*
X004026Y008839D01*
X004083Y008848D01*
X004141Y008852D01*
X004200Y008851D01*
X004258Y008844D01*
X004315Y008832D01*
X004370Y008815D01*
X004424Y008793D01*
X004476Y008766D01*
X004525Y008735D01*
X004571Y008699D01*
X004614Y008659D01*
X004652Y008616D01*
X004687Y008569D01*
X004717Y008519D01*
X004743Y008467D01*
X004764Y008413D01*
X004779Y008356D01*
X004790Y008299D01*
X004795Y008241D01*
X004795Y008183D01*
X004790Y008125D01*
X004779Y008068D01*
X004764Y008011D01*
X004743Y007957D01*
X004717Y007905D01*
X004687Y007855D01*
X004652Y007808D01*
X004614Y007765D01*
X004571Y007725D01*
X004525Y007689D01*
X004476Y007658D01*
X004424Y007631D01*
X004370Y007609D01*
X004315Y007592D01*
X004258Y007580D01*
X004200Y007573D01*
X004141Y007572D01*
X004083Y007576D01*
X004026Y007585D01*
X003969Y007600D01*
X003914Y007619D01*
X003862Y007644D01*
X003811Y007673D01*
X003764Y007706D01*
X003719Y007744D01*
X003678Y007786D01*
X003642Y007831D01*
X003609Y007879D01*
X003581Y007931D01*
X003558Y007984D01*
X003540Y008039D01*
X003527Y008096D01*
X003519Y008154D01*
X003516Y008212D01*
X003516Y004212D02*
X003519Y004270D01*
X003527Y004328D01*
X003540Y004385D01*
X003558Y004440D01*
X003581Y004493D01*
X003609Y004545D01*
X003642Y004593D01*
X003678Y004638D01*
X003719Y004680D01*
X003764Y004718D01*
X003811Y004751D01*
X003862Y004780D01*
X003914Y004805D01*
X003969Y004824D01*
X004026Y004839D01*
X004083Y004848D01*
X004141Y004852D01*
X004200Y004851D01*
X004258Y004844D01*
X004315Y004832D01*
X004370Y004815D01*
X004424Y004793D01*
X004476Y004766D01*
X004525Y004735D01*
X004571Y004699D01*
X004614Y004659D01*
X004652Y004616D01*
X004687Y004569D01*
X004717Y004519D01*
X004743Y004467D01*
X004764Y004413D01*
X004779Y004356D01*
X004790Y004299D01*
X004795Y004241D01*
X004795Y004183D01*
X004790Y004125D01*
X004779Y004068D01*
X004764Y004011D01*
X004743Y003957D01*
X004717Y003905D01*
X004687Y003855D01*
X004652Y003808D01*
X004614Y003765D01*
X004571Y003725D01*
X004525Y003689D01*
X004476Y003658D01*
X004424Y003631D01*
X004370Y003609D01*
X004315Y003592D01*
X004258Y003580D01*
X004200Y003573D01*
X004141Y003572D01*
X004083Y003576D01*
X004026Y003585D01*
X003969Y003600D01*
X003914Y003619D01*
X003862Y003644D01*
X003811Y003673D01*
X003764Y003706D01*
X003719Y003744D01*
X003678Y003786D01*
X003642Y003831D01*
X003609Y003879D01*
X003581Y003931D01*
X003558Y003984D01*
X003540Y004039D01*
X003527Y004096D01*
X003519Y004154D01*
X003516Y004212D01*
X007081Y002362D02*
X007084Y002419D01*
X007091Y002475D01*
X007104Y002531D01*
X007122Y002585D01*
X007145Y002637D01*
X007172Y002687D01*
X007204Y002734D01*
X007240Y002778D01*
X007279Y002819D01*
X007323Y002856D01*
X007369Y002888D01*
X007418Y002917D01*
X007470Y002941D01*
X007524Y002960D01*
X007579Y002974D01*
X007635Y002983D01*
X007692Y002987D01*
X007749Y002986D01*
X007805Y002979D01*
X007861Y002968D01*
X007915Y002951D01*
X007968Y002929D01*
X008018Y002903D01*
X008066Y002873D01*
X008111Y002838D01*
X008153Y002799D01*
X008191Y002756D01*
X008225Y002711D01*
X008254Y002662D01*
X008279Y002611D01*
X008300Y002558D01*
X008315Y002503D01*
X008325Y002447D01*
X008330Y002390D01*
X008330Y002334D01*
X008325Y002277D01*
X008315Y002221D01*
X008300Y002166D01*
X008279Y002113D01*
X008254Y002062D01*
X008225Y002013D01*
X008191Y001968D01*
X008153Y001925D01*
X008111Y001886D01*
X008066Y001851D01*
X008019Y001821D01*
X007968Y001795D01*
X007915Y001773D01*
X007861Y001756D01*
X007805Y001745D01*
X007749Y001738D01*
X007692Y001737D01*
X007635Y001741D01*
X007579Y001750D01*
X007524Y001764D01*
X007470Y001783D01*
X007418Y001807D01*
X007369Y001836D01*
X007323Y001868D01*
X007279Y001905D01*
X007240Y001946D01*
X007204Y001990D01*
X007172Y002037D01*
X007145Y002087D01*
X007122Y002139D01*
X007104Y002193D01*
X007091Y002249D01*
X007084Y002305D01*
X007081Y002362D01*
X007081Y010612D02*
X007084Y010669D01*
X007091Y010725D01*
X007104Y010781D01*
X007122Y010835D01*
X007145Y010887D01*
X007172Y010937D01*
X007204Y010984D01*
X007240Y011028D01*
X007279Y011069D01*
X007323Y011106D01*
X007369Y011138D01*
X007418Y011167D01*
X007470Y011191D01*
X007524Y011210D01*
X007579Y011224D01*
X007635Y011233D01*
X007692Y011237D01*
X007749Y011236D01*
X007805Y011229D01*
X007861Y011218D01*
X007915Y011201D01*
X007968Y011179D01*
X008018Y011153D01*
X008066Y011123D01*
X008111Y011088D01*
X008153Y011049D01*
X008191Y011006D01*
X008225Y010961D01*
X008254Y010912D01*
X008279Y010861D01*
X008300Y010808D01*
X008315Y010753D01*
X008325Y010697D01*
X008330Y010640D01*
X008330Y010584D01*
X008325Y010527D01*
X008315Y010471D01*
X008300Y010416D01*
X008279Y010363D01*
X008254Y010312D01*
X008225Y010263D01*
X008191Y010218D01*
X008153Y010175D01*
X008111Y010136D01*
X008066Y010101D01*
X008019Y010071D01*
X007968Y010045D01*
X007915Y010023D01*
X007861Y010006D01*
X007805Y009995D01*
X007749Y009988D01*
X007692Y009987D01*
X007635Y009991D01*
X007579Y010000D01*
X007524Y010014D01*
X007470Y010033D01*
X007418Y010057D01*
X007369Y010086D01*
X007323Y010118D01*
X007279Y010155D01*
X007240Y010196D01*
X007204Y010240D01*
X007172Y010287D01*
X007145Y010337D01*
X007122Y010389D01*
X007104Y010443D01*
X007091Y010499D01*
X007084Y010555D01*
X007081Y010612D01*
M02*
