G75*
G70*
%OFA0B0*%
%FSLAX24Y24*%
%IPPOS*%
%LPD*%
%AMOC8*
5,1,8,0,0,1.08239X$1,22.5*
%
%ADD10C,0.1330*%
%ADD11R,0.0237X0.0316*%
%ADD12R,0.0316X0.0237*%
%ADD13O,0.1280X0.0680*%
%ADD14R,0.0946X0.0316*%
%ADD15R,0.0474X0.0513*%
%ADD16R,0.0513X0.0474*%
%ADD17C,0.0630*%
%ADD18C,0.1360*%
%ADD19R,0.0671X0.0671*%
%ADD20C,0.0480*%
D10*
X007706Y010612D03*
X007706Y002362D03*
D11*
X002877Y009315D03*
X002621Y009305D03*
X002365Y009305D03*
X002109Y009305D03*
X002109Y010644D03*
X002365Y010644D03*
X002621Y010644D03*
X002877Y010644D03*
D12*
X003163Y010358D03*
X003163Y010102D03*
X003163Y009846D03*
X003163Y009591D03*
X001824Y009591D03*
X001824Y009846D03*
X001820Y010102D03*
X001824Y010358D03*
D13*
X005956Y010362D03*
X005956Y009362D03*
X005956Y008362D03*
X005956Y004512D03*
X005956Y003512D03*
X005956Y002512D03*
D14*
X004630Y005412D03*
X004630Y005912D03*
X004630Y006412D03*
X004630Y006912D03*
X002582Y006912D03*
X002582Y006412D03*
X002582Y005912D03*
X002582Y005412D03*
D15*
X001756Y005396D03*
X001756Y004727D03*
X002771Y002512D03*
X003441Y002512D03*
X003971Y002512D03*
X004641Y002512D03*
X005371Y005412D03*
X006041Y005412D03*
X006041Y006762D03*
X005371Y006762D03*
X005371Y007562D03*
X006041Y007562D03*
X003856Y010177D03*
X003856Y010846D03*
X002906Y008846D03*
X002906Y008177D03*
X002106Y008177D03*
X002106Y008846D03*
D16*
X001756Y007096D03*
X001756Y006427D03*
X007256Y008627D03*
X007256Y009296D03*
D17*
X006656Y007462D03*
X006656Y006462D03*
X006656Y005462D03*
X007656Y005962D03*
X007656Y006962D03*
X007656Y004962D03*
D18*
X004156Y004212D03*
X004156Y008212D03*
D19*
X008006Y007873D03*
X008006Y009251D03*
D20*
X002156Y002512D03*
X001756Y004162D03*
X002306Y004962D03*
X001806Y005912D03*
X002506Y007612D03*
X003256Y007312D03*
X003506Y006462D03*
X003406Y005662D03*
X005656Y006262D03*
X003656Y009362D03*
X001556Y008562D03*
M02*
