G75*
G70*
%OFA0B0*%
%FSLAX24Y24*%
%IPPOS*%
%LPD*%
%AMOC8*
5,1,8,0,0,1.08239X$1,22.5*
%
%ADD10O,0.1200X0.0600*%
%ADD11C,0.1260*%
%ADD12O,0.1040X0.0520*%
%ADD13C,0.0160*%
%ADD14C,0.0400*%
D10*
X005226Y005515D03*
X005226Y004515D03*
X005226Y003515D03*
D11*
X008576Y002965D03*
X008576Y004965D03*
X008576Y006965D03*
D12*
X006686Y005415D03*
X006686Y004415D03*
X006686Y003415D03*
D13*
X001158Y002410D02*
X001158Y006130D01*
X001206Y006110D01*
X001645Y006110D01*
X002052Y006278D01*
X002362Y006589D01*
X002531Y006995D01*
X002531Y007435D01*
X002495Y007520D01*
X008014Y007520D01*
X007906Y007412D01*
X007786Y007122D01*
X007786Y006808D01*
X007872Y006600D01*
X007386Y006114D01*
X007386Y005916D01*
X007386Y004125D01*
X007047Y003835D01*
X006252Y003835D01*
X006006Y003589D01*
X006006Y003241D01*
X006252Y002995D01*
X007120Y002995D01*
X007366Y003241D01*
X007366Y003476D01*
X007714Y003775D01*
X007725Y003775D01*
X007866Y003916D01*
X007866Y004615D01*
X007906Y004517D01*
X008128Y004295D01*
X008419Y004175D01*
X008733Y004175D01*
X009023Y004295D01*
X009240Y004512D01*
X009240Y003418D01*
X009023Y003635D01*
X008733Y003755D01*
X008419Y003755D01*
X008128Y003635D01*
X007906Y003412D01*
X007786Y003122D01*
X007786Y002808D01*
X007906Y002517D01*
X008014Y002410D01*
X001158Y002410D01*
X001158Y002549D02*
X007893Y002549D01*
X007827Y002708D02*
X001158Y002708D01*
X001158Y002866D02*
X007786Y002866D01*
X007786Y003025D02*
X007149Y003025D01*
X007308Y003183D02*
X007811Y003183D01*
X007877Y003342D02*
X007366Y003342D01*
X007394Y003500D02*
X007994Y003500D01*
X008187Y003659D02*
X007579Y003659D01*
X007768Y003817D02*
X009240Y003817D01*
X009240Y003659D02*
X008965Y003659D01*
X009157Y003500D02*
X009240Y003500D01*
X009240Y003976D02*
X007866Y003976D01*
X007866Y004135D02*
X009240Y004135D01*
X009240Y004293D02*
X009018Y004293D01*
X009180Y004452D02*
X009240Y004452D01*
X008133Y004293D02*
X007866Y004293D01*
X007866Y004452D02*
X007972Y004452D01*
X007868Y004610D02*
X007866Y004610D01*
X007386Y004610D02*
X007344Y004610D01*
X007366Y004589D02*
X007120Y004835D01*
X006252Y004835D01*
X006006Y004589D01*
X006006Y004241D01*
X006252Y003995D01*
X007120Y003995D01*
X007366Y004241D01*
X007366Y004589D01*
X007386Y004769D02*
X007186Y004769D01*
X007386Y004927D02*
X005764Y004927D01*
X005716Y004975D02*
X005105Y004975D01*
X005045Y005035D01*
X005506Y005035D01*
X005506Y005495D01*
X004585Y005495D01*
X004545Y005535D01*
X005506Y005535D01*
X005506Y005995D01*
X004727Y005995D01*
X004446Y005714D01*
X004446Y005634D01*
X003486Y006594D01*
X003486Y006687D01*
X003431Y006819D01*
X003330Y006920D01*
X003197Y006975D01*
X003054Y006975D01*
X002922Y006920D01*
X002820Y006819D01*
X002766Y006687D01*
X002766Y006543D01*
X002820Y006411D01*
X002922Y006310D01*
X003054Y006255D01*
X003146Y006255D01*
X004581Y004821D01*
X004466Y004705D01*
X004466Y004324D01*
X004735Y004055D01*
X005716Y004055D01*
X005986Y004324D01*
X005986Y004705D01*
X005716Y004975D01*
X005724Y005035D02*
X006006Y005316D01*
X006006Y005495D01*
X005546Y005495D01*
X005546Y005035D01*
X005724Y005035D01*
X005775Y005086D02*
X006161Y005086D01*
X006252Y004995D02*
X006006Y005241D01*
X006006Y005589D01*
X006252Y005835D01*
X007120Y005835D01*
X007366Y005589D01*
X007366Y005241D01*
X007120Y004995D01*
X006252Y004995D01*
X006006Y005244D02*
X005934Y005244D01*
X006006Y005403D02*
X006006Y005403D01*
X006006Y005535D02*
X006006Y005714D01*
X005724Y005995D01*
X005546Y005995D01*
X005546Y005535D01*
X006006Y005535D01*
X006006Y005561D02*
X006006Y005561D01*
X005999Y005720D02*
X006137Y005720D01*
X005841Y005879D02*
X007386Y005879D01*
X007386Y006037D02*
X004043Y006037D01*
X004201Y005879D02*
X004610Y005879D01*
X004452Y005720D02*
X004360Y005720D01*
X003998Y005403D02*
X001158Y005403D01*
X001158Y005561D02*
X003840Y005561D01*
X003681Y005720D02*
X001158Y005720D01*
X001158Y005879D02*
X003523Y005879D01*
X003364Y006037D02*
X001158Y006037D01*
X001852Y006196D02*
X003206Y006196D01*
X002877Y006354D02*
X002128Y006354D01*
X002286Y006513D02*
X002778Y006513D01*
X002766Y006671D02*
X002396Y006671D01*
X002462Y006830D02*
X002831Y006830D01*
X002528Y006988D02*
X007786Y006988D01*
X007796Y007147D02*
X002531Y007147D01*
X002531Y007305D02*
X007862Y007305D01*
X007958Y007464D02*
X002519Y007464D01*
X003420Y006830D02*
X007786Y006830D01*
X007842Y006671D02*
X003486Y006671D01*
X003567Y006513D02*
X007784Y006513D01*
X007626Y006354D02*
X003726Y006354D01*
X003884Y006196D02*
X007467Y006196D01*
X007626Y006015D02*
X008576Y006965D01*
X007626Y006015D02*
X007626Y004015D01*
X006926Y003415D01*
X006426Y003415D01*
X006006Y003342D02*
X005986Y003342D01*
X005986Y003324D02*
X005986Y003705D01*
X005716Y003975D01*
X004735Y003975D01*
X004466Y003705D01*
X004466Y003324D01*
X004735Y003055D01*
X005716Y003055D01*
X005986Y003324D01*
X006063Y003183D02*
X005845Y003183D01*
X005986Y003500D02*
X006006Y003500D01*
X005986Y003659D02*
X006076Y003659D01*
X006234Y003817D02*
X005874Y003817D01*
X005796Y004135D02*
X006112Y004135D01*
X006006Y004293D02*
X005954Y004293D01*
X005986Y004452D02*
X006006Y004452D01*
X005986Y004610D02*
X006027Y004610D01*
X005922Y004769D02*
X006186Y004769D01*
X005546Y005086D02*
X005506Y005086D01*
X005506Y005244D02*
X005546Y005244D01*
X005546Y005403D02*
X005506Y005403D01*
X005506Y005561D02*
X005546Y005561D01*
X005546Y005720D02*
X005506Y005720D01*
X005506Y005879D02*
X005546Y005879D01*
X004474Y004927D02*
X001158Y004927D01*
X001158Y004769D02*
X004529Y004769D01*
X004466Y004610D02*
X001158Y004610D01*
X001158Y004452D02*
X004466Y004452D01*
X004497Y004293D02*
X001158Y004293D01*
X001158Y004135D02*
X004656Y004135D01*
X004578Y003817D02*
X001158Y003817D01*
X001158Y003659D02*
X004466Y003659D01*
X004466Y003500D02*
X001158Y003500D01*
X001158Y003342D02*
X004466Y003342D01*
X004607Y003183D02*
X001158Y003183D01*
X001158Y003025D02*
X006222Y003025D01*
X007212Y003976D02*
X001158Y003976D01*
X001158Y005086D02*
X004315Y005086D01*
X004157Y005244D02*
X001158Y005244D01*
X003126Y006615D02*
X005226Y004515D01*
X005526Y004515D01*
X007259Y004135D02*
X007386Y004135D01*
X007386Y004293D02*
X007366Y004293D01*
X007366Y004452D02*
X007386Y004452D01*
X007386Y005086D02*
X007210Y005086D01*
X007366Y005244D02*
X007386Y005244D01*
X007386Y005403D02*
X007366Y005403D01*
X007366Y005561D02*
X007386Y005561D01*
X007386Y005720D02*
X007235Y005720D01*
D14*
X003226Y004815D03*
X001426Y004015D03*
X003126Y006615D03*
M02*
