G75*
G70*
%OFA0B0*%
%FSLAX24Y24*%
%IPPOS*%
%LPD*%
%AMOC8*
5,1,8,0,0,1.08239X$1,22.5*
%
%ADD10O,0.1200X0.0600*%
%ADD11R,0.0394X0.0433*%
%ADD12R,0.0472X0.0217*%
%ADD13R,0.0433X0.0394*%
%ADD14C,0.1260*%
%ADD15O,0.1040X0.0520*%
%ADD16C,0.0160*%
%ADD17C,0.0400*%
D10*
X005226Y005515D03*
X005226Y004515D03*
X005226Y003515D03*
D11*
X004991Y002615D03*
X005660Y002615D03*
X003460Y005815D03*
X002791Y005815D03*
X002160Y005815D03*
X001491Y005815D03*
X003091Y007215D03*
X003760Y007215D03*
X004341Y006865D03*
X005010Y006865D03*
D12*
X003838Y005189D03*
X003838Y004815D03*
X003838Y004441D03*
X002814Y004441D03*
X002814Y005189D03*
D13*
X002191Y003515D03*
X002860Y003515D03*
X002026Y004480D03*
X002026Y005150D03*
X004076Y003400D03*
X004076Y002730D03*
X005676Y006730D03*
X005676Y007400D03*
D14*
X008576Y006965D03*
X008576Y004965D03*
X008576Y002965D03*
D15*
X006686Y003415D03*
X006686Y004415D03*
X006686Y005415D03*
D16*
X006426Y005415D02*
X006326Y005415D01*
X005010Y006730D01*
X005010Y006865D01*
X005476Y007265D01*
X005626Y007415D01*
X005641Y007400D01*
X005676Y007400D01*
X005676Y007365D01*
X005726Y007315D01*
X006426Y007315D01*
X008576Y005165D01*
X008576Y004965D01*
X007526Y005215D02*
X006726Y004415D01*
X007226Y004415D01*
X008626Y003015D01*
X008126Y002615D01*
X005660Y002615D01*
X005926Y003015D02*
X005326Y003015D01*
X004991Y002580D01*
X004991Y002615D01*
X005026Y002515D01*
X004810Y002730D01*
X004076Y002730D01*
X004041Y003400D02*
X004076Y003400D01*
X005510Y003400D01*
X005526Y003515D01*
X005926Y003015D02*
X006426Y003415D01*
X006426Y004415D02*
X005826Y005015D01*
X004726Y005015D01*
X004552Y005189D01*
X004026Y005189D01*
X004026Y006215D01*
X003760Y006480D01*
X003760Y007215D01*
X004341Y006865D02*
X004341Y006300D01*
X005126Y005515D01*
X005526Y005515D01*
X005526Y004515D02*
X005500Y004441D01*
X003838Y004441D01*
X003838Y004815D02*
X003226Y004815D01*
X002814Y005189D02*
X002814Y005203D01*
X002826Y005215D01*
X002791Y005250D01*
X002791Y005815D01*
X002160Y005815D01*
X001491Y005815D02*
X001491Y004080D01*
X001426Y004015D01*
X001726Y004015D01*
X002226Y003515D01*
X002191Y003515D01*
X002814Y003527D02*
X002826Y003515D01*
X002860Y003515D01*
X003926Y003515D01*
X004041Y003400D01*
X002814Y003527D02*
X002814Y004441D01*
X002814Y004427D01*
X002760Y004480D01*
X002026Y004480D01*
X002026Y005150D02*
X002760Y005150D01*
X002814Y005203D01*
X003460Y005815D02*
X003460Y006280D01*
X003126Y006615D01*
X003091Y006650D01*
X003091Y007215D01*
X003838Y005189D02*
X004026Y005189D01*
X002826Y004415D02*
X002814Y004427D01*
X005676Y006730D02*
X006310Y006730D01*
X007526Y005615D01*
X007526Y005215D01*
X006726Y004415D02*
X006426Y004415D01*
X008576Y002965D02*
X008626Y003015D01*
D17*
X003226Y004815D03*
X001426Y004015D03*
X003126Y006615D03*
M02*
