G75*
G70*
%OFA0B0*%
%FSLAX24Y24*%
%IPPOS*%
%LPD*%
%AMOC8*
5,1,8,0,0,1.08239X$1,22.5*
%
%ADD10C,0.0080*%
%AMAND11*
1,1,0.0720,0,0*
1,0,0.0000,0,0*
%
%ADD11AND11*%
%AMTHD12X*
1,1,0.0720,0,0*
1,0,0.0520,0,0*
21,0,0.0740,0.0200,0,0,45*
21,0,0.0740,0.0200,0,0,135*
%
%ADD12THD12X*%
%AMAND13*
1,1,0.1260,0,0*
1,0,0.0000,0,0*
%
%ADD13AND13*%
%AMAND14*
1,1,0.1400,0,0*
1,0,0.0000,0,0*
%
%ADD14AND14*%
%AMAND15*
1,1,0.1100,0,0*
1,0,0.0000,0,0*
%
%ADD15AND15*%
%AMAND16*
1,1,0.1060,0,0*
1,0,0.0000,0,0*
%
%ADD16AND16*%
%AMAND17*
1,1,0.0800,0,0*
1,0,0.0000,0,0*
%
%ADD17AND17*%
%AMAND18*
1,1,0.0840,0,0*
1,0,0.0000,0,0*
%
%ADD18AND18*%
%AMTHD19X*
1,1,0.0860,0,0*
1,0,0.0660,0,0*
21,0,0.0880,0.0220,0,0,45*
21,0,0.0880,0.0220,0,0,135*
%
%ADD19THD19X*%
%AMTHD20X*
1,1,0.0800,0,0*
1,0,0.0600,0,0*
21,0,0.0820,0.0200,0,0,45*
21,0,0.0820,0.0200,0,0,135*
%
%ADD20THD20X*%
%AMTHD21X*
1,1,0.0950,0,0*
1,0,0.0750,0,0*
21,0,0.0970,0.0250,0,0,45*
21,0,0.0970,0.0250,0,0,135*
%
%ADD21THD21X*%
%AMAND22*
1,1,0.0900,0,0*
1,0,0.0000,0,0*
%
%ADD22AND22*%
%AMAND23*
1,1,0.0960,0,0*
1,0,0.0000,0,0*
%
%ADD23AND23*%
%AMAND24*
1,1,0.0750,0,0*
1,0,0.0000,0,0*
%
%ADD24AND24*%
%AMAND25*
1,1,0.1680,0,0*
1,0,0.0000,0,0*
%
%ADD25AND25*%
%AMTHD26X*
1,1,0.0750,0,0*
1,0,0.0550,0,0*
21,0,0.0770,0.0200,0,0,45*
21,0,0.0770,0.0200,0,0,135*
%
%ADD26THD26X*%
%AMAND27*
1,1,0.0912,0,0*
1,0,0.0000,0,0*
%
%ADD27AND27*%
%AMTHD28X*
1,1,0.0735,0,0*
1,0,0.0535,0,0*
21,0,0.0755,0.0200,0,0,45*
21,0,0.0755,0.0200,0,0,135*
%
%ADD28THD28X*%
%AMAND29*
1,1,0.0735,0,0*
1,0,0.0000,0,0*
%
%ADD29AND29*%
%AMAND30*
1,1,0.0853,0,0*
1,0,0.0000,0,0*
%
%ADD30AND30*%
%AMAND31*
1,1,0.0600,0,0*
1,0,0.0000,0,0*
%
%ADD31AND31*%
%ADD32C,0.0160*%
D10*
X026709Y002599D02*
X026402Y002599D01*
X026248Y002446D01*
X026709Y002599D02*
X026862Y002446D01*
X026862Y002292D01*
X026248Y001678D01*
X026862Y001678D01*
D11*
X012078Y015948D03*
X009078Y015948D03*
X006598Y015938D03*
X003598Y015938D03*
X006598Y018938D03*
X012078Y018948D03*
X024568Y026148D03*
X047771Y039745D03*
X048558Y039745D03*
X048558Y040532D03*
X047771Y040532D03*
X049346Y040532D03*
X061798Y038713D03*
X052308Y012878D03*
D12*
X062798Y038713D03*
X049346Y039745D03*
X009078Y018948D03*
X003598Y018938D03*
D13*
X009807Y007225D03*
X011539Y004193D03*
X008074Y004193D03*
X004208Y038725D03*
X015458Y038725D03*
X026708Y038725D03*
X037951Y038725D03*
D14*
X009807Y005453D03*
D15*
X060437Y006569D03*
D16*
X060437Y004797D03*
X004661Y005223D03*
X002456Y005223D03*
D17*
X005348Y021188D03*
X005348Y022188D03*
X005348Y023188D03*
X028538Y027678D03*
X029538Y027678D03*
X030538Y027678D03*
X031538Y027678D03*
X032538Y027678D03*
X033538Y027678D03*
X034538Y027678D03*
X034538Y028678D03*
X033538Y028678D03*
X032538Y028678D03*
X031538Y028678D03*
X029538Y028678D03*
X028538Y028678D03*
X028848Y017158D03*
X029848Y017158D03*
X030848Y017158D03*
X052308Y016488D03*
X053178Y037638D03*
X054178Y037638D03*
X055178Y037638D03*
X056178Y037638D03*
X057178Y037638D03*
X058178Y037638D03*
X059178Y037638D03*
X060178Y037638D03*
X060178Y038638D03*
X059178Y038638D03*
X058178Y038638D03*
X057178Y038638D03*
X056178Y038638D03*
X055178Y038638D03*
X054178Y038638D03*
X053178Y038638D03*
D18*
X059058Y020638D03*
X059058Y019138D03*
X059058Y017638D03*
X059058Y016138D03*
X055058Y016138D03*
X055058Y017638D03*
D19*
X055058Y019138D03*
X055058Y020638D03*
D20*
X055178Y036638D03*
X054178Y036638D03*
X053178Y036638D03*
X056178Y036638D03*
X057178Y036638D03*
X058178Y036638D03*
X059178Y036638D03*
X060178Y036638D03*
X030538Y028678D03*
D21*
X025881Y034237D03*
X028283Y037111D03*
X030330Y037111D03*
X037124Y034237D03*
X039526Y037111D03*
X041573Y037111D03*
X019080Y037111D03*
X017033Y037111D03*
X014631Y034237D03*
X007830Y037111D03*
X005783Y037111D03*
X003381Y034237D03*
D22*
X005783Y034237D03*
X008184Y034237D03*
X009405Y031638D03*
X014985Y035772D03*
X017033Y034237D03*
X019434Y034237D03*
X020655Y031638D03*
X026235Y035772D03*
X028283Y034237D03*
X030684Y034237D03*
X031905Y031638D03*
X037478Y035772D03*
X039526Y034237D03*
X041927Y034237D03*
X043148Y031638D03*
X003735Y035772D03*
D23*
X046669Y040138D03*
X050448Y040138D03*
D24*
X052238Y010638D03*
X053238Y010638D03*
X054238Y010638D03*
X053738Y009638D03*
X052738Y009638D03*
X048168Y010638D03*
X047168Y010638D03*
X046168Y010638D03*
X046668Y009638D03*
X047668Y009638D03*
X037808Y010638D03*
X036808Y010638D03*
X035808Y010638D03*
X036308Y009638D03*
X037308Y009638D03*
X031718Y010638D03*
X030718Y010638D03*
X029718Y010638D03*
X030218Y009638D03*
X031218Y009638D03*
X025618Y010638D03*
X024618Y010638D03*
X023618Y010638D03*
X024118Y009638D03*
X025118Y009638D03*
X019538Y010638D03*
X018538Y010638D03*
X017538Y010638D03*
X018038Y009638D03*
X019038Y009638D03*
D25*
X020788Y007138D03*
X022868Y007138D03*
X026868Y007138D03*
X028968Y007138D03*
X032968Y007138D03*
X035058Y007138D03*
X039058Y007138D03*
X045418Y007138D03*
X049418Y007138D03*
X051488Y007138D03*
X055488Y007138D03*
X016788Y007138D03*
D26*
X020038Y009638D03*
X026118Y009638D03*
X032218Y009638D03*
X038308Y009638D03*
X048668Y009638D03*
X054738Y009638D03*
D27*
X062558Y014623D03*
X062558Y016591D03*
X062558Y018560D03*
X062558Y020528D03*
D28*
X004558Y007278D03*
D29*
X003558Y007278D03*
X002558Y007278D03*
D30*
X002558Y006245D03*
X004558Y006245D03*
D31*
X019368Y014068D03*
X021738Y012268D03*
X022358Y015728D03*
X017648Y017878D03*
X016868Y017878D03*
X018368Y021188D03*
X020518Y021168D03*
X026368Y020038D03*
X030558Y021638D03*
X039558Y026138D03*
X045558Y026138D03*
X045558Y024638D03*
X048058Y024388D03*
X049558Y024388D03*
X051058Y024388D03*
X052558Y024378D03*
X054058Y024428D03*
X055558Y024388D03*
X057058Y024388D03*
X058558Y024388D03*
X058558Y027638D03*
X059558Y028608D03*
X059058Y029138D03*
X059558Y030688D03*
X059308Y031638D03*
X055058Y029138D03*
X053558Y028638D03*
X052558Y028138D03*
X053458Y029828D03*
X054408Y031038D03*
X053558Y033958D03*
X054558Y035138D03*
X052058Y036638D03*
X049558Y036138D03*
X047058Y034638D03*
X045558Y034138D03*
X048808Y031638D03*
X048058Y031138D03*
X048558Y029838D03*
X058548Y036038D03*
X062728Y037128D03*
X047048Y038478D03*
X046058Y038638D03*
X046058Y037638D03*
X026058Y029138D03*
X024378Y029538D03*
X023898Y030128D03*
X023418Y030578D03*
X023138Y031168D03*
X022068Y030248D03*
X021238Y030238D03*
X020298Y030238D03*
X019808Y029648D03*
X012748Y024468D03*
X010058Y024838D03*
X008458Y024848D03*
X004628Y026498D03*
X002448Y024088D03*
X010118Y027098D03*
X006558Y017638D03*
D32*
X001008Y003758D02*
X063528Y003758D01*
X063518Y040668D01*
X001018Y040668D01*
X001008Y003758D01*
M02*
