G75*
G70*
%OFA0B0*%
%FSLAX24Y24*%
%IPPOS*%
%LPD*%
%AMOC8*
5,1,8,0,0,1.08239X$1,22.5*
%
%ADD10R,0.0552X0.0198*%
%ADD11R,0.0198X0.0552*%
%ADD12R,0.0671X0.0671*%
%ADD13C,0.0600*%
%ADD14R,0.0580X0.1580*%
%ADD15C,0.1340*%
%ADD16C,0.0940*%
%ADD17C,0.1580*%
%ADD18R,0.1025X0.1182*%
%ADD19C,0.0780*%
%ADD20C,0.0740*%
%ADD21R,0.0946X0.0316*%
%ADD22O,0.0680X0.1280*%
%ADD23R,0.0340X0.0880*%
%ADD24R,0.0592X0.0671*%
%ADD25R,0.0671X0.0592*%
%ADD26R,0.0513X0.0474*%
%ADD27R,0.0474X0.0513*%
%ADD28OC8,0.0680*%
%ADD29O,0.1280X0.0680*%
%ADD30O,0.0600X0.1120*%
%ADD31R,0.0867X0.0552*%
%ADD32R,0.0552X0.0867*%
%ADD33R,0.0867X0.0946*%
%ADD34R,0.0710X0.0789*%
%ADD35R,0.0789X0.0710*%
%ADD36R,0.0552X0.0257*%
%ADD37C,0.0830*%
%ADD38R,0.0316X0.0946*%
%ADD39C,0.0474*%
%ADD40R,0.0600X0.0600*%
%ADD41C,0.0630*%
%ADD42C,0.1360*%
%ADD43R,0.0380X0.0200*%
%ADD44C,0.0848*%
%ADD45OC8,0.0615*%
%ADD46C,0.0759*%
%ADD47R,0.0316X0.0395*%
%ADD48C,0.0480*%
%ADD49C,0.2620*%
%ADD50C,0.0520*%
%ADD51C,0.0680*%
D10*
X031802Y022615D03*
X031802Y022418D03*
X031802Y022221D03*
X031802Y022024D03*
X031802Y021827D03*
X031802Y021631D03*
X031802Y021434D03*
X031802Y021237D03*
X031802Y021040D03*
X031802Y020843D03*
X031802Y020646D03*
X031802Y020449D03*
X031802Y020253D03*
X031802Y020056D03*
X031802Y019859D03*
X031802Y019662D03*
X027314Y019662D03*
X027314Y019859D03*
X027314Y020056D03*
X027314Y020253D03*
X027314Y020449D03*
X027314Y020646D03*
X027314Y020843D03*
X027314Y021040D03*
X027314Y021237D03*
X027314Y021434D03*
X027314Y021631D03*
X027314Y021827D03*
X027314Y022024D03*
X027314Y022221D03*
X027314Y022418D03*
X027314Y022615D03*
D11*
X028082Y023383D03*
X028279Y023383D03*
X028476Y023383D03*
X028672Y023383D03*
X028869Y023383D03*
X029066Y023383D03*
X029263Y023383D03*
X029460Y023383D03*
X029657Y023383D03*
X029854Y023383D03*
X030050Y023383D03*
X030247Y023383D03*
X030444Y023383D03*
X030641Y023383D03*
X030838Y023383D03*
X031035Y023383D03*
X031035Y018894D03*
X030838Y018894D03*
X030641Y018894D03*
X030444Y018894D03*
X030247Y018894D03*
X030050Y018894D03*
X029854Y018894D03*
X029657Y018894D03*
X029460Y018894D03*
X029263Y018894D03*
X029066Y018894D03*
X028869Y018894D03*
X028672Y018894D03*
X028476Y018894D03*
X028279Y018894D03*
X028082Y018894D03*
D12*
X016718Y023629D03*
X016718Y025007D03*
D13*
X024568Y026148D03*
X012078Y018948D03*
X009078Y018948D03*
X006598Y018938D03*
X003598Y018938D03*
X003598Y015938D03*
X006598Y015938D03*
X009078Y015948D03*
X012078Y015948D03*
X052308Y012878D03*
D14*
X011528Y012238D03*
X010528Y012238D03*
X009528Y012238D03*
X008528Y012238D03*
X008528Y008688D03*
X009528Y008688D03*
X010528Y008688D03*
X011528Y008688D03*
D15*
X009807Y007225D03*
D16*
X011539Y004193D03*
X008074Y004193D03*
X004208Y038725D03*
X015458Y038725D03*
X026708Y038725D03*
X037951Y038725D03*
X046669Y040138D03*
X050448Y040138D03*
D17*
X009807Y005453D03*
D18*
X058271Y004797D03*
X058271Y007159D03*
X062602Y007159D03*
X062602Y004797D03*
D19*
X060437Y006569D03*
D20*
X060437Y004797D03*
X059058Y016138D03*
X059058Y017638D03*
X059058Y019138D03*
X059058Y020638D03*
X055058Y020638D03*
X055058Y019138D03*
X055058Y017638D03*
X055058Y016138D03*
X004661Y005223D03*
X002456Y005223D03*
D21*
X007407Y023598D03*
X007407Y024098D03*
X007407Y024598D03*
X007407Y025098D03*
X007407Y025598D03*
X007407Y026098D03*
X007407Y026598D03*
X007407Y027098D03*
X007407Y027598D03*
X007407Y028098D03*
X011029Y028098D03*
X011029Y027598D03*
X011029Y027098D03*
X011029Y026598D03*
X011029Y026098D03*
X011029Y025598D03*
X011029Y025098D03*
X011029Y024598D03*
X011029Y024098D03*
X011029Y023598D03*
X048455Y018058D03*
X048455Y017558D03*
X048455Y017058D03*
X048455Y016558D03*
X050502Y016558D03*
X050502Y017058D03*
X050502Y017558D03*
X050502Y018058D03*
X050532Y014378D03*
X050532Y013878D03*
X050532Y013378D03*
X050532Y012878D03*
X048485Y012878D03*
X048485Y013378D03*
X048485Y013878D03*
X048485Y014378D03*
D22*
X030848Y017158D03*
X029848Y017158D03*
X028848Y017158D03*
D23*
X023368Y018818D03*
X022868Y018818D03*
X022368Y018818D03*
X021868Y018818D03*
X021368Y018818D03*
X020868Y018818D03*
X020368Y018818D03*
X019868Y018818D03*
X019368Y018818D03*
X018868Y018818D03*
X018368Y018818D03*
X017868Y018818D03*
X017368Y018818D03*
X016868Y018818D03*
X016868Y014858D03*
X017368Y014858D03*
X017868Y014858D03*
X018368Y014858D03*
X018868Y014858D03*
X019368Y014858D03*
X019868Y014858D03*
X020368Y014858D03*
X020868Y014858D03*
X021368Y014858D03*
X021868Y014858D03*
X022368Y014858D03*
X022868Y014858D03*
X023368Y014858D03*
D24*
X020863Y013258D03*
X020194Y013258D03*
X020204Y020438D03*
X020873Y020438D03*
X014613Y020758D03*
X013944Y020758D03*
X006363Y025958D03*
X005694Y025958D03*
X026874Y024198D03*
X027543Y024198D03*
X032324Y024838D03*
X032993Y024838D03*
X032983Y025638D03*
X032314Y025638D03*
X033354Y030438D03*
X034023Y030438D03*
X029123Y030438D03*
X028454Y030438D03*
X004603Y009258D03*
X003934Y009258D03*
X062054Y037748D03*
X062723Y037748D03*
D25*
X059308Y032973D03*
X059308Y032304D03*
X058558Y025973D03*
X058558Y025304D03*
X057058Y025304D03*
X057058Y025973D03*
X055558Y025973D03*
X055558Y025304D03*
X054058Y025304D03*
X054058Y025973D03*
X052558Y025973D03*
X052558Y025304D03*
X051058Y025304D03*
X051058Y025973D03*
X049558Y025973D03*
X049558Y025304D03*
X048058Y025304D03*
X048058Y025973D03*
X048058Y023473D03*
X048058Y022804D03*
X049558Y022804D03*
X049558Y023473D03*
X051058Y023473D03*
X051058Y022804D03*
X052558Y022804D03*
X052558Y023473D03*
X054058Y023473D03*
X054058Y022804D03*
X055558Y022804D03*
X055558Y023473D03*
X057058Y023473D03*
X057058Y022804D03*
X058558Y022804D03*
X058558Y023473D03*
X048808Y032304D03*
X048808Y032973D03*
X021728Y013763D03*
X021728Y013094D03*
X012588Y007523D03*
X012588Y006854D03*
X011528Y010154D03*
X011528Y010823D03*
X008528Y010813D03*
X008528Y010144D03*
X007168Y009543D03*
X007168Y008874D03*
X007168Y010814D03*
X007168Y011483D03*
X018368Y019714D03*
X019338Y019714D03*
X019338Y020383D03*
X018368Y020383D03*
X016728Y022144D03*
X016728Y022813D03*
X011998Y024594D03*
X011998Y025263D03*
X012008Y026664D03*
X012008Y027333D03*
X005638Y025103D03*
X005638Y024434D03*
X006398Y023193D03*
X006398Y022524D03*
D26*
X007564Y021718D03*
X008233Y021718D03*
X011554Y021738D03*
X012223Y021738D03*
X020204Y019638D03*
X020873Y019638D03*
X024544Y021968D03*
X025213Y021968D03*
X025213Y022768D03*
X024544Y022768D03*
X024733Y023568D03*
X024064Y023568D03*
X024233Y024368D03*
X023564Y024368D03*
X023863Y025188D03*
X023194Y025188D03*
X021088Y024843D03*
X021088Y024174D03*
X023324Y027758D03*
X023993Y027758D03*
X024844Y027748D03*
X025513Y027748D03*
X026404Y027738D03*
X027073Y027738D03*
X029854Y030438D03*
X030523Y030438D03*
X022538Y013813D03*
X022538Y013144D03*
X020863Y014058D03*
X020194Y014058D03*
X018128Y013863D03*
X018128Y013194D03*
X003713Y024088D03*
X003044Y024088D03*
D27*
X007158Y005114D03*
X007158Y005783D03*
X017764Y023118D03*
X018433Y023118D03*
X018433Y023918D03*
X017764Y023918D03*
X017764Y024718D03*
X018433Y024718D03*
X006448Y024434D03*
X006448Y025103D03*
X036224Y025138D03*
X036893Y025138D03*
X036893Y024138D03*
X036224Y024138D03*
X036224Y023138D03*
X036893Y023138D03*
X036893Y022138D03*
X036224Y022138D03*
X036224Y021138D03*
X036893Y021138D03*
X036893Y020138D03*
X036224Y020138D03*
X036224Y019138D03*
X036893Y019138D03*
X036893Y018138D03*
X036224Y018138D03*
X036224Y017138D03*
X036893Y017138D03*
X036893Y016138D03*
X036224Y016138D03*
X036224Y015138D03*
X036893Y015138D03*
X036893Y014138D03*
X036224Y014138D03*
X036224Y013138D03*
X036893Y013138D03*
X052318Y013714D03*
X052318Y014383D03*
X052288Y017394D03*
X052288Y018063D03*
X036893Y026138D03*
X036224Y026138D03*
X036224Y027138D03*
X036893Y027138D03*
X036893Y028138D03*
X036224Y028138D03*
X049394Y029818D03*
X050063Y029818D03*
X050063Y030628D03*
X049394Y030628D03*
X052074Y030648D03*
X052743Y030648D03*
X052743Y029828D03*
X052074Y029828D03*
X053724Y032108D03*
X054393Y032108D03*
X054393Y033208D03*
X053724Y033208D03*
X052713Y034598D03*
X052044Y034598D03*
X052044Y035408D03*
X052713Y035408D03*
X050063Y035408D03*
X049394Y035408D03*
X049394Y034598D03*
X050063Y034598D03*
X055374Y034588D03*
X056043Y034588D03*
X056063Y035418D03*
X055394Y035418D03*
X058074Y035408D03*
X058743Y035408D03*
X058743Y034588D03*
X058074Y034588D03*
X058074Y030668D03*
X058743Y030668D03*
X058743Y029838D03*
X058074Y029838D03*
X056053Y029818D03*
X055384Y029818D03*
X055384Y030638D03*
X056053Y030638D03*
X048543Y038478D03*
X047874Y038478D03*
D28*
X053178Y038638D03*
X053178Y037638D03*
X053178Y036638D03*
X054178Y036638D03*
X055178Y036638D03*
X056178Y036638D03*
X057178Y036638D03*
X058178Y036638D03*
X059178Y036638D03*
X060178Y036638D03*
X060178Y037638D03*
X059178Y037638D03*
X058178Y037638D03*
X057178Y037638D03*
X056178Y037638D03*
X055178Y037638D03*
X054178Y037638D03*
X054178Y038638D03*
X055178Y038638D03*
X056178Y038638D03*
X057178Y038638D03*
X058178Y038638D03*
X059178Y038638D03*
X060178Y038638D03*
X034538Y028678D03*
X033538Y028678D03*
X033538Y027678D03*
X034538Y027678D03*
X032538Y027678D03*
X031538Y027678D03*
X030538Y027678D03*
X029538Y027678D03*
X028538Y027678D03*
X028538Y028678D03*
X029538Y028678D03*
X030538Y028678D03*
X031538Y028678D03*
X032538Y028678D03*
D29*
X005348Y023188D03*
X005348Y022188D03*
X005348Y021188D03*
D30*
X061798Y038713D03*
X062798Y038713D03*
D31*
X020689Y012258D03*
X019587Y012258D03*
X012219Y020718D03*
X011117Y020718D03*
X008419Y020718D03*
X007317Y020718D03*
D32*
X004628Y024437D03*
X004628Y025540D03*
D33*
X025848Y025388D03*
X027029Y025388D03*
D34*
X046397Y017348D03*
X047499Y017348D03*
X047569Y013618D03*
X046467Y013618D03*
D35*
X051478Y013880D03*
X051478Y012777D03*
X051458Y016457D03*
X051458Y017560D03*
D36*
X004345Y022685D03*
X004345Y022940D03*
X004345Y023196D03*
X004345Y023452D03*
X002632Y023452D03*
X002632Y023196D03*
X002632Y022940D03*
X002632Y022685D03*
D37*
X009405Y031638D03*
X008184Y034237D03*
X005783Y034237D03*
X003381Y034237D03*
X003735Y035772D03*
X005783Y037111D03*
X007830Y037111D03*
X014985Y035772D03*
X014631Y034237D03*
X017033Y034237D03*
X019434Y034237D03*
X020655Y031638D03*
X025881Y034237D03*
X026235Y035772D03*
X028283Y037111D03*
X030330Y037111D03*
X030684Y034237D03*
X028283Y034237D03*
X031905Y031638D03*
X037124Y034237D03*
X037478Y035772D03*
X039526Y037111D03*
X041573Y037111D03*
X041927Y034237D03*
X039526Y034237D03*
X043148Y031638D03*
X019080Y037111D03*
X017033Y037111D03*
D38*
X049558Y033662D03*
X050058Y033662D03*
X050558Y033662D03*
X051058Y033662D03*
X051558Y033662D03*
X052058Y033662D03*
X052558Y033662D03*
X052558Y031615D03*
X052058Y031615D03*
X051558Y031615D03*
X051058Y031615D03*
X050558Y031615D03*
X050058Y031615D03*
X049558Y031615D03*
X055558Y031615D03*
X056058Y031615D03*
X056558Y031615D03*
X057058Y031615D03*
X057558Y031615D03*
X058058Y031615D03*
X058558Y031615D03*
X058558Y033662D03*
X058058Y033662D03*
X057558Y033662D03*
X057058Y033662D03*
X056558Y033662D03*
X056058Y033662D03*
X055558Y033662D03*
D39*
X055558Y027138D03*
X057058Y027138D03*
X058558Y027138D03*
X054058Y027138D03*
X052558Y027138D03*
X051058Y027138D03*
X049558Y027138D03*
X048058Y027138D03*
X037358Y027138D03*
X037358Y028138D03*
X037368Y026138D03*
X037368Y025138D03*
X037368Y024108D03*
X037368Y023138D03*
X037358Y022138D03*
X037358Y021138D03*
X037358Y020138D03*
X037358Y019138D03*
X037358Y018138D03*
X037358Y017138D03*
X037358Y016138D03*
X037358Y015138D03*
X037358Y014138D03*
X037358Y013138D03*
X012748Y022158D03*
X011998Y025958D03*
D40*
X047771Y039745D03*
X048558Y039745D03*
X049346Y039745D03*
X049346Y040532D03*
X048558Y040532D03*
X047771Y040532D03*
D41*
X048168Y010638D03*
X047168Y010638D03*
X046168Y010638D03*
X046668Y009638D03*
X047668Y009638D03*
X048668Y009638D03*
X052238Y010638D03*
X053238Y010638D03*
X054238Y010638D03*
X053738Y009638D03*
X054738Y009638D03*
X052738Y009638D03*
X038308Y009638D03*
X037308Y009638D03*
X036308Y009638D03*
X035808Y010638D03*
X036808Y010638D03*
X037808Y010638D03*
X032218Y009638D03*
X031218Y009638D03*
X030218Y009638D03*
X029718Y010638D03*
X030718Y010638D03*
X031718Y010638D03*
X026118Y009638D03*
X025118Y009638D03*
X024118Y009638D03*
X023618Y010638D03*
X024618Y010638D03*
X025618Y010638D03*
X020038Y009638D03*
X019038Y009638D03*
X018038Y009638D03*
X017538Y010638D03*
X018538Y010638D03*
X019538Y010638D03*
D42*
X020788Y007138D03*
X022868Y007138D03*
X026868Y007138D03*
X028968Y007138D03*
X032968Y007138D03*
X035058Y007138D03*
X039058Y007138D03*
X045418Y007138D03*
X049418Y007138D03*
X051488Y007138D03*
X055488Y007138D03*
X016788Y007138D03*
D43*
X038817Y015948D03*
X038817Y016144D03*
X038817Y016341D03*
X038817Y016538D03*
X038817Y016735D03*
X038817Y016932D03*
X038817Y017129D03*
X038817Y017326D03*
X039309Y017326D03*
X039309Y017129D03*
X039309Y016932D03*
X039309Y016735D03*
X039309Y016538D03*
X039309Y016341D03*
X039309Y016144D03*
X039309Y015948D03*
X039327Y023948D03*
X039327Y024144D03*
X039327Y024341D03*
X039327Y024538D03*
X039327Y024735D03*
X039327Y024932D03*
X039327Y025129D03*
X039327Y025326D03*
X039819Y025326D03*
X039819Y025129D03*
X039819Y024932D03*
X039819Y024735D03*
X039819Y024538D03*
X039819Y024341D03*
X039819Y024144D03*
X039819Y023948D03*
D44*
X062558Y020528D03*
X062558Y018560D03*
X062558Y016591D03*
X062558Y014623D03*
D45*
X004558Y007278D03*
X003558Y007278D03*
X002558Y007278D03*
D46*
X002558Y006245D03*
X004558Y006245D03*
D47*
X021126Y028757D03*
X021441Y028757D03*
X021756Y028757D03*
X022071Y028757D03*
X022566Y028757D03*
X022881Y028757D03*
X023196Y028757D03*
X023511Y028757D03*
X023511Y029230D03*
X023196Y029230D03*
X022881Y029230D03*
X022566Y029230D03*
X022071Y029230D03*
X021756Y029230D03*
X021441Y029230D03*
X021126Y029230D03*
D48*
X021238Y030238D03*
X022068Y030248D03*
X023418Y030578D03*
X023138Y031168D03*
X023898Y030128D03*
X024378Y029538D03*
X026058Y029138D03*
X026488Y027198D03*
X025178Y027078D03*
X023538Y026928D03*
X023198Y025908D03*
X021088Y025658D03*
X022958Y024348D03*
X023238Y023558D03*
X023768Y022718D03*
X023928Y021868D03*
X026368Y020038D03*
X028308Y018088D03*
X029458Y018088D03*
X034558Y015138D03*
X035558Y016138D03*
X035558Y017138D03*
X035558Y018138D03*
X035558Y019138D03*
X035558Y020138D03*
X035558Y021138D03*
X035558Y022138D03*
X035558Y023138D03*
X035558Y024138D03*
X035558Y025138D03*
X035558Y026138D03*
X034058Y026138D03*
X035658Y027138D03*
X035558Y028138D03*
X039558Y026138D03*
X045558Y026138D03*
X045558Y024638D03*
X048058Y024388D03*
X049558Y024388D03*
X051058Y024388D03*
X052558Y024378D03*
X054058Y024428D03*
X055558Y024388D03*
X057058Y024388D03*
X058558Y024388D03*
X058558Y027638D03*
X059558Y028608D03*
X059058Y029138D03*
X059558Y030688D03*
X059308Y031638D03*
X059308Y033638D03*
X058548Y036038D03*
X054558Y035138D03*
X054408Y034238D03*
X053558Y033958D03*
X052058Y036638D03*
X049558Y036138D03*
X047058Y034638D03*
X048808Y033688D03*
X048808Y031638D03*
X048058Y031138D03*
X048558Y029838D03*
X052558Y028138D03*
X053558Y028638D03*
X055058Y029138D03*
X053458Y029828D03*
X054408Y031038D03*
X045558Y034138D03*
X046058Y037638D03*
X046058Y038638D03*
X047048Y038478D03*
X062728Y037128D03*
X048618Y018618D03*
X049308Y017888D03*
X049658Y017288D03*
X049258Y016788D03*
X049008Y015938D03*
X049258Y014188D03*
X049708Y013588D03*
X049518Y012278D03*
X035558Y013138D03*
X035558Y014138D03*
X030558Y021638D03*
X027058Y026188D03*
X020298Y030238D03*
X019808Y029648D03*
X016708Y025838D03*
X014558Y024638D03*
X012748Y024468D03*
X010068Y024098D03*
X010058Y024838D03*
X010098Y025598D03*
X008458Y024848D03*
X004628Y026498D03*
X006168Y027568D03*
X004558Y030138D03*
X010118Y027098D03*
X012008Y027968D03*
X003718Y024628D03*
X002448Y024088D03*
X006558Y017638D03*
X012558Y012638D03*
X018128Y012268D03*
X019368Y014068D03*
X021738Y012268D03*
X022538Y012258D03*
X022358Y015728D03*
X017648Y017878D03*
X016868Y017878D03*
X014558Y016638D03*
X018368Y021188D03*
X019848Y021178D03*
X020518Y021168D03*
X007168Y012298D03*
D49*
X003558Y012138D03*
X017058Y029638D03*
X041058Y027638D03*
X062058Y034638D03*
X060558Y010138D03*
D50*
X058558Y022138D03*
X057058Y022138D03*
X055558Y022138D03*
X054058Y022138D03*
X052558Y022138D03*
X051058Y022138D03*
X049558Y022138D03*
X048058Y022138D03*
D51*
X052308Y016488D03*
M02*
