G75*
G70*
%OFA0B0*%
%FSLAX24Y24*%
%IPPOS*%
%LPD*%
%AMOC8*
5,1,8,0,0,1.08239X$1,22.5*
%
%ADD10C,0.0550*%
%ADD11C,0.0768*%
%ADD12O,0.0600X0.1200*%
%ADD13C,0.0160*%
%ADD14C,0.0400*%
%ADD15C,0.0400*%
%ADD16C,0.0600*%
%ADD17C,0.1650*%
D10*
X007659Y008879D03*
X006659Y008379D03*
X007659Y007879D03*
X006659Y007379D03*
X007659Y006879D03*
X006659Y006379D03*
D11*
X007115Y002629D03*
X005147Y002629D03*
X009084Y002629D03*
X011643Y002629D03*
X013612Y002629D03*
X015580Y002629D03*
X015775Y013429D03*
X013806Y013429D03*
X011838Y013429D03*
X009275Y013429D03*
X007306Y013429D03*
X005338Y013429D03*
D12*
X009659Y010529D03*
X010659Y010529D03*
X011659Y010529D03*
X013659Y010529D03*
X014659Y010529D03*
X015659Y010529D03*
X015659Y005529D03*
X014659Y005529D03*
X013659Y005529D03*
X011659Y005529D03*
X010659Y005529D03*
X009659Y005529D03*
D13*
X001691Y002392D02*
X001691Y001624D01*
X023223Y001624D01*
X023223Y014634D01*
X014163Y014634D01*
X014169Y014628D01*
X015069Y013728D01*
X015069Y013430D01*
X015069Y013328D01*
X016019Y012378D01*
X016019Y012080D01*
X016019Y011119D01*
X016119Y011019D01*
X016119Y010038D01*
X015850Y009769D01*
X015469Y009769D01*
X015199Y010038D01*
X015199Y011019D01*
X015299Y011119D01*
X015299Y012080D01*
X014899Y012480D01*
X014899Y011239D01*
X015119Y011019D01*
X015119Y010038D01*
X014850Y009769D01*
X014469Y009769D01*
X014199Y010038D01*
X014199Y011019D01*
X014419Y011239D01*
X014419Y012522D01*
X013997Y012919D01*
X013914Y012885D01*
X013698Y012885D01*
X013498Y012968D01*
X013345Y013121D01*
X013262Y013321D01*
X013262Y013537D01*
X013345Y013737D01*
X013498Y013890D01*
X013698Y013973D01*
X013806Y013973D01*
X013660Y014119D01*
X011657Y014119D01*
X011803Y013973D01*
X011946Y013973D01*
X012146Y013890D01*
X012299Y013737D01*
X012382Y013537D01*
X012382Y013321D01*
X012299Y013121D01*
X012146Y012968D01*
X012019Y012915D01*
X012019Y011119D01*
X012119Y011019D01*
X012119Y010038D01*
X011850Y009769D01*
X011469Y009769D01*
X011199Y010038D01*
X011199Y011019D01*
X011299Y011119D01*
X011299Y013308D01*
X011294Y013321D01*
X011294Y013464D01*
X010639Y014119D01*
X010639Y014119D01*
X006558Y014119D01*
X005882Y013442D01*
X005882Y013321D01*
X005799Y013121D01*
X005646Y012968D01*
X005446Y012885D01*
X005230Y012885D01*
X005030Y012968D01*
X004877Y013121D01*
X004794Y013321D01*
X004794Y013537D01*
X004877Y013737D01*
X005030Y013890D01*
X005230Y013973D01*
X005394Y013973D01*
X006049Y014628D01*
X006049Y014628D01*
X006055Y014634D01*
X001691Y014634D01*
X001691Y013865D01*
X001824Y014187D01*
X002101Y014464D01*
X002463Y014614D01*
X002855Y014614D01*
X003217Y014464D01*
X003494Y014187D01*
X003644Y013825D01*
X003644Y013433D01*
X003494Y013071D01*
X003217Y012794D01*
X002855Y012644D01*
X002463Y012644D01*
X002101Y012794D01*
X001824Y013071D01*
X001691Y013392D01*
X001691Y002866D01*
X001824Y003187D01*
X002101Y003464D01*
X002463Y003614D01*
X002855Y003614D01*
X003217Y003464D01*
X003494Y003187D01*
X003644Y002825D01*
X003644Y002433D01*
X003494Y002071D01*
X003217Y001794D01*
X002855Y001644D01*
X002463Y001644D01*
X002101Y001794D01*
X001824Y002071D01*
X001691Y002392D01*
X001691Y002239D02*
X001755Y002239D01*
X001691Y002080D02*
X001820Y002080D01*
X001691Y001922D02*
X001973Y001922D01*
X002175Y001763D02*
X001691Y001763D01*
X003143Y001763D02*
X019675Y001763D01*
X019601Y001794D02*
X019963Y001644D01*
X020355Y001644D01*
X020717Y001794D01*
X020994Y002071D01*
X021144Y002433D01*
X021144Y002825D01*
X020994Y003187D01*
X020717Y003464D01*
X020355Y003614D01*
X019963Y003614D01*
X019601Y003464D01*
X019324Y003187D01*
X019174Y002825D01*
X019174Y002433D01*
X019324Y002071D01*
X019601Y001794D01*
X019473Y001922D02*
X003345Y001922D01*
X003498Y002080D02*
X004998Y002080D01*
X005035Y002065D02*
X005099Y002065D01*
X005099Y002581D01*
X004583Y002581D01*
X004583Y002517D01*
X004669Y002309D01*
X004828Y002151D01*
X005035Y002065D01*
X005099Y002080D02*
X005195Y002080D01*
X005195Y002065D02*
X005259Y002065D01*
X005466Y002151D01*
X005625Y002309D01*
X005711Y002517D01*
X005711Y002581D01*
X005195Y002581D01*
X005195Y002065D01*
X005296Y002080D02*
X011495Y002080D01*
X011531Y002065D02*
X011595Y002065D01*
X011595Y002581D01*
X011079Y002581D01*
X011079Y002517D01*
X011165Y002309D01*
X011324Y002151D01*
X011531Y002065D01*
X011595Y002080D02*
X011691Y002080D01*
X011691Y002065D02*
X011755Y002065D01*
X011963Y002151D01*
X012121Y002309D01*
X012207Y002517D01*
X012207Y002581D01*
X011691Y002581D01*
X011691Y002065D01*
X011792Y002080D02*
X019320Y002080D01*
X019254Y002239D02*
X015959Y002239D01*
X015888Y002168D02*
X016041Y002321D01*
X016124Y002521D01*
X016124Y002737D01*
X016090Y002820D01*
X016549Y003279D01*
X016549Y003478D01*
X016549Y003810D01*
X016614Y003875D01*
X016669Y004007D01*
X016669Y004150D01*
X016614Y004283D01*
X016513Y004384D01*
X016381Y004439D01*
X016237Y004439D01*
X016105Y004384D01*
X016004Y004283D01*
X015949Y004150D01*
X015949Y004007D01*
X016004Y003875D01*
X016069Y003810D01*
X016069Y003478D01*
X015742Y003151D01*
X015689Y003173D01*
X015472Y003173D01*
X015272Y003090D01*
X015119Y002937D01*
X015036Y002737D01*
X015036Y002521D01*
X015119Y002321D01*
X015272Y002168D01*
X015472Y002085D01*
X015689Y002085D01*
X015888Y002168D01*
X016073Y002397D02*
X019189Y002397D01*
X019174Y002556D02*
X016124Y002556D01*
X016124Y002714D02*
X019174Y002714D01*
X019194Y002873D02*
X016142Y002873D01*
X016301Y003031D02*
X019260Y003031D01*
X019327Y003190D02*
X016459Y003190D01*
X016549Y003348D02*
X019486Y003348D01*
X019705Y003507D02*
X016549Y003507D01*
X016549Y003666D02*
X023223Y003666D01*
X023223Y003824D02*
X019163Y003824D01*
X019264Y003925D01*
X019319Y004057D01*
X019319Y004149D01*
X020458Y005289D01*
X022190Y005289D01*
X022255Y005224D01*
X022387Y005169D01*
X022531Y005169D01*
X022663Y005224D01*
X022764Y005325D01*
X022819Y005457D01*
X022819Y005600D01*
X022770Y005719D01*
X022831Y005719D01*
X022963Y005774D01*
X023064Y005875D01*
X023119Y006007D01*
X023119Y006150D01*
X023064Y006283D01*
X022963Y006384D01*
X022831Y006439D01*
X022687Y006439D01*
X022555Y006384D01*
X022490Y006319D01*
X019208Y006319D01*
X019010Y006319D01*
X018560Y005869D01*
X018458Y005869D01*
X018464Y005875D01*
X018519Y006007D01*
X018519Y006150D01*
X018464Y006283D01*
X018363Y006384D01*
X018231Y006439D01*
X018138Y006439D01*
X016099Y008478D01*
X015958Y008619D01*
X009208Y008619D01*
X009228Y008639D01*
X017108Y008639D01*
X017249Y008779D01*
X018088Y009619D01*
X018181Y009619D01*
X018313Y009674D01*
X018414Y009775D01*
X018469Y009907D01*
X018469Y010050D01*
X018414Y010183D01*
X018313Y010284D01*
X018181Y010339D01*
X018037Y010339D01*
X017988Y010318D01*
X018058Y010389D01*
X018560Y010389D01*
X019360Y009589D01*
X019558Y009589D01*
X022490Y009589D01*
X022555Y009524D01*
X022687Y009469D01*
X022831Y009469D01*
X022963Y009524D01*
X023064Y009625D01*
X023119Y009757D01*
X023119Y009900D01*
X023064Y010033D01*
X022963Y010134D01*
X022831Y010189D01*
X022687Y010189D01*
X022555Y010134D01*
X022490Y010069D01*
X019558Y010069D01*
X018899Y010728D01*
X018758Y010869D01*
X018058Y010869D01*
X017860Y010869D01*
X016610Y009619D01*
X008608Y009619D01*
X008219Y010008D01*
X008219Y010100D01*
X008164Y010233D01*
X008063Y010334D01*
X007931Y010389D01*
X007787Y010389D01*
X007655Y010334D01*
X007554Y010233D01*
X007499Y010100D01*
X007499Y009957D01*
X007554Y009825D01*
X007655Y009724D01*
X007787Y009669D01*
X007880Y009669D01*
X008410Y009139D01*
X008608Y009139D01*
X008710Y009139D01*
X008654Y009083D01*
X008599Y008950D01*
X008599Y008807D01*
X008654Y008675D01*
X008710Y008619D01*
X008042Y008619D01*
X008045Y008621D01*
X008114Y008788D01*
X008114Y008871D01*
X007667Y008871D01*
X007667Y008619D01*
X007651Y008619D01*
X007651Y008871D01*
X007204Y008871D01*
X007204Y008788D01*
X007273Y008621D01*
X007276Y008619D01*
X007030Y008619D01*
X007028Y008625D01*
X006905Y008748D01*
X006746Y008814D01*
X006572Y008814D01*
X006413Y008748D01*
X006290Y008625D01*
X006224Y008465D01*
X006224Y008292D01*
X006290Y008132D01*
X006413Y008010D01*
X006572Y007944D01*
X006746Y007944D01*
X006905Y008010D01*
X007028Y008132D01*
X007030Y008139D01*
X007304Y008139D01*
X007290Y008125D01*
X007224Y007965D01*
X007224Y007792D01*
X007290Y007632D01*
X007413Y007510D01*
X007572Y007444D01*
X007746Y007444D01*
X007905Y007510D01*
X008028Y007632D01*
X008030Y007639D01*
X015310Y007639D01*
X017560Y005389D01*
X017758Y005389D01*
X018758Y005389D01*
X018899Y005529D01*
X019208Y005839D01*
X022267Y005839D01*
X022255Y005834D01*
X022190Y005769D01*
X020260Y005769D01*
X020119Y005628D01*
X018980Y004489D01*
X018887Y004489D01*
X018755Y004434D01*
X018654Y004333D01*
X018599Y004200D01*
X018599Y004057D01*
X018654Y003925D01*
X018755Y003824D01*
X016563Y003824D01*
X016659Y003983D02*
X018630Y003983D01*
X018599Y004141D02*
X016669Y004141D01*
X016597Y004300D02*
X018640Y004300D01*
X018814Y004458D02*
X014899Y004458D01*
X014899Y004300D02*
X016021Y004300D01*
X015949Y004141D02*
X014899Y004141D01*
X014899Y003983D02*
X015959Y003983D01*
X016055Y003824D02*
X014899Y003824D01*
X014899Y003666D02*
X016069Y003666D01*
X016069Y003507D02*
X014829Y003507D01*
X014899Y003577D02*
X014899Y004818D01*
X015119Y005038D01*
X015119Y006019D01*
X014850Y006289D01*
X014469Y006289D01*
X014199Y006019D01*
X014199Y005038D01*
X014419Y004818D01*
X014419Y003775D01*
X013788Y003144D01*
X013720Y003173D01*
X013504Y003173D01*
X013304Y003090D01*
X013151Y002937D01*
X013068Y002737D01*
X013068Y002521D01*
X013151Y002321D01*
X013304Y002168D01*
X013504Y002085D01*
X013720Y002085D01*
X013920Y002168D01*
X014073Y002321D01*
X014156Y002521D01*
X014156Y002737D01*
X014127Y002805D01*
X014758Y003436D01*
X014899Y003577D01*
X014659Y003676D02*
X014659Y005829D01*
X014199Y005885D02*
X014119Y005885D01*
X014119Y006019D02*
X013850Y006289D01*
X013469Y006289D01*
X013199Y006019D01*
X013199Y005178D01*
X012110Y004089D01*
X012068Y004089D01*
X011898Y004019D01*
X011769Y003889D01*
X011699Y003720D01*
X011699Y003537D01*
X011769Y003368D01*
X011898Y003239D01*
X012068Y003169D01*
X012251Y003169D01*
X012420Y003239D01*
X012549Y003368D01*
X012619Y003537D01*
X012619Y003580D01*
X013808Y004769D01*
X013850Y004769D01*
X014119Y005038D01*
X014119Y006019D01*
X014095Y006044D02*
X014223Y006044D01*
X014382Y006202D02*
X013936Y006202D01*
X013382Y006202D02*
X011964Y006202D01*
X011858Y006309D02*
X012139Y006028D01*
X012139Y005849D01*
X011679Y005849D01*
X011679Y006309D01*
X011858Y006309D01*
X011679Y006202D02*
X011639Y006202D01*
X011639Y006309D02*
X011460Y006309D01*
X011179Y006028D01*
X011179Y005849D01*
X011639Y005849D01*
X011639Y006309D01*
X011354Y006202D02*
X010936Y006202D01*
X010850Y006289D02*
X010469Y006289D01*
X010199Y006019D01*
X010199Y005038D01*
X010214Y005023D01*
X008060Y002869D01*
X007605Y002869D01*
X007576Y002937D01*
X007424Y003090D01*
X007224Y003173D01*
X007007Y003173D01*
X006807Y003090D01*
X006654Y002937D01*
X006572Y002737D01*
X006572Y002521D01*
X006654Y002321D01*
X006807Y002168D01*
X007007Y002085D01*
X007224Y002085D01*
X007424Y002168D01*
X007576Y002321D01*
X007605Y002389D01*
X008060Y002389D01*
X008258Y002389D01*
X008540Y002671D01*
X008540Y002521D01*
X008623Y002321D01*
X008776Y002168D01*
X008976Y002085D01*
X009192Y002085D01*
X009392Y002168D01*
X009545Y002321D01*
X009628Y002521D01*
X009628Y002737D01*
X009545Y002937D01*
X009392Y003090D01*
X009192Y003173D01*
X009042Y003173D01*
X010638Y004769D01*
X010850Y004769D01*
X011119Y005038D01*
X011119Y006019D01*
X010850Y006289D01*
X011095Y006044D02*
X011195Y006044D01*
X011179Y005885D02*
X011119Y005885D01*
X011179Y005809D02*
X011179Y005030D01*
X011460Y004749D01*
X011639Y004749D01*
X011639Y005809D01*
X011179Y005809D01*
X011179Y005727D02*
X011119Y005727D01*
X011119Y005568D02*
X011179Y005568D01*
X011179Y005409D02*
X011119Y005409D01*
X011119Y005251D02*
X011179Y005251D01*
X011179Y005092D02*
X011119Y005092D01*
X011015Y004934D02*
X011275Y004934D01*
X011434Y004775D02*
X010856Y004775D01*
X010486Y004617D02*
X012638Y004617D01*
X012796Y004775D02*
X011884Y004775D01*
X011858Y004749D02*
X012139Y005030D01*
X012139Y005809D01*
X011679Y005809D01*
X011679Y004749D01*
X011858Y004749D01*
X011679Y004775D02*
X011639Y004775D01*
X011639Y004934D02*
X011679Y004934D01*
X011679Y005092D02*
X011639Y005092D01*
X011639Y005251D02*
X011679Y005251D01*
X011679Y005409D02*
X011639Y005409D01*
X011639Y005568D02*
X011679Y005568D01*
X011679Y005727D02*
X011639Y005727D01*
X011639Y005885D02*
X011679Y005885D01*
X011679Y006044D02*
X011639Y006044D01*
X012123Y006044D02*
X013223Y006044D01*
X013199Y005885D02*
X012139Y005885D01*
X012139Y005727D02*
X013199Y005727D01*
X013199Y005568D02*
X012139Y005568D01*
X012139Y005409D02*
X013199Y005409D01*
X013199Y005251D02*
X012139Y005251D01*
X012139Y005092D02*
X013114Y005092D01*
X012955Y004934D02*
X012043Y004934D01*
X012479Y004458D02*
X010328Y004458D01*
X010169Y004300D02*
X012321Y004300D01*
X012162Y004141D02*
X010011Y004141D01*
X009852Y003983D02*
X011862Y003983D01*
X011742Y003824D02*
X009694Y003824D01*
X009535Y003666D02*
X011699Y003666D01*
X011712Y003507D02*
X009377Y003507D01*
X009218Y003348D02*
X011789Y003348D01*
X011755Y003193D02*
X011963Y003107D01*
X012121Y002948D01*
X012207Y002741D01*
X012207Y002677D01*
X011691Y002677D01*
X011691Y003193D01*
X011755Y003193D01*
X011762Y003190D02*
X012017Y003190D01*
X012038Y003031D02*
X013245Y003031D01*
X013124Y002873D02*
X012153Y002873D01*
X012207Y002714D02*
X013068Y002714D01*
X013068Y002556D02*
X012207Y002556D01*
X012158Y002397D02*
X013119Y002397D01*
X013233Y002239D02*
X012051Y002239D01*
X011691Y002239D02*
X011595Y002239D01*
X011595Y002397D02*
X011691Y002397D01*
X011691Y002556D02*
X011595Y002556D01*
X011595Y002677D02*
X011595Y003193D01*
X011531Y003193D01*
X011324Y003107D01*
X011165Y002948D01*
X011079Y002741D01*
X011079Y002677D01*
X011595Y002677D01*
X011595Y002714D02*
X011691Y002714D01*
X011691Y002873D02*
X011595Y002873D01*
X011595Y003031D02*
X011691Y003031D01*
X011691Y003190D02*
X011595Y003190D01*
X011524Y003190D02*
X009059Y003190D01*
X009451Y003031D02*
X011248Y003031D01*
X011134Y002873D02*
X009572Y002873D01*
X009628Y002714D02*
X011079Y002714D01*
X011079Y002556D02*
X009628Y002556D01*
X009577Y002397D02*
X011129Y002397D01*
X011236Y002239D02*
X009463Y002239D01*
X008705Y002239D02*
X007494Y002239D01*
X007115Y002629D02*
X008159Y002629D01*
X010659Y005129D01*
X010659Y005829D01*
X010223Y006044D02*
X010095Y006044D01*
X010119Y006019D02*
X009850Y006289D01*
X009469Y006289D01*
X009199Y006019D01*
X009199Y005038D01*
X009469Y004769D01*
X009850Y004769D01*
X010119Y005038D01*
X010119Y006019D01*
X010119Y005885D02*
X010199Y005885D01*
X010199Y005727D02*
X010119Y005727D01*
X010119Y005568D02*
X010199Y005568D01*
X010199Y005409D02*
X010119Y005409D01*
X010119Y005251D02*
X010199Y005251D01*
X010199Y005092D02*
X010119Y005092D01*
X010125Y004934D02*
X010015Y004934D01*
X009966Y004775D02*
X009856Y004775D01*
X009808Y004617D02*
X004642Y004617D01*
X004793Y004679D02*
X005109Y004994D01*
X005279Y005406D01*
X005279Y005852D01*
X005109Y006263D01*
X004793Y006578D01*
X004382Y006749D01*
X003936Y006749D01*
X003525Y006578D01*
X003210Y006263D01*
X003039Y005852D01*
X003039Y005406D01*
X003210Y004994D01*
X003525Y004679D01*
X003936Y004509D01*
X004382Y004509D01*
X004793Y004679D01*
X004889Y004775D02*
X009462Y004775D01*
X009303Y004934D02*
X005048Y004934D01*
X005149Y005092D02*
X009199Y005092D01*
X009199Y005251D02*
X005215Y005251D01*
X005279Y005409D02*
X007369Y005409D01*
X007299Y005480D02*
X007510Y005269D01*
X007808Y005269D01*
X008019Y005480D01*
X008019Y005978D01*
X007808Y006189D01*
X007510Y006189D01*
X007299Y005978D01*
X007299Y005480D01*
X007299Y005568D02*
X005279Y005568D01*
X005279Y005727D02*
X007299Y005727D01*
X007299Y005885D02*
X005265Y005885D01*
X005199Y006044D02*
X006379Y006044D01*
X006413Y006010D02*
X006572Y005944D01*
X006746Y005944D01*
X006905Y006010D01*
X007028Y006132D01*
X007094Y006292D01*
X007094Y006465D01*
X007028Y006625D01*
X006905Y006748D01*
X006746Y006814D01*
X006572Y006814D01*
X006413Y006748D01*
X006290Y006625D01*
X006224Y006465D01*
X006224Y006292D01*
X006290Y006132D01*
X006413Y006010D01*
X006261Y006202D02*
X005134Y006202D01*
X005011Y006361D02*
X006224Y006361D01*
X006246Y006519D02*
X004852Y006519D01*
X004553Y006678D02*
X006343Y006678D01*
X006449Y006995D02*
X001691Y006995D01*
X001691Y007153D02*
X006282Y007153D01*
X006290Y007132D02*
X006413Y007010D01*
X006572Y006944D01*
X006746Y006944D01*
X006905Y007010D01*
X007028Y007132D01*
X007094Y007292D01*
X007094Y007465D01*
X007028Y007625D01*
X006905Y007748D01*
X006746Y007814D01*
X006572Y007814D01*
X006413Y007748D01*
X006290Y007625D01*
X006224Y007465D01*
X006224Y007292D01*
X006290Y007132D01*
X006224Y007312D02*
X001691Y007312D01*
X001691Y007471D02*
X006226Y007471D01*
X006294Y007629D02*
X001691Y007629D01*
X001691Y007788D02*
X006509Y007788D01*
X006567Y007946D02*
X001691Y007946D01*
X001691Y008105D02*
X006318Y008105D01*
X006236Y008263D02*
X001691Y008263D01*
X001691Y008422D02*
X006224Y008422D01*
X006272Y008580D02*
X004554Y008580D01*
X004382Y008509D02*
X004793Y008679D01*
X005109Y008994D01*
X005279Y009406D01*
X005279Y009852D01*
X005109Y010263D01*
X004793Y010578D01*
X004382Y010749D01*
X003936Y010749D01*
X003525Y010578D01*
X003210Y010263D01*
X003039Y009852D01*
X003039Y009406D01*
X003210Y008994D01*
X003525Y008679D01*
X003936Y008509D01*
X004382Y008509D01*
X004853Y008739D02*
X006404Y008739D01*
X006659Y008379D02*
X015859Y008379D01*
X018159Y006079D01*
X018468Y005885D02*
X018576Y005885D01*
X018519Y006044D02*
X018735Y006044D01*
X018893Y006202D02*
X018498Y006202D01*
X018386Y006361D02*
X022532Y006361D01*
X022759Y006079D02*
X019109Y006079D01*
X018659Y005629D01*
X017659Y005629D01*
X015409Y007879D01*
X007659Y007879D01*
X007282Y008105D02*
X007000Y008105D01*
X007224Y007946D02*
X006751Y007946D01*
X006809Y007788D02*
X007226Y007788D01*
X007294Y007629D02*
X007024Y007629D01*
X007092Y007471D02*
X007508Y007471D01*
X007572Y007314D02*
X007413Y007248D01*
X007290Y007125D01*
X007224Y006965D01*
X007224Y006792D01*
X007290Y006632D01*
X007413Y006510D01*
X007572Y006444D01*
X007746Y006444D01*
X007905Y006510D01*
X007984Y006589D01*
X008908Y006589D01*
X009049Y006729D01*
X009238Y006919D01*
X009331Y006919D01*
X009463Y006974D01*
X009564Y007075D01*
X009619Y007207D01*
X009619Y007350D01*
X009564Y007483D01*
X009463Y007584D01*
X009331Y007639D01*
X009187Y007639D01*
X009055Y007584D01*
X008954Y007483D01*
X008899Y007350D01*
X008899Y007258D01*
X008710Y007069D01*
X008051Y007069D01*
X008028Y007125D01*
X007905Y007248D01*
X007746Y007314D01*
X007572Y007314D01*
X007568Y007312D02*
X007094Y007312D01*
X007036Y007153D02*
X007319Y007153D01*
X007236Y006995D02*
X006869Y006995D01*
X007224Y006836D02*
X001691Y006836D01*
X001691Y006678D02*
X003765Y006678D01*
X003466Y006519D02*
X001691Y006519D01*
X001691Y006361D02*
X003307Y006361D01*
X003184Y006202D02*
X001691Y006202D01*
X001691Y006044D02*
X003119Y006044D01*
X003053Y005885D02*
X001691Y005885D01*
X001691Y005727D02*
X003039Y005727D01*
X003039Y005568D02*
X001691Y005568D01*
X001691Y005409D02*
X003039Y005409D01*
X003103Y005251D02*
X001691Y005251D01*
X001691Y005092D02*
X003169Y005092D01*
X003270Y004934D02*
X001691Y004934D01*
X001691Y004775D02*
X003429Y004775D01*
X003676Y004617D02*
X001691Y004617D01*
X001691Y004458D02*
X009649Y004458D01*
X009491Y004300D02*
X001691Y004300D01*
X001691Y004141D02*
X009332Y004141D01*
X009174Y003983D02*
X001691Y003983D01*
X001691Y003824D02*
X009015Y003824D01*
X008856Y003666D02*
X001691Y003666D01*
X001691Y003507D02*
X002205Y003507D01*
X001986Y003348D02*
X001691Y003348D01*
X001691Y003190D02*
X001827Y003190D01*
X001760Y003031D02*
X001691Y003031D01*
X001691Y002873D02*
X001694Y002873D01*
X003113Y003507D02*
X008698Y003507D01*
X008539Y003348D02*
X003332Y003348D01*
X003491Y003190D02*
X005028Y003190D01*
X005035Y003193D02*
X004828Y003107D01*
X004669Y002948D01*
X004583Y002741D01*
X004583Y002677D01*
X005099Y002677D01*
X005099Y003193D01*
X005035Y003193D01*
X005099Y003190D02*
X005195Y003190D01*
X005195Y003193D02*
X005195Y002677D01*
X005711Y002677D01*
X005711Y002741D01*
X005625Y002948D01*
X005466Y003107D01*
X005259Y003193D01*
X005195Y003193D01*
X005266Y003190D02*
X008381Y003190D01*
X008222Y003031D02*
X007482Y003031D01*
X007603Y002873D02*
X008064Y002873D01*
X008425Y002556D02*
X008540Y002556D01*
X008591Y002397D02*
X008267Y002397D01*
X006737Y002239D02*
X005554Y002239D01*
X005661Y002397D02*
X006623Y002397D01*
X006572Y002556D02*
X005711Y002556D01*
X005711Y002714D02*
X006572Y002714D01*
X006628Y002873D02*
X005656Y002873D01*
X005542Y003031D02*
X006749Y003031D01*
X005195Y003031D02*
X005099Y003031D01*
X005099Y002873D02*
X005195Y002873D01*
X005195Y002714D02*
X005099Y002714D01*
X005099Y002556D02*
X005195Y002556D01*
X005195Y002397D02*
X005099Y002397D01*
X005099Y002239D02*
X005195Y002239D01*
X004740Y002239D02*
X003564Y002239D01*
X003629Y002397D02*
X004633Y002397D01*
X004583Y002556D02*
X003644Y002556D01*
X003644Y002714D02*
X004583Y002714D01*
X004638Y002873D02*
X003624Y002873D01*
X003558Y003031D02*
X004752Y003031D01*
X007949Y005409D02*
X009199Y005409D01*
X009199Y005568D02*
X008019Y005568D01*
X008019Y005727D02*
X009199Y005727D01*
X009199Y005885D02*
X008019Y005885D01*
X007953Y006044D02*
X009223Y006044D01*
X009382Y006202D02*
X007057Y006202D01*
X007094Y006361D02*
X016588Y006361D01*
X016746Y006202D02*
X015964Y006202D01*
X015858Y006309D02*
X015679Y006309D01*
X015679Y005849D01*
X016139Y005849D01*
X016139Y006028D01*
X015858Y006309D01*
X015679Y006202D02*
X015639Y006202D01*
X015639Y006309D02*
X015460Y006309D01*
X015179Y006028D01*
X015179Y005849D01*
X015639Y005849D01*
X015639Y006309D01*
X015354Y006202D02*
X014936Y006202D01*
X015095Y006044D02*
X015195Y006044D01*
X015179Y005885D02*
X015119Y005885D01*
X015179Y005809D02*
X015179Y005030D01*
X015460Y004749D01*
X015639Y004749D01*
X015639Y005809D01*
X015179Y005809D01*
X015179Y005727D02*
X015119Y005727D01*
X015119Y005568D02*
X015179Y005568D01*
X015179Y005409D02*
X015119Y005409D01*
X015119Y005251D02*
X015179Y005251D01*
X015179Y005092D02*
X015119Y005092D01*
X015015Y004934D02*
X015275Y004934D01*
X015434Y004775D02*
X014899Y004775D01*
X014899Y004617D02*
X019108Y004617D01*
X019266Y004775D02*
X015884Y004775D01*
X015858Y004749D02*
X016139Y005030D01*
X016139Y005809D01*
X015679Y005809D01*
X015679Y004749D01*
X015858Y004749D01*
X015679Y004775D02*
X015639Y004775D01*
X015639Y004934D02*
X015679Y004934D01*
X015679Y005092D02*
X015639Y005092D01*
X015639Y005251D02*
X015679Y005251D01*
X015679Y005409D02*
X015639Y005409D01*
X015639Y005568D02*
X015679Y005568D01*
X015679Y005727D02*
X015639Y005727D01*
X015639Y005885D02*
X015679Y005885D01*
X015679Y006044D02*
X015639Y006044D01*
X016123Y006044D02*
X016905Y006044D01*
X017063Y005885D02*
X016139Y005885D01*
X016139Y005727D02*
X017222Y005727D01*
X017380Y005568D02*
X016139Y005568D01*
X016139Y005409D02*
X017539Y005409D01*
X018779Y005409D02*
X019900Y005409D01*
X019742Y005251D02*
X016139Y005251D01*
X016139Y005092D02*
X019583Y005092D01*
X019425Y004934D02*
X016043Y004934D01*
X016309Y004079D02*
X016309Y003379D01*
X015559Y002629D01*
X015580Y002629D01*
X015214Y003031D02*
X014354Y003031D01*
X014195Y002873D02*
X015093Y002873D01*
X015036Y002714D02*
X014156Y002714D01*
X014156Y002556D02*
X015036Y002556D01*
X015088Y002397D02*
X014104Y002397D01*
X013991Y002239D02*
X015201Y002239D01*
X015781Y003190D02*
X014512Y003190D01*
X014671Y003348D02*
X015939Y003348D01*
X014659Y003676D02*
X013612Y002629D01*
X013834Y003190D02*
X012301Y003190D01*
X012529Y003348D02*
X013992Y003348D01*
X014151Y003507D02*
X012606Y003507D01*
X012705Y003666D02*
X014309Y003666D01*
X014419Y003824D02*
X012863Y003824D01*
X013022Y003983D02*
X014419Y003983D01*
X014419Y004141D02*
X013180Y004141D01*
X013339Y004300D02*
X014419Y004300D01*
X014419Y004458D02*
X013498Y004458D01*
X013656Y004617D02*
X014419Y004617D01*
X014419Y004775D02*
X013856Y004775D01*
X014015Y004934D02*
X014303Y004934D01*
X014199Y005092D02*
X014119Y005092D01*
X014119Y005251D02*
X014199Y005251D01*
X014199Y005409D02*
X014119Y005409D01*
X014119Y005568D02*
X014199Y005568D01*
X014199Y005727D02*
X014119Y005727D01*
X015954Y006995D02*
X009484Y006995D01*
X009597Y007153D02*
X015795Y007153D01*
X015636Y007312D02*
X009619Y007312D01*
X009569Y007471D02*
X015478Y007471D01*
X015319Y007629D02*
X009354Y007629D01*
X009164Y007629D02*
X008024Y007629D01*
X007810Y007471D02*
X008949Y007471D01*
X008899Y007312D02*
X007750Y007312D01*
X008000Y007153D02*
X008794Y007153D01*
X008809Y006829D02*
X007659Y006829D01*
X007659Y006879D01*
X007271Y006678D02*
X006975Y006678D01*
X007072Y006519D02*
X007403Y006519D01*
X007915Y006519D02*
X016429Y006519D01*
X016271Y006678D02*
X008997Y006678D01*
X009156Y006836D02*
X016112Y006836D01*
X017107Y007471D02*
X023223Y007471D01*
X023223Y007629D02*
X016948Y007629D01*
X016790Y007788D02*
X023223Y007788D01*
X023223Y007946D02*
X016631Y007946D01*
X016472Y008105D02*
X023223Y008105D01*
X023223Y008263D02*
X016314Y008263D01*
X016155Y008422D02*
X023223Y008422D01*
X023223Y008580D02*
X015997Y008580D01*
X017009Y008879D02*
X008959Y008879D01*
X008627Y008739D02*
X008094Y008739D01*
X008114Y008886D02*
X008114Y008969D01*
X008045Y009137D01*
X007917Y009265D01*
X007750Y009334D01*
X007667Y009334D01*
X007667Y008886D01*
X008114Y008886D01*
X008114Y008897D02*
X008599Y008897D01*
X008643Y009056D02*
X008078Y009056D01*
X007967Y009215D02*
X008334Y009215D01*
X008175Y009373D02*
X005265Y009373D01*
X005279Y009532D02*
X008017Y009532D01*
X007736Y009690D02*
X005279Y009690D01*
X005279Y009849D02*
X007544Y009849D01*
X007499Y010007D02*
X005215Y010007D01*
X005149Y010166D02*
X007526Y010166D01*
X007645Y010324D02*
X005047Y010324D01*
X004889Y010483D02*
X009179Y010483D01*
X009179Y010641D02*
X004641Y010641D01*
X003677Y010641D02*
X001691Y010641D01*
X001691Y010483D02*
X003429Y010483D01*
X003271Y010324D02*
X001691Y010324D01*
X001691Y010166D02*
X003169Y010166D01*
X003104Y010007D02*
X001691Y010007D01*
X001691Y009849D02*
X003039Y009849D01*
X003039Y009690D02*
X001691Y009690D01*
X001691Y009532D02*
X003039Y009532D01*
X003053Y009373D02*
X001691Y009373D01*
X001691Y009215D02*
X003118Y009215D01*
X003184Y009056D02*
X001691Y009056D01*
X001691Y008897D02*
X003306Y008897D01*
X003465Y008739D02*
X001691Y008739D01*
X001691Y008580D02*
X003764Y008580D01*
X005012Y008897D02*
X007204Y008897D01*
X007204Y008886D02*
X007651Y008886D01*
X007651Y009334D01*
X007569Y009334D01*
X007401Y009265D01*
X007273Y009137D01*
X007204Y008969D01*
X007204Y008886D01*
X007224Y008739D02*
X006914Y008739D01*
X007240Y009056D02*
X005134Y009056D01*
X005200Y009215D02*
X007351Y009215D01*
X007651Y009215D02*
X007667Y009215D01*
X007651Y009056D02*
X007667Y009056D01*
X007651Y008897D02*
X007667Y008897D01*
X007651Y008739D02*
X007667Y008739D01*
X008509Y009379D02*
X007859Y010029D01*
X008192Y010166D02*
X009179Y010166D01*
X009179Y010209D02*
X009179Y010030D01*
X009460Y009749D01*
X009639Y009749D01*
X009639Y010209D01*
X009179Y010209D01*
X009179Y010249D02*
X009179Y011028D01*
X009460Y011309D01*
X009639Y011309D01*
X009639Y010249D01*
X009179Y010249D01*
X009179Y010324D02*
X008073Y010324D01*
X008220Y010007D02*
X009202Y010007D01*
X009360Y009849D02*
X008379Y009849D01*
X008537Y009690D02*
X016681Y009690D01*
X016840Y009849D02*
X015929Y009849D01*
X016088Y010007D02*
X016998Y010007D01*
X017157Y010166D02*
X016119Y010166D01*
X016119Y010324D02*
X017315Y010324D01*
X017474Y010483D02*
X016119Y010483D01*
X016119Y010641D02*
X017632Y010641D01*
X017791Y010800D02*
X016119Y010800D01*
X016119Y010959D02*
X023223Y010959D01*
X023223Y011117D02*
X016021Y011117D01*
X016019Y011276D02*
X023223Y011276D01*
X023223Y011434D02*
X021073Y011434D01*
X021063Y011424D02*
X021164Y011525D01*
X021219Y011657D01*
X021219Y011800D01*
X021164Y011933D01*
X021063Y012034D01*
X020931Y012089D01*
X020787Y012089D01*
X020655Y012034D01*
X020590Y011969D01*
X019228Y011969D01*
X019163Y012034D01*
X019031Y012089D01*
X018887Y012089D01*
X018755Y012034D01*
X018654Y011933D01*
X018599Y011800D01*
X018599Y011657D01*
X018654Y011525D01*
X018755Y011424D01*
X018887Y011369D01*
X019031Y011369D01*
X019163Y011424D01*
X019228Y011489D01*
X020590Y011489D01*
X020655Y011424D01*
X020787Y011369D01*
X020931Y011369D01*
X021063Y011424D01*
X021192Y011593D02*
X023223Y011593D01*
X023223Y011751D02*
X021219Y011751D01*
X021174Y011910D02*
X023223Y011910D01*
X023223Y012068D02*
X020980Y012068D01*
X020738Y012068D02*
X019080Y012068D01*
X018838Y012068D02*
X016019Y012068D01*
X016019Y011910D02*
X018644Y011910D01*
X018599Y011751D02*
X016019Y011751D01*
X016019Y011593D02*
X018626Y011593D01*
X018745Y011434D02*
X016019Y011434D01*
X015299Y011434D02*
X014899Y011434D01*
X014899Y011276D02*
X015299Y011276D01*
X015297Y011117D02*
X015021Y011117D01*
X015119Y010959D02*
X015199Y010959D01*
X015199Y010800D02*
X015119Y010800D01*
X015119Y010641D02*
X015199Y010641D01*
X015199Y010483D02*
X015119Y010483D01*
X015119Y010324D02*
X015199Y010324D01*
X015199Y010166D02*
X015119Y010166D01*
X015088Y010007D02*
X015230Y010007D01*
X015389Y009849D02*
X014929Y009849D01*
X014659Y010229D02*
X014659Y012626D01*
X013806Y013429D01*
X013311Y013654D02*
X012333Y013654D01*
X012382Y013495D02*
X013262Y013495D01*
X013262Y013337D02*
X012382Y013337D01*
X012323Y013178D02*
X013321Y013178D01*
X013446Y013020D02*
X012198Y013020D01*
X012019Y012861D02*
X014059Y012861D01*
X014228Y012702D02*
X012019Y012702D01*
X012019Y012544D02*
X014396Y012544D01*
X014419Y012385D02*
X012019Y012385D01*
X012019Y012227D02*
X014419Y012227D01*
X014419Y012068D02*
X012019Y012068D01*
X012019Y011910D02*
X014419Y011910D01*
X014419Y011751D02*
X012019Y011751D01*
X012019Y011593D02*
X014419Y011593D01*
X014419Y011434D02*
X012019Y011434D01*
X012019Y011276D02*
X013427Y011276D01*
X013460Y011309D02*
X013179Y011028D01*
X013179Y010249D01*
X013639Y010249D01*
X013639Y011309D01*
X013460Y011309D01*
X013639Y011276D02*
X013679Y011276D01*
X013679Y011309D02*
X013679Y010249D01*
X014139Y010249D01*
X014139Y011028D01*
X013858Y011309D01*
X013679Y011309D01*
X013679Y011117D02*
X013639Y011117D01*
X013639Y010959D02*
X013679Y010959D01*
X013679Y010800D02*
X013639Y010800D01*
X013639Y010641D02*
X013679Y010641D01*
X013679Y010483D02*
X013639Y010483D01*
X013639Y010324D02*
X013679Y010324D01*
X013679Y010209D02*
X013679Y009749D01*
X013858Y009749D01*
X014139Y010030D01*
X014139Y010209D01*
X013679Y010209D01*
X013639Y010209D02*
X013179Y010209D01*
X013179Y010030D01*
X013460Y009749D01*
X013639Y009749D01*
X013639Y010209D01*
X013639Y010166D02*
X013679Y010166D01*
X013679Y010007D02*
X013639Y010007D01*
X013639Y009849D02*
X013679Y009849D01*
X013958Y009849D02*
X014389Y009849D01*
X014230Y010007D02*
X014116Y010007D01*
X014139Y010166D02*
X014199Y010166D01*
X014199Y010324D02*
X014139Y010324D01*
X014139Y010483D02*
X014199Y010483D01*
X014199Y010641D02*
X014139Y010641D01*
X014139Y010800D02*
X014199Y010800D01*
X014199Y010959D02*
X014139Y010959D01*
X014050Y011117D02*
X014297Y011117D01*
X014419Y011276D02*
X013891Y011276D01*
X013269Y011117D02*
X012021Y011117D01*
X012119Y010959D02*
X013179Y010959D01*
X013179Y010800D02*
X012119Y010800D01*
X012119Y010641D02*
X013179Y010641D01*
X013179Y010483D02*
X012119Y010483D01*
X012119Y010324D02*
X013179Y010324D01*
X013179Y010166D02*
X012119Y010166D01*
X012088Y010007D02*
X013202Y010007D01*
X013360Y009849D02*
X011929Y009849D01*
X011389Y009849D02*
X010929Y009849D01*
X010850Y009769D02*
X010469Y009769D01*
X010199Y010038D01*
X010199Y010949D01*
X010139Y011009D01*
X010139Y010249D01*
X009679Y010249D01*
X009679Y011309D01*
X009840Y011309D01*
X007960Y013189D01*
X007796Y013189D01*
X007767Y013121D01*
X007614Y012968D01*
X007414Y012885D01*
X007198Y012885D01*
X006998Y012968D01*
X006845Y013121D01*
X006762Y013321D01*
X006762Y013537D01*
X006845Y013737D01*
X006998Y013890D01*
X007198Y013973D01*
X007414Y013973D01*
X007614Y013890D01*
X007767Y013737D01*
X007796Y013669D01*
X007960Y013669D01*
X008158Y013669D01*
X010538Y011289D01*
X010850Y011289D01*
X011119Y011019D01*
X011119Y010038D01*
X010850Y009769D01*
X011088Y010007D02*
X011230Y010007D01*
X011199Y010166D02*
X011119Y010166D01*
X011119Y010324D02*
X011199Y010324D01*
X011199Y010483D02*
X011119Y010483D01*
X011119Y010641D02*
X011199Y010641D01*
X011199Y010800D02*
X011119Y010800D01*
X011119Y010959D02*
X011199Y010959D01*
X011297Y011117D02*
X011021Y011117D01*
X010863Y011276D02*
X011299Y011276D01*
X011299Y011434D02*
X010393Y011434D01*
X010235Y011593D02*
X011299Y011593D01*
X011299Y011751D02*
X010076Y011751D01*
X009917Y011910D02*
X011299Y011910D01*
X011299Y012068D02*
X009759Y012068D01*
X009600Y012227D02*
X011299Y012227D01*
X011299Y012385D02*
X009442Y012385D01*
X009283Y012544D02*
X011299Y012544D01*
X011299Y012702D02*
X009125Y012702D01*
X009163Y012865D02*
X008955Y012951D01*
X008797Y013109D01*
X008711Y013317D01*
X008711Y013381D01*
X009227Y013381D01*
X009227Y012865D01*
X009163Y012865D01*
X009323Y012865D02*
X009387Y012865D01*
X009594Y012951D01*
X009753Y013109D01*
X009839Y013317D01*
X009839Y013381D01*
X009323Y013381D01*
X009323Y012865D01*
X009323Y013020D02*
X009227Y013020D01*
X009227Y013178D02*
X009323Y013178D01*
X009323Y013337D02*
X009227Y013337D01*
X009227Y013477D02*
X009227Y013993D01*
X009163Y013993D01*
X008955Y013907D01*
X008797Y013748D01*
X008711Y013541D01*
X008711Y013477D01*
X009227Y013477D01*
X009227Y013495D02*
X009323Y013495D01*
X009323Y013477D02*
X009839Y013477D01*
X009839Y013541D01*
X009753Y013748D01*
X009594Y013907D01*
X009387Y013993D01*
X009323Y013993D01*
X009323Y013477D01*
X009323Y013654D02*
X009227Y013654D01*
X009227Y013812D02*
X009323Y013812D01*
X009323Y013971D02*
X009227Y013971D01*
X009110Y013971D02*
X007419Y013971D01*
X007194Y013971D02*
X006410Y013971D01*
X006252Y013812D02*
X006921Y013812D01*
X006811Y013654D02*
X006093Y013654D01*
X005934Y013495D02*
X006762Y013495D01*
X006762Y013337D02*
X005882Y013337D01*
X005823Y013178D02*
X006821Y013178D01*
X006946Y013020D02*
X005698Y013020D01*
X004978Y013020D02*
X003443Y013020D01*
X003538Y013178D02*
X004853Y013178D01*
X004794Y013337D02*
X003604Y013337D01*
X003644Y013495D02*
X004794Y013495D01*
X004842Y013654D02*
X003644Y013654D01*
X003644Y013812D02*
X004952Y013812D01*
X005225Y013971D02*
X003584Y013971D01*
X003518Y014129D02*
X005551Y014129D01*
X005709Y014288D02*
X003393Y014288D01*
X003234Y014446D02*
X005868Y014446D01*
X006026Y014605D02*
X002876Y014605D01*
X002442Y014605D02*
X001691Y014605D01*
X001691Y014446D02*
X002084Y014446D01*
X001925Y014288D02*
X001691Y014288D01*
X001691Y014129D02*
X001800Y014129D01*
X001735Y013971D02*
X001691Y013971D01*
X001691Y013337D02*
X001714Y013337D01*
X001691Y013178D02*
X001780Y013178D01*
X001691Y013020D02*
X001875Y013020D01*
X002034Y012861D02*
X001691Y012861D01*
X001691Y012702D02*
X002321Y012702D01*
X001691Y012544D02*
X008605Y012544D01*
X008763Y012385D02*
X001691Y012385D01*
X001691Y012227D02*
X008922Y012227D01*
X009080Y012068D02*
X001691Y012068D01*
X001691Y011910D02*
X009239Y011910D01*
X009397Y011751D02*
X001691Y011751D01*
X001691Y011593D02*
X009556Y011593D01*
X009714Y011434D02*
X001691Y011434D01*
X001691Y011276D02*
X009427Y011276D01*
X009639Y011276D02*
X009679Y011276D01*
X009679Y011117D02*
X009639Y011117D01*
X009639Y010959D02*
X009679Y010959D01*
X009679Y010800D02*
X009639Y010800D01*
X009639Y010641D02*
X009679Y010641D01*
X009679Y010483D02*
X009639Y010483D01*
X009639Y010324D02*
X009679Y010324D01*
X009679Y010209D02*
X009679Y009749D01*
X009858Y009749D01*
X010139Y010030D01*
X010139Y010209D01*
X009679Y010209D01*
X009679Y010166D02*
X009639Y010166D01*
X009639Y010007D02*
X009679Y010007D01*
X009679Y009849D02*
X009639Y009849D01*
X009958Y009849D02*
X010389Y009849D01*
X010230Y010007D02*
X010116Y010007D01*
X010139Y010166D02*
X010199Y010166D01*
X010199Y010324D02*
X010139Y010324D01*
X010139Y010483D02*
X010199Y010483D01*
X010199Y010641D02*
X010139Y010641D01*
X010139Y010800D02*
X010199Y010800D01*
X010190Y010959D02*
X010139Y010959D01*
X010659Y010829D02*
X010659Y010229D01*
X010659Y010129D01*
X010659Y010829D02*
X008059Y013429D01*
X007306Y013429D01*
X007666Y013020D02*
X008129Y013020D01*
X007970Y013178D02*
X007791Y013178D01*
X008287Y012861D02*
X003284Y012861D01*
X002997Y012702D02*
X008446Y012702D01*
X008808Y013020D02*
X008887Y013020D01*
X008966Y012861D02*
X011299Y012861D01*
X011299Y013020D02*
X009663Y013020D01*
X009781Y013178D02*
X011299Y013178D01*
X011294Y013337D02*
X009839Y013337D01*
X009839Y013495D02*
X011262Y013495D01*
X011104Y013654D02*
X009792Y013654D01*
X009689Y013812D02*
X010945Y013812D01*
X010787Y013971D02*
X009440Y013971D01*
X008861Y013812D02*
X007692Y013812D01*
X008173Y013654D02*
X008758Y013654D01*
X008711Y013495D02*
X008332Y013495D01*
X008491Y013337D02*
X008711Y013337D01*
X008768Y013178D02*
X008649Y013178D01*
X009269Y011117D02*
X001691Y011117D01*
X001691Y010959D02*
X009179Y010959D01*
X009179Y010800D02*
X001691Y010800D01*
X008509Y009379D02*
X016709Y009379D01*
X017959Y010629D01*
X018659Y010629D01*
X019459Y009829D01*
X022759Y009829D01*
X023091Y009690D02*
X023223Y009690D01*
X023223Y009532D02*
X022971Y009532D01*
X023223Y009373D02*
X017843Y009373D01*
X018001Y009532D02*
X022547Y009532D01*
X023119Y009849D02*
X023223Y009849D01*
X023223Y010007D02*
X023075Y010007D01*
X023223Y010166D02*
X022886Y010166D01*
X022632Y010166D02*
X019461Y010166D01*
X019303Y010324D02*
X023223Y010324D01*
X023223Y010483D02*
X019144Y010483D01*
X018986Y010641D02*
X023223Y010641D01*
X023223Y010800D02*
X018827Y010800D01*
X018624Y010324D02*
X018216Y010324D01*
X018003Y010324D02*
X017994Y010324D01*
X018421Y010166D02*
X018783Y010166D01*
X018941Y010007D02*
X018469Y010007D01*
X018445Y009849D02*
X019100Y009849D01*
X019258Y009690D02*
X018329Y009690D01*
X018109Y009979D02*
X017009Y008879D01*
X017209Y008739D02*
X023223Y008739D01*
X023223Y008897D02*
X017367Y008897D01*
X017526Y009056D02*
X023223Y009056D01*
X023223Y009215D02*
X017684Y009215D01*
X017265Y007312D02*
X023223Y007312D01*
X023223Y007153D02*
X017424Y007153D01*
X017582Y006995D02*
X023223Y006995D01*
X023223Y006836D02*
X017741Y006836D01*
X017899Y006678D02*
X023223Y006678D01*
X023223Y006519D02*
X018058Y006519D01*
X019096Y005727D02*
X020217Y005727D01*
X020059Y005568D02*
X018938Y005568D01*
X019945Y004775D02*
X023223Y004775D01*
X023223Y004617D02*
X019786Y004617D01*
X019628Y004458D02*
X023223Y004458D01*
X023223Y004300D02*
X019469Y004300D01*
X019319Y004141D02*
X023223Y004141D01*
X023223Y003983D02*
X019288Y003983D01*
X019163Y003824D02*
X019031Y003769D01*
X018887Y003769D01*
X018755Y003824D01*
X018959Y004129D02*
X020359Y005529D01*
X022459Y005529D01*
X022799Y005409D02*
X023223Y005409D01*
X023223Y005251D02*
X022690Y005251D01*
X022819Y005568D02*
X023223Y005568D01*
X023223Y005727D02*
X022849Y005727D01*
X023068Y005885D02*
X023223Y005885D01*
X023223Y006044D02*
X023119Y006044D01*
X023098Y006202D02*
X023223Y006202D01*
X023223Y006361D02*
X022986Y006361D01*
X022228Y005251D02*
X020421Y005251D01*
X020262Y005092D02*
X023223Y005092D01*
X023223Y004934D02*
X020103Y004934D01*
X020613Y003507D02*
X023223Y003507D01*
X023223Y003348D02*
X020832Y003348D01*
X020991Y003190D02*
X023223Y003190D01*
X023223Y003031D02*
X021058Y003031D01*
X021124Y002873D02*
X023223Y002873D01*
X023223Y002714D02*
X021144Y002714D01*
X021144Y002556D02*
X023223Y002556D01*
X023223Y002397D02*
X021129Y002397D01*
X021064Y002239D02*
X023223Y002239D01*
X023223Y002080D02*
X020998Y002080D01*
X020845Y001922D02*
X023223Y001922D01*
X023223Y001763D02*
X020643Y001763D01*
X010382Y006202D02*
X009936Y006202D01*
X009259Y007279D02*
X008809Y006829D01*
X007365Y006044D02*
X006939Y006044D01*
X014899Y011593D02*
X015299Y011593D01*
X015299Y011751D02*
X014899Y011751D01*
X014899Y011910D02*
X015299Y011910D01*
X015299Y012068D02*
X014899Y012068D01*
X014899Y012227D02*
X015152Y012227D01*
X014993Y012385D02*
X014899Y012385D01*
X015455Y012951D02*
X015663Y012865D01*
X015727Y012865D01*
X015727Y013381D01*
X015211Y013381D01*
X015211Y013317D01*
X015297Y013109D01*
X015455Y012951D01*
X015387Y013020D02*
X015377Y013020D01*
X015268Y013178D02*
X015219Y013178D01*
X015211Y013337D02*
X015069Y013337D01*
X015069Y013495D02*
X015211Y013495D01*
X015211Y013477D02*
X015211Y013541D01*
X015297Y013748D01*
X015455Y013907D01*
X015663Y013993D01*
X015727Y013993D01*
X015727Y013477D01*
X015211Y013477D01*
X015258Y013654D02*
X015069Y013654D01*
X014985Y013812D02*
X015361Y013812D01*
X015610Y013971D02*
X014826Y013971D01*
X014668Y014129D02*
X019300Y014129D01*
X019324Y014187D02*
X019174Y013825D01*
X019174Y013433D01*
X019324Y013071D01*
X019601Y012794D01*
X019963Y012644D01*
X020355Y012644D01*
X020717Y012794D01*
X020994Y013071D01*
X021144Y013433D01*
X021144Y013825D01*
X020994Y014187D01*
X020717Y014464D01*
X020355Y014614D01*
X019963Y014614D01*
X019601Y014464D01*
X019324Y014187D01*
X019425Y014288D02*
X014509Y014288D01*
X014350Y014446D02*
X019584Y014446D01*
X019942Y014605D02*
X014192Y014605D01*
X013694Y013971D02*
X011950Y013971D01*
X012223Y013812D02*
X013421Y013812D01*
X015536Y012861D02*
X019534Y012861D01*
X019375Y013020D02*
X016163Y013020D01*
X016094Y012951D02*
X016253Y013109D01*
X016339Y013317D01*
X016339Y013381D01*
X015823Y013381D01*
X015823Y012865D01*
X015887Y012865D01*
X016094Y012951D01*
X015823Y013020D02*
X015727Y013020D01*
X015727Y013178D02*
X015823Y013178D01*
X015823Y013337D02*
X015727Y013337D01*
X015727Y013495D02*
X015823Y013495D01*
X015823Y013477D02*
X016339Y013477D01*
X016339Y013541D01*
X016253Y013748D01*
X016094Y013907D01*
X015887Y013993D01*
X015823Y013993D01*
X015823Y013477D01*
X016281Y013178D02*
X019280Y013178D01*
X019214Y013337D02*
X016339Y013337D01*
X016339Y013495D02*
X019174Y013495D01*
X019174Y013654D02*
X016292Y013654D01*
X016189Y013812D02*
X019174Y013812D01*
X019235Y013971D02*
X015940Y013971D01*
X015823Y013971D02*
X015727Y013971D01*
X015727Y013812D02*
X015823Y013812D01*
X015823Y013654D02*
X015727Y013654D01*
X015694Y012702D02*
X019821Y012702D01*
X020497Y012702D02*
X023223Y012702D01*
X023223Y012544D02*
X015853Y012544D01*
X016012Y012385D02*
X023223Y012385D01*
X023223Y012227D02*
X016019Y012227D01*
X018959Y011729D02*
X020859Y011729D01*
X020645Y011434D02*
X019173Y011434D01*
X020784Y012861D02*
X023223Y012861D01*
X023223Y013020D02*
X020943Y013020D01*
X021038Y013178D02*
X023223Y013178D01*
X023223Y013337D02*
X021104Y013337D01*
X021144Y013495D02*
X023223Y013495D01*
X023223Y013654D02*
X021144Y013654D01*
X021144Y013812D02*
X023223Y013812D01*
X023223Y013971D02*
X021084Y013971D01*
X021018Y014129D02*
X023223Y014129D01*
X023223Y014288D02*
X020893Y014288D01*
X020734Y014446D02*
X023223Y014446D01*
X023223Y014605D02*
X020376Y014605D01*
D14*
X020859Y011729D03*
X018959Y011729D03*
X017909Y011229D03*
X018109Y009979D03*
X016559Y009929D03*
X018159Y006079D03*
X017909Y005129D03*
X018959Y004129D03*
X016309Y004079D03*
X022059Y003679D03*
X022459Y005529D03*
X022759Y006079D03*
X022659Y008829D03*
X022759Y009829D03*
X022959Y011679D03*
X009259Y007279D03*
X008959Y008879D03*
X007859Y010029D03*
D15*
X011659Y010229D02*
X011659Y013250D01*
X011838Y013429D01*
X010788Y014479D01*
X013809Y014479D01*
X014709Y013579D01*
X014709Y013179D01*
X015659Y012229D01*
X015659Y010229D01*
X013659Y005829D02*
X013659Y005129D01*
X012159Y003629D01*
X007659Y005629D02*
X007659Y005829D01*
X005359Y013429D02*
X005338Y013429D01*
X005359Y013429D02*
X006409Y014479D01*
X010788Y014479D01*
D16*
X012159Y003629D03*
D17*
X020159Y002629D03*
X020159Y013629D03*
X002659Y013629D03*
X002659Y002629D03*
M02*
