G75*
G70*
%OFA0B0*%
%FSLAX24Y24*%
%IPPOS*%
%LPD*%
%AMOC8*
5,1,8,0,0,1.08239X$1,22.5*
%
%ADD10R,0.0631X0.0474*%
%ADD11R,0.0513X0.0474*%
%ADD12R,0.0316X0.0946*%
%ADD13C,0.0630*%
%ADD14C,0.1360*%
%ADD15R,0.0474X0.0513*%
%ADD16C,0.0848*%
%ADD17R,0.0671X0.0671*%
%ADD18O,0.0680X0.1280*%
%ADD19C,0.0480*%
%ADD20C,0.0680*%
%ADD21C,0.1730*%
D10*
X017426Y009403D03*
X016792Y009029D03*
X017426Y008655D03*
X018292Y009029D03*
X017526Y007403D03*
X016792Y007029D03*
X017526Y006655D03*
X018392Y007029D03*
X015926Y007403D03*
X015926Y006655D03*
X013992Y007029D03*
X013126Y007403D03*
X012392Y007029D03*
X011526Y007403D03*
X011526Y006655D03*
X013126Y006655D03*
X013126Y008655D03*
X013992Y009029D03*
X013126Y009403D03*
X012392Y009029D03*
X011526Y009403D03*
X011526Y008655D03*
X015926Y008655D03*
X015926Y009403D03*
D11*
X017259Y010194D03*
X017259Y010863D03*
X017259Y011394D03*
X017259Y012063D03*
X017259Y012594D03*
X017259Y013263D03*
X017259Y013794D03*
X017259Y014463D03*
X021559Y011663D03*
X022359Y011663D03*
X022359Y010994D03*
X021559Y010994D03*
X019409Y011213D03*
X018609Y011213D03*
X018609Y010544D03*
X019409Y010544D03*
X017259Y006163D03*
X017259Y005494D03*
X017259Y004963D03*
X017259Y004294D03*
X017259Y003663D03*
X017259Y002994D03*
X017259Y002463D03*
X017259Y001794D03*
X018609Y004744D03*
X019409Y004744D03*
X019409Y005413D03*
X018609Y005413D03*
X021659Y005013D03*
X022459Y005013D03*
X022459Y004344D03*
X021659Y004344D03*
D12*
X021509Y006955D03*
X021009Y006955D03*
X020509Y006955D03*
X020009Y006955D03*
X019509Y006955D03*
X019009Y006955D03*
X022009Y006955D03*
X022009Y009002D03*
X021509Y009002D03*
X021009Y009002D03*
X020509Y009002D03*
X020009Y009002D03*
X019509Y009002D03*
X019009Y009002D03*
D13*
X007659Y008879D03*
X006659Y008379D03*
X007659Y007879D03*
X006659Y007379D03*
X007659Y006879D03*
X006659Y006379D03*
D14*
X004159Y005629D03*
X004159Y009629D03*
D15*
X002994Y011229D03*
X002324Y011229D03*
X010124Y009229D03*
X010794Y009229D03*
X010794Y008429D03*
X010124Y008429D03*
X010124Y007629D03*
X010794Y007629D03*
X010794Y006829D03*
X010124Y006829D03*
X014624Y006829D03*
X015294Y006829D03*
X015294Y007629D03*
X014624Y007629D03*
X014624Y008429D03*
X015294Y008429D03*
X015294Y009229D03*
X014624Y009229D03*
X018824Y009879D03*
X019494Y009879D03*
X021524Y009879D03*
X022194Y009879D03*
X022659Y008313D03*
X022659Y007644D03*
X022194Y006079D03*
X021524Y006079D03*
X019494Y006079D03*
X018824Y006079D03*
D16*
X015580Y002629D03*
X013612Y002629D03*
X011643Y002629D03*
X009084Y002629D03*
X007115Y002629D03*
X005147Y002629D03*
X005338Y013429D03*
X007306Y013429D03*
X009275Y013429D03*
X011838Y013429D03*
X013806Y013429D03*
X015775Y013429D03*
D17*
X003348Y012129D03*
X001970Y012129D03*
D18*
X009659Y010529D03*
X010659Y010529D03*
X011659Y010529D03*
X013659Y010529D03*
X014659Y010529D03*
X015659Y010529D03*
X015659Y005529D03*
X014659Y005529D03*
X013659Y005529D03*
X011659Y005529D03*
X010659Y005529D03*
X009659Y005529D03*
D19*
X009259Y007279D03*
X008959Y008879D03*
X007859Y010029D03*
X016559Y009929D03*
X018109Y009979D03*
X017909Y011229D03*
X018959Y011729D03*
X020859Y011729D03*
X022959Y011679D03*
X022759Y009829D03*
X022659Y008829D03*
X022759Y006079D03*
X022459Y005529D03*
X022059Y003679D03*
X018959Y004129D03*
X017909Y005129D03*
X018159Y006079D03*
X016309Y004079D03*
D20*
X012159Y003629D03*
D21*
X002659Y002629D03*
X002659Y013629D03*
X020159Y013629D03*
X020159Y002629D03*
M02*
