G75*
G70*
%OFA0B0*%
%FSLAX24Y24*%
%IPPOS*%
%LPD*%
%AMOC8*
5,1,8,0,0,1.08239X$1,22.5*
%
%ADD10R,0.0316X0.0946*%
%ADD11R,0.0946X0.0316*%
%ADD12R,0.0592X0.0671*%
%ADD13R,0.0671X0.0592*%
%ADD14R,0.0770X0.0770*%
%ADD15C,0.0640*%
%ADD16OC8,0.0640*%
%ADD17R,0.0600X0.0600*%
%ADD18C,0.0940*%
%ADD19OC8,0.0680*%
%ADD20R,0.1143X0.0710*%
%ADD21C,0.0440*%
%ADD22C,0.2620*%
D10*
X010624Y007862D03*
X010124Y007862D03*
X009624Y007862D03*
X009124Y007862D03*
X008624Y007862D03*
X008124Y007862D03*
X007624Y007862D03*
X007624Y005815D03*
X008124Y005815D03*
X008624Y005815D03*
X009124Y005815D03*
X009624Y005815D03*
X010124Y005815D03*
X010624Y005815D03*
D11*
X029101Y006538D03*
X029101Y007038D03*
X029101Y007538D03*
X029101Y008038D03*
X029101Y008538D03*
X029101Y009038D03*
X029101Y009538D03*
X031148Y009538D03*
X031148Y009038D03*
X031148Y008538D03*
X031148Y008038D03*
X031148Y007538D03*
X031148Y007038D03*
X031148Y006538D03*
D12*
X030359Y005838D03*
X029690Y005838D03*
X010859Y004838D03*
X010190Y004838D03*
X010159Y003938D03*
X009490Y003938D03*
X008159Y003938D03*
X007490Y003938D03*
X007490Y004838D03*
X008159Y004838D03*
X008159Y008838D03*
X007490Y008838D03*
X007490Y009738D03*
X008159Y009738D03*
X009390Y009738D03*
X010059Y009738D03*
X010090Y008838D03*
X010759Y008838D03*
X006159Y019338D03*
X005490Y019338D03*
D13*
X011424Y017673D03*
X011424Y017004D03*
X012824Y017004D03*
X012824Y017673D03*
X012824Y015573D03*
X012824Y014904D03*
X011424Y014904D03*
X011424Y015573D03*
X016724Y015573D03*
X016724Y014904D03*
X018424Y014904D03*
X018424Y015573D03*
X019824Y015573D03*
X021224Y015573D03*
X021224Y014904D03*
X019824Y014904D03*
X022624Y014904D03*
X022624Y015573D03*
X024024Y015573D03*
X024024Y014904D03*
X024024Y017104D03*
X024024Y017773D03*
X022624Y017773D03*
X022624Y017104D03*
X021224Y017104D03*
X019824Y017104D03*
X019824Y017773D03*
X021224Y017773D03*
X018424Y017773D03*
X018424Y017104D03*
X016724Y017104D03*
X016724Y017773D03*
X026824Y018654D03*
X026824Y019323D03*
X026824Y020504D03*
X026824Y021173D03*
X027224Y009573D03*
X028024Y009573D03*
X028024Y008904D03*
X027224Y008904D03*
X027274Y007023D03*
X028074Y007023D03*
X028074Y006354D03*
X027274Y006354D03*
X032224Y006504D03*
X033124Y006504D03*
X033124Y007173D03*
X032224Y007173D03*
X032324Y008854D03*
X032324Y009523D03*
X033124Y009523D03*
X033124Y008854D03*
X006824Y007223D03*
X006824Y006554D03*
D14*
X016941Y006055D03*
X019224Y005956D03*
X021508Y006055D03*
X019224Y004224D03*
X021646Y008338D03*
X021271Y010386D03*
X016803Y008348D03*
X008124Y012224D03*
X008124Y013956D03*
X005841Y014055D03*
X005703Y016348D03*
X010171Y018386D03*
X010546Y016338D03*
X010408Y014055D03*
X028041Y014055D03*
X030324Y013956D03*
X032608Y014055D03*
X030324Y012224D03*
X032746Y016338D03*
X032371Y018386D03*
X027903Y016348D03*
X043371Y010386D03*
X043746Y008338D03*
X043608Y006055D03*
X041324Y005956D03*
X039041Y006055D03*
X041324Y004224D03*
X038903Y008348D03*
D15*
X014824Y020838D03*
D16*
X015824Y020838D03*
X016824Y020838D03*
X017824Y020838D03*
X018824Y020838D03*
X019824Y020838D03*
X020824Y020838D03*
X020824Y019838D03*
X019824Y019838D03*
X018824Y019838D03*
X017824Y019838D03*
X016824Y019838D03*
X015824Y019838D03*
X014824Y019838D03*
D17*
X003218Y020126D03*
X002431Y020126D03*
X002431Y019338D03*
X003218Y019338D03*
X003218Y018551D03*
X002431Y018551D03*
D18*
X002824Y017449D03*
X002824Y021228D03*
D19*
X003824Y003838D03*
X004824Y003838D03*
X005824Y003838D03*
X005824Y004838D03*
X004824Y004838D03*
X003824Y004838D03*
X003824Y005838D03*
X004824Y005838D03*
X005824Y005838D03*
X005824Y006838D03*
X004824Y006838D03*
X003824Y006838D03*
D20*
X013124Y020387D03*
X013124Y021489D03*
D21*
X012824Y018638D03*
X011424Y018638D03*
X016724Y018688D03*
X018424Y018638D03*
X019824Y018638D03*
X021224Y018638D03*
X022624Y018638D03*
X024024Y018638D03*
X026824Y017838D03*
X027824Y017338D03*
X025324Y021138D03*
X008824Y010838D03*
X009324Y009038D03*
X006824Y008038D03*
X006524Y008838D03*
X006824Y005738D03*
X006674Y004838D03*
X013824Y006738D03*
X024824Y009338D03*
X025824Y009588D03*
X027274Y005538D03*
X029674Y005038D03*
X030374Y005038D03*
X033974Y006538D03*
X034024Y009538D03*
D22*
X032824Y004338D03*
X012824Y005338D03*
X014824Y015338D03*
X037824Y020338D03*
M02*
