G75*
G70*
%OFA0B0*%
%FSLAX24Y24*%
%IPPOS*%
%LPD*%
%AMOC8*
5,1,8,0,0,1.08239X$1,22.5*
%
%ADD10C,0.0060*%
%ADD11R,0.0690X0.0690*%
%ADD12C,0.0560*%
%ADD13OC8,0.0560*%
%ADD14R,0.0520X0.0520*%
%ADD15C,0.0860*%
%ADD16OC8,0.0600*%
%ADD17C,0.0360*%
%ADD18C,0.0100*%
%ADD19C,0.2540*%
D10*
X023174Y001009D02*
X022854Y000689D01*
X023281Y000689D01*
X023174Y001009D02*
X023174Y000368D01*
D11*
X019224Y004224D03*
X019224Y005956D03*
X016941Y006055D03*
X016803Y008348D03*
X021646Y008338D03*
X021271Y010386D03*
X028041Y014055D03*
X030324Y013956D03*
X032608Y014055D03*
X030324Y012224D03*
X032746Y016338D03*
X032371Y018386D03*
X027903Y016348D03*
X043371Y010386D03*
X043746Y008338D03*
X043608Y006055D03*
X041324Y005956D03*
X039041Y006055D03*
X041324Y004224D03*
X038903Y008348D03*
X021508Y006055D03*
X008124Y012224D03*
X008124Y013956D03*
X005841Y014055D03*
X005703Y016348D03*
X010171Y018386D03*
X010546Y016338D03*
X010408Y014055D03*
D12*
X014824Y020838D03*
D13*
X015824Y020838D03*
X016824Y020838D03*
X017824Y020838D03*
X018824Y020838D03*
X019824Y020838D03*
X020824Y020838D03*
X020824Y019838D03*
X019824Y019838D03*
X018824Y019838D03*
X017824Y019838D03*
X016824Y019838D03*
X015824Y019838D03*
X014824Y019838D03*
D14*
X003218Y020126D03*
X002431Y020126D03*
X002431Y019338D03*
X003218Y019338D03*
X003218Y018551D03*
X002431Y018551D03*
D15*
X002824Y017449D03*
X002824Y021228D03*
D16*
X003824Y003838D03*
X004824Y003838D03*
X005824Y003838D03*
X005824Y004838D03*
X004824Y004838D03*
X003824Y004838D03*
X003824Y005838D03*
X004824Y005838D03*
X005824Y005838D03*
X005824Y006838D03*
X004824Y006838D03*
X003824Y006838D03*
D17*
X006824Y005738D03*
X006674Y004838D03*
X006824Y008038D03*
X006524Y008838D03*
X009324Y009038D03*
X008824Y010838D03*
X013824Y006738D03*
X024824Y009338D03*
X025824Y009588D03*
X027274Y005538D03*
X029674Y005038D03*
X030374Y005038D03*
X033974Y006538D03*
X034024Y009538D03*
X027824Y017338D03*
X026824Y017838D03*
X024024Y018638D03*
X022624Y018638D03*
X021224Y018638D03*
X019824Y018638D03*
X018424Y018638D03*
X016724Y018688D03*
X012824Y018638D03*
X011424Y018638D03*
X025324Y021138D03*
D18*
X027824Y017338D02*
X010528Y017338D01*
X009324Y016134D01*
X009324Y009038D01*
X008524Y010838D02*
X006524Y008838D01*
X008574Y006738D02*
X006674Y004838D01*
X008574Y006738D02*
X013824Y006738D01*
X021624Y008338D02*
X021646Y008338D01*
X032824Y008338D01*
X034024Y009538D01*
X033974Y006538D02*
X022224Y006538D01*
X016124Y012638D01*
X015224Y012638D01*
X011524Y016338D01*
X010546Y016338D01*
X005024Y020338D02*
X003224Y018538D01*
X003218Y018545D01*
X003218Y018551D01*
X005024Y020338D02*
X016324Y020338D01*
X016824Y020838D01*
X024824Y014338D02*
X027824Y017338D01*
X024824Y014338D02*
X024824Y009338D01*
X025824Y009588D02*
X025824Y012838D01*
X027024Y014038D01*
X028024Y014038D01*
X028041Y014055D01*
X031924Y006088D02*
X039024Y006088D01*
X039041Y006055D01*
X031924Y006088D02*
X031424Y005538D01*
X027274Y005538D01*
X008824Y010838D02*
X008524Y010838D01*
D19*
X014824Y015338D03*
X012824Y005338D03*
X032824Y004338D03*
X037824Y020338D03*
M02*
