G75*
G70*
%OFA0B0*%
%FSLAX24Y24*%
%IPPOS*%
%LPD*%
%AMOC8*
5,1,8,0,0,1.08239X$1,22.5*
%
%ADD10C,0.0060*%
%AMAND11*
1,1,0.0860,0,0*
1,0,0.0000,0,0*
%
%ADD11AND11*%
%AMTHD12X*
1,1,0.0890,0,0*
1,0,0.0690,0,0*
21,0,0.0910,0.0230,0,0,45*
21,0,0.0910,0.0230,0,0,135*
%
%ADD12THD12X*%
%AMTHD13X*
1,1,0.0760,0,0*
1,0,0.0560,0,0*
21,0,0.0780,0.0200,0,0,45*
21,0,0.0780,0.0200,0,0,135*
%
%ADD13THD13X*%
%AMAND14*
1,1,0.0760,0,0*
1,0,0.0000,0,0*
%
%ADD14AND14*%
%AMAND15*
1,1,0.0720,0,0*
1,0,0.0000,0,0*
%
%ADD15AND15*%
%AMAND16*
1,1,0.0960,0,0*
1,0,0.0000,0,0*
%
%ADD16AND16*%
%AMAND17*
1,1,0.0800,0,0*
1,0,0.0000,0,0*
%
%ADD17AND17*%
%AMTHD18X*
1,1,0.0800,0,0*
1,0,0.0600,0,0*
21,0,0.0820,0.0200,0,0,45*
21,0,0.0820,0.0200,0,0,135*
%
%ADD18THD18X*%
%AMAND19*
1,1,0.0600,0,0*
1,0,0.0000,0,0*
%
%ADD19AND19*%
%AMAND20*
1,1,0.1650,0,0*
1,0,0.0000,0,0*
%
%ADD20AND20*%
%ADD21C,0.0160*%
D10*
X022174Y001009D02*
X021961Y001009D01*
X021854Y000902D01*
X022068Y000689D02*
X022174Y000689D01*
X022281Y000582D01*
X022281Y000475D01*
X022174Y000368D01*
X021961Y000368D01*
X021854Y000475D01*
X022174Y000689D02*
X022281Y000795D01*
X022281Y000902D01*
X022174Y001009D01*
D11*
X019224Y004224D03*
X016941Y006055D03*
X016803Y008348D03*
X021646Y008338D03*
X021508Y006055D03*
X030324Y012224D03*
X028041Y014055D03*
X027903Y016348D03*
X032746Y016338D03*
X032608Y014055D03*
X038903Y008348D03*
X039041Y006055D03*
X041324Y004224D03*
X043608Y006055D03*
X043746Y008338D03*
X010408Y014055D03*
X008124Y012224D03*
X005841Y014055D03*
X005703Y016348D03*
X010546Y016338D03*
D12*
X010171Y018386D03*
X008124Y013956D03*
X021271Y010386D03*
X019224Y005956D03*
X030324Y013956D03*
X032371Y018386D03*
X043371Y010386D03*
X041324Y005956D03*
D13*
X014824Y020838D03*
D14*
X015824Y020838D03*
X016824Y020838D03*
X017824Y020838D03*
X018824Y020838D03*
X019824Y020838D03*
X020824Y020838D03*
X020824Y019838D03*
X019824Y019838D03*
X018824Y019838D03*
X017824Y019838D03*
X016824Y019838D03*
X015824Y019838D03*
X014824Y019838D03*
D15*
X003218Y020126D03*
X002431Y020126D03*
X002431Y019338D03*
X003218Y019338D03*
X003218Y018551D03*
X002431Y018551D03*
D16*
X002824Y017449D03*
X002824Y021228D03*
D17*
X004824Y006838D03*
X005824Y006838D03*
X005824Y005838D03*
X004824Y005838D03*
X004824Y004838D03*
X005824Y004838D03*
X005824Y003838D03*
X004824Y003838D03*
D18*
X003824Y003838D03*
X003824Y004838D03*
X003824Y005838D03*
X003824Y006838D03*
D19*
X006824Y008038D03*
X006524Y008838D03*
X009324Y009038D03*
X008824Y010838D03*
X013824Y006738D03*
X006674Y004838D03*
X024824Y009338D03*
X025824Y009588D03*
X027274Y005538D03*
X029674Y005038D03*
X033974Y006538D03*
X034024Y009538D03*
X027824Y017338D03*
X026824Y017838D03*
X024024Y018638D03*
X022624Y018638D03*
X021224Y018638D03*
X019824Y018638D03*
X018424Y018638D03*
X016724Y018688D03*
X012824Y018638D03*
X011424Y018638D03*
D20*
X014824Y015338D03*
X012824Y005338D03*
X032824Y004338D03*
X037824Y020338D03*
D21*
X001824Y022338D02*
X001824Y002338D01*
X046824Y002338D01*
X046824Y022338D01*
X001824Y022338D01*
M02*
