G75*
G70*
%OFA0B0*%
%FSLAX24Y24*%
%IPPOS*%
%LPD*%
%AMOC8*
5,1,8,0,0,1.08239X$1,22.5*
%
%ADD10C,0.0000*%
D10*
X002383Y008655D02*
X002383Y001034D01*
X062875Y001034D01*
X062875Y008655D01*
X002383Y008655D01*
X008706Y007620D02*
X008709Y007677D01*
X008716Y007733D01*
X008729Y007789D01*
X008747Y007843D01*
X008770Y007895D01*
X008797Y007945D01*
X008829Y007992D01*
X008865Y008036D01*
X008904Y008077D01*
X008948Y008114D01*
X008994Y008146D01*
X009043Y008175D01*
X009095Y008199D01*
X009149Y008218D01*
X009204Y008232D01*
X009260Y008241D01*
X009317Y008245D01*
X009374Y008244D01*
X009430Y008237D01*
X009486Y008226D01*
X009540Y008209D01*
X009593Y008187D01*
X009643Y008161D01*
X009691Y008131D01*
X009736Y008096D01*
X009778Y008057D01*
X009816Y008014D01*
X009850Y007969D01*
X009879Y007920D01*
X009904Y007869D01*
X009925Y007816D01*
X009940Y007761D01*
X009950Y007705D01*
X009955Y007648D01*
X009955Y007592D01*
X009950Y007535D01*
X009940Y007479D01*
X009925Y007424D01*
X009904Y007371D01*
X009879Y007320D01*
X009850Y007271D01*
X009816Y007226D01*
X009778Y007183D01*
X009736Y007144D01*
X009691Y007109D01*
X009644Y007079D01*
X009593Y007053D01*
X009540Y007031D01*
X009486Y007014D01*
X009430Y007003D01*
X009374Y006996D01*
X009317Y006995D01*
X009260Y006999D01*
X009204Y007008D01*
X009149Y007022D01*
X009095Y007041D01*
X009043Y007065D01*
X008994Y007094D01*
X008948Y007126D01*
X008904Y007163D01*
X008865Y007204D01*
X008829Y007248D01*
X008797Y007295D01*
X008770Y007345D01*
X008747Y007397D01*
X008729Y007451D01*
X008716Y007507D01*
X008709Y007563D01*
X008706Y007620D01*
X040506Y007670D02*
X040509Y007727D01*
X040516Y007783D01*
X040529Y007839D01*
X040547Y007893D01*
X040570Y007945D01*
X040597Y007995D01*
X040629Y008042D01*
X040665Y008086D01*
X040704Y008127D01*
X040748Y008164D01*
X040794Y008196D01*
X040843Y008225D01*
X040895Y008249D01*
X040949Y008268D01*
X041004Y008282D01*
X041060Y008291D01*
X041117Y008295D01*
X041174Y008294D01*
X041230Y008287D01*
X041286Y008276D01*
X041340Y008259D01*
X041393Y008237D01*
X041443Y008211D01*
X041491Y008181D01*
X041536Y008146D01*
X041578Y008107D01*
X041616Y008064D01*
X041650Y008019D01*
X041679Y007970D01*
X041704Y007919D01*
X041725Y007866D01*
X041740Y007811D01*
X041750Y007755D01*
X041755Y007698D01*
X041755Y007642D01*
X041750Y007585D01*
X041740Y007529D01*
X041725Y007474D01*
X041704Y007421D01*
X041679Y007370D01*
X041650Y007321D01*
X041616Y007276D01*
X041578Y007233D01*
X041536Y007194D01*
X041491Y007159D01*
X041444Y007129D01*
X041393Y007103D01*
X041340Y007081D01*
X041286Y007064D01*
X041230Y007053D01*
X041174Y007046D01*
X041117Y007045D01*
X041060Y007049D01*
X041004Y007058D01*
X040949Y007072D01*
X040895Y007091D01*
X040843Y007115D01*
X040794Y007144D01*
X040748Y007176D01*
X040704Y007213D01*
X040665Y007254D01*
X040629Y007298D01*
X040597Y007345D01*
X040570Y007395D01*
X040547Y007447D01*
X040529Y007501D01*
X040516Y007557D01*
X040509Y007613D01*
X040506Y007670D01*
X060991Y006970D02*
X060994Y007028D01*
X061002Y007086D01*
X061015Y007143D01*
X061033Y007198D01*
X061056Y007251D01*
X061084Y007303D01*
X061117Y007351D01*
X061153Y007396D01*
X061194Y007438D01*
X061239Y007476D01*
X061286Y007509D01*
X061337Y007538D01*
X061389Y007563D01*
X061444Y007582D01*
X061501Y007597D01*
X061558Y007606D01*
X061616Y007610D01*
X061675Y007609D01*
X061733Y007602D01*
X061790Y007590D01*
X061845Y007573D01*
X061899Y007551D01*
X061951Y007524D01*
X062000Y007493D01*
X062046Y007457D01*
X062089Y007417D01*
X062127Y007374D01*
X062162Y007327D01*
X062192Y007277D01*
X062218Y007225D01*
X062239Y007171D01*
X062254Y007114D01*
X062265Y007057D01*
X062270Y006999D01*
X062270Y006941D01*
X062265Y006883D01*
X062254Y006826D01*
X062239Y006769D01*
X062218Y006715D01*
X062192Y006663D01*
X062162Y006613D01*
X062127Y006566D01*
X062089Y006523D01*
X062046Y006483D01*
X062000Y006447D01*
X061951Y006416D01*
X061899Y006389D01*
X061845Y006367D01*
X061790Y006350D01*
X061733Y006338D01*
X061675Y006331D01*
X061616Y006330D01*
X061558Y006334D01*
X061501Y006343D01*
X061444Y006358D01*
X061389Y006377D01*
X061337Y006402D01*
X061286Y006431D01*
X061239Y006464D01*
X061194Y006502D01*
X061153Y006544D01*
X061117Y006589D01*
X061084Y006637D01*
X061056Y006689D01*
X061033Y006742D01*
X061015Y006797D01*
X061002Y006854D01*
X060994Y006912D01*
X060991Y006970D01*
X054006Y003120D02*
X054009Y003177D01*
X054016Y003233D01*
X054029Y003289D01*
X054047Y003343D01*
X054070Y003395D01*
X054097Y003445D01*
X054129Y003492D01*
X054165Y003536D01*
X054204Y003577D01*
X054248Y003614D01*
X054294Y003646D01*
X054343Y003675D01*
X054395Y003699D01*
X054449Y003718D01*
X054504Y003732D01*
X054560Y003741D01*
X054617Y003745D01*
X054674Y003744D01*
X054730Y003737D01*
X054786Y003726D01*
X054840Y003709D01*
X054893Y003687D01*
X054943Y003661D01*
X054991Y003631D01*
X055036Y003596D01*
X055078Y003557D01*
X055116Y003514D01*
X055150Y003469D01*
X055179Y003420D01*
X055204Y003369D01*
X055225Y003316D01*
X055240Y003261D01*
X055250Y003205D01*
X055255Y003148D01*
X055255Y003092D01*
X055250Y003035D01*
X055240Y002979D01*
X055225Y002924D01*
X055204Y002871D01*
X055179Y002820D01*
X055150Y002771D01*
X055116Y002726D01*
X055078Y002683D01*
X055036Y002644D01*
X054991Y002609D01*
X054944Y002579D01*
X054893Y002553D01*
X054840Y002531D01*
X054786Y002514D01*
X054730Y002503D01*
X054674Y002496D01*
X054617Y002495D01*
X054560Y002499D01*
X054504Y002508D01*
X054449Y002522D01*
X054395Y002541D01*
X054343Y002565D01*
X054294Y002594D01*
X054248Y002626D01*
X054204Y002663D01*
X054165Y002704D01*
X054129Y002748D01*
X054097Y002795D01*
X054070Y002845D01*
X054047Y002897D01*
X054029Y002951D01*
X054016Y003007D01*
X054009Y003063D01*
X054006Y003120D01*
X060991Y002970D02*
X060994Y003028D01*
X061002Y003086D01*
X061015Y003143D01*
X061033Y003198D01*
X061056Y003251D01*
X061084Y003303D01*
X061117Y003351D01*
X061153Y003396D01*
X061194Y003438D01*
X061239Y003476D01*
X061286Y003509D01*
X061337Y003538D01*
X061389Y003563D01*
X061444Y003582D01*
X061501Y003597D01*
X061558Y003606D01*
X061616Y003610D01*
X061675Y003609D01*
X061733Y003602D01*
X061790Y003590D01*
X061845Y003573D01*
X061899Y003551D01*
X061951Y003524D01*
X062000Y003493D01*
X062046Y003457D01*
X062089Y003417D01*
X062127Y003374D01*
X062162Y003327D01*
X062192Y003277D01*
X062218Y003225D01*
X062239Y003171D01*
X062254Y003114D01*
X062265Y003057D01*
X062270Y002999D01*
X062270Y002941D01*
X062265Y002883D01*
X062254Y002826D01*
X062239Y002769D01*
X062218Y002715D01*
X062192Y002663D01*
X062162Y002613D01*
X062127Y002566D01*
X062089Y002523D01*
X062046Y002483D01*
X062000Y002447D01*
X061951Y002416D01*
X061899Y002389D01*
X061845Y002367D01*
X061790Y002350D01*
X061733Y002338D01*
X061675Y002331D01*
X061616Y002330D01*
X061558Y002334D01*
X061501Y002343D01*
X061444Y002358D01*
X061389Y002377D01*
X061337Y002402D01*
X061286Y002431D01*
X061239Y002464D01*
X061194Y002502D01*
X061153Y002544D01*
X061117Y002589D01*
X061084Y002637D01*
X061056Y002689D01*
X061033Y002742D01*
X061015Y002797D01*
X061002Y002854D01*
X060994Y002912D01*
X060991Y002970D01*
X022756Y001970D02*
X022759Y002027D01*
X022766Y002083D01*
X022779Y002139D01*
X022797Y002193D01*
X022820Y002245D01*
X022847Y002295D01*
X022879Y002342D01*
X022915Y002386D01*
X022954Y002427D01*
X022998Y002464D01*
X023044Y002496D01*
X023093Y002525D01*
X023145Y002549D01*
X023199Y002568D01*
X023254Y002582D01*
X023310Y002591D01*
X023367Y002595D01*
X023424Y002594D01*
X023480Y002587D01*
X023536Y002576D01*
X023590Y002559D01*
X023643Y002537D01*
X023693Y002511D01*
X023741Y002481D01*
X023786Y002446D01*
X023828Y002407D01*
X023866Y002364D01*
X023900Y002319D01*
X023929Y002270D01*
X023954Y002219D01*
X023975Y002166D01*
X023990Y002111D01*
X024000Y002055D01*
X024005Y001998D01*
X024005Y001942D01*
X024000Y001885D01*
X023990Y001829D01*
X023975Y001774D01*
X023954Y001721D01*
X023929Y001670D01*
X023900Y001621D01*
X023866Y001576D01*
X023828Y001533D01*
X023786Y001494D01*
X023741Y001459D01*
X023694Y001429D01*
X023643Y001403D01*
X023590Y001381D01*
X023536Y001364D01*
X023480Y001353D01*
X023424Y001346D01*
X023367Y001345D01*
X023310Y001349D01*
X023254Y001358D01*
X023199Y001372D01*
X023145Y001391D01*
X023093Y001415D01*
X023044Y001444D01*
X022998Y001476D01*
X022954Y001513D01*
X022915Y001554D01*
X022879Y001598D01*
X022847Y001645D01*
X022820Y001695D01*
X022797Y001747D01*
X022779Y001801D01*
X022766Y001857D01*
X022759Y001913D01*
X022756Y001970D01*
M02*
