G75*
G70*
%OFA0B0*%
%FSLAX24Y24*%
%IPPOS*%
%LPD*%
%AMOC8*
5,1,8,0,0,1.08239X$1,22.5*
%
%ADD10O,0.1980X0.0990*%
%ADD11O,0.0520X0.1040*%
%ADD12O,0.2280X0.1140*%
%ADD13C,0.0550*%
%ADD14O,0.1040X0.0520*%
%ADD15OC8,0.0520*%
%ADD16C,0.0160*%
%ADD17C,0.0400*%
D10*
X053544Y006119D03*
X060516Y005410D03*
X052571Y003355D03*
X018308Y003375D03*
X010138Y004025D03*
X010123Y005430D03*
X016729Y006119D03*
D11*
X020131Y006220D03*
X022131Y006220D03*
X033131Y006220D03*
X035131Y006220D03*
X045881Y006220D03*
X047881Y006220D03*
X047891Y003220D03*
X045881Y003220D03*
X035141Y003220D03*
X033131Y003220D03*
X022141Y003220D03*
X020131Y003220D03*
X008391Y003220D03*
X006381Y003220D03*
X006381Y006220D03*
X008381Y006220D03*
D12*
X013631Y006575D03*
X026131Y006575D03*
X038631Y006575D03*
X050131Y006575D03*
X050131Y004720D03*
X038631Y004720D03*
X038591Y002864D03*
X050091Y002864D03*
X026091Y002864D03*
X026131Y004720D03*
X013631Y004720D03*
X013591Y002864D03*
D13*
X058131Y004220D03*
X059131Y004720D03*
X058131Y005220D03*
X059131Y005720D03*
X058131Y006220D03*
X059131Y003720D03*
D14*
X004871Y003720D03*
X004871Y004720D03*
X004871Y005720D03*
D15*
X018631Y005970D03*
X018631Y006970D03*
X031131Y006720D03*
X031131Y005720D03*
X031131Y004720D03*
X018631Y004970D03*
X011381Y002470D03*
X010381Y002470D03*
X009381Y002470D03*
X044131Y004720D03*
X044131Y005720D03*
X044131Y006720D03*
D16*
X002862Y008175D02*
X002862Y001514D01*
X022373Y001514D01*
X022276Y001750D01*
X022276Y002189D01*
X022444Y002595D01*
X022755Y002906D01*
X023161Y003074D01*
X023536Y003074D01*
X022491Y004120D01*
X015281Y004120D01*
X015141Y004260D01*
X014931Y004470D01*
X014931Y004470D01*
X014931Y004417D01*
X014503Y003990D01*
X012758Y003990D01*
X012499Y004249D01*
X010801Y002550D01*
X010801Y002296D01*
X010554Y002050D01*
X010207Y002050D01*
X009961Y002296D01*
X009961Y002300D01*
X009891Y002370D01*
X009821Y002440D01*
X009821Y002287D01*
X009563Y002030D01*
X009381Y002030D01*
X009381Y002469D01*
X009791Y002469D01*
X009791Y002470D01*
X009381Y002470D01*
X009381Y002880D01*
X009380Y002880D01*
X009380Y002470D01*
X008941Y002470D01*
X008941Y002652D01*
X009198Y002909D01*
X009351Y002909D01*
X008811Y003450D01*
X008811Y002786D01*
X008564Y002540D01*
X008217Y002540D01*
X007971Y002786D01*
X007971Y003653D01*
X008217Y003899D01*
X008361Y003899D01*
X006638Y005623D01*
X006554Y005540D01*
X006207Y005540D01*
X005961Y005786D01*
X005961Y006653D01*
X006207Y006899D01*
X006554Y006899D01*
X006801Y006653D01*
X006801Y006139D01*
X008988Y003951D01*
X008988Y004296D01*
X009372Y004680D01*
X010905Y004680D01*
X011288Y004296D01*
X011288Y003753D01*
X010905Y003370D01*
X009570Y003370D01*
X010128Y002811D01*
X010207Y002889D01*
X010461Y002889D01*
X012331Y004759D01*
X012331Y005022D01*
X012758Y005449D01*
X014503Y005449D01*
X014931Y005022D01*
X014931Y004949D01*
X014931Y004949D01*
X015130Y004949D01*
X015480Y004599D01*
X018378Y004599D01*
X018191Y004787D01*
X018191Y004969D01*
X018630Y004969D01*
X018630Y004599D01*
X018631Y004599D01*
X018631Y004969D01*
X019071Y004969D01*
X019071Y004787D01*
X018883Y004599D01*
X021411Y004599D01*
X021391Y004620D01*
X020388Y005623D01*
X020304Y005540D01*
X019957Y005540D01*
X019711Y005786D01*
X019711Y005980D01*
X019051Y005980D01*
X019051Y005796D01*
X018804Y005550D01*
X018457Y005550D01*
X018211Y005796D01*
X018211Y006143D01*
X018457Y006389D01*
X018711Y006389D01*
X018781Y006459D01*
X019711Y006459D01*
X019711Y006653D01*
X019957Y006899D01*
X020304Y006899D01*
X020551Y006653D01*
X020551Y006139D01*
X021730Y004959D01*
X024831Y004959D01*
X024831Y005022D01*
X025258Y005449D01*
X027003Y005449D01*
X027431Y005022D01*
X027431Y004417D01*
X027003Y003990D01*
X025258Y003990D01*
X024831Y004417D01*
X024831Y004480D01*
X022810Y004480D01*
X025030Y002259D01*
X025065Y002259D01*
X024771Y002553D01*
X024771Y002784D01*
X026011Y002784D01*
X026011Y002258D01*
X026171Y002258D01*
X026171Y002784D01*
X027411Y002784D01*
X027411Y002553D01*
X027114Y002257D01*
X037581Y002243D01*
X037271Y002553D01*
X037271Y002784D01*
X038511Y002784D01*
X038511Y002242D01*
X038671Y002242D01*
X038671Y002784D01*
X039911Y002784D01*
X039911Y002553D01*
X039598Y002241D01*
X049096Y002228D01*
X048771Y002553D01*
X048771Y002784D01*
X050011Y002784D01*
X050011Y002227D01*
X050171Y002227D01*
X050171Y002784D01*
X051411Y002784D01*
X051411Y002553D01*
X051084Y002226D01*
X053965Y002222D01*
X053694Y002494D01*
X053529Y002892D01*
X053338Y002700D01*
X051805Y002700D01*
X051421Y003084D01*
X051421Y003627D01*
X051805Y004010D01*
X053338Y004010D01*
X053667Y003681D01*
X053694Y003745D01*
X054005Y004056D01*
X054411Y004224D01*
X054850Y004224D01*
X055256Y004056D01*
X055567Y003745D01*
X055736Y003339D01*
X055736Y002900D01*
X055567Y002494D01*
X055294Y002220D01*
X055782Y002220D01*
X057698Y004127D01*
X057696Y004133D01*
X057696Y004306D01*
X057762Y004466D01*
X057884Y004588D01*
X058044Y004654D01*
X058217Y004654D01*
X058377Y004588D01*
X058499Y004466D01*
X058566Y004306D01*
X058566Y004133D01*
X058499Y003973D01*
X058377Y003851D01*
X058217Y003785D01*
X058044Y003785D01*
X058037Y003788D01*
X056050Y001810D01*
X055980Y001740D01*
X055980Y001740D01*
X055942Y001740D01*
X055880Y001740D01*
X055880Y001740D01*
X055781Y001740D01*
X055781Y001740D01*
X024952Y001780D01*
X024831Y001780D01*
X024831Y001780D01*
X024691Y001920D01*
X024486Y002125D01*
X024486Y001750D01*
X024388Y001514D01*
X062395Y001514D01*
X062395Y002150D01*
X062265Y002020D01*
X061853Y001850D01*
X061408Y001850D01*
X060996Y002020D01*
X060681Y002335D01*
X060511Y002747D01*
X060511Y003192D01*
X060681Y003604D01*
X060996Y003919D01*
X061408Y004089D01*
X061853Y004089D01*
X062265Y003919D01*
X062395Y003789D01*
X062395Y006150D01*
X062265Y006020D01*
X061853Y005850D01*
X061499Y005850D01*
X061666Y005682D01*
X061666Y005139D01*
X061283Y004755D01*
X059750Y004755D01*
X059366Y005139D01*
X059366Y005346D01*
X059217Y005285D01*
X059044Y005285D01*
X058884Y005351D01*
X058762Y005473D01*
X058759Y005480D01*
X058486Y005480D01*
X058499Y005466D01*
X058566Y005306D01*
X058566Y005133D01*
X058499Y004973D01*
X058377Y004851D01*
X058217Y004785D01*
X058044Y004785D01*
X057884Y004851D01*
X057762Y004973D01*
X057759Y004980D01*
X056900Y004980D01*
X056834Y004914D01*
X056702Y004860D01*
X056559Y004860D01*
X056427Y004914D01*
X056325Y005016D01*
X056271Y005148D01*
X056271Y005291D01*
X056291Y005341D01*
X055741Y004790D01*
X055741Y004648D01*
X055686Y004516D01*
X055584Y004414D01*
X055452Y004360D01*
X055309Y004360D01*
X055177Y004414D01*
X055075Y004516D01*
X055021Y004648D01*
X055021Y004791D01*
X055075Y004923D01*
X055177Y005025D01*
X055309Y005079D01*
X055351Y005079D01*
X056091Y005819D01*
X056231Y005959D01*
X057747Y005959D01*
X057745Y005962D01*
X057676Y006129D01*
X057676Y006212D01*
X058123Y006212D01*
X058123Y005959D01*
X058138Y005959D01*
X058138Y006212D01*
X058586Y006212D01*
X058586Y006129D01*
X058516Y005962D01*
X058514Y005959D01*
X058759Y005959D01*
X058762Y005966D01*
X058884Y006088D01*
X059044Y006154D01*
X059217Y006154D01*
X059377Y006088D01*
X059499Y005966D01*
X059544Y005859D01*
X059750Y006065D01*
X060951Y006065D01*
X060681Y006335D01*
X060511Y006747D01*
X060511Y007192D01*
X060681Y007604D01*
X060996Y007919D01*
X061408Y008089D01*
X061853Y008089D01*
X062265Y007919D01*
X062395Y007789D01*
X062395Y008175D01*
X042117Y008175D01*
X042236Y007889D01*
X042236Y007450D01*
X042067Y007044D01*
X041756Y006733D01*
X041350Y006565D01*
X040911Y006565D01*
X040505Y006733D01*
X040194Y007044D01*
X040026Y007450D01*
X040026Y007889D01*
X040144Y008175D01*
X010297Y008175D01*
X010436Y007839D01*
X010436Y007400D01*
X010267Y006994D01*
X009956Y006683D01*
X009550Y006515D01*
X009111Y006515D01*
X008801Y006643D01*
X008801Y005786D01*
X008554Y005540D01*
X008207Y005540D01*
X007961Y005786D01*
X007961Y006653D01*
X008207Y006899D01*
X008488Y006899D01*
X008394Y006994D01*
X008226Y007400D01*
X008226Y007839D01*
X008364Y008175D01*
X002862Y008175D01*
X002862Y008037D02*
X008307Y008037D01*
X008242Y007878D02*
X002862Y007878D01*
X002862Y007720D02*
X008226Y007720D01*
X008226Y007561D02*
X002862Y007561D01*
X002862Y007403D02*
X008226Y007403D01*
X008290Y007244D02*
X002862Y007244D01*
X002862Y007086D02*
X008356Y007086D01*
X008460Y006927D02*
X002862Y006927D01*
X002862Y006769D02*
X006076Y006769D01*
X005961Y006610D02*
X002862Y006610D01*
X002862Y006451D02*
X005961Y006451D01*
X006801Y006451D02*
X007961Y006451D01*
X008801Y006451D02*
X012331Y006451D01*
X012331Y006293D02*
X008801Y006293D01*
X007961Y006293D02*
X006801Y006293D01*
X006381Y006220D02*
X010131Y002470D01*
X010381Y002470D01*
X012641Y004730D01*
X012651Y004720D01*
X013631Y004720D01*
X013641Y004710D01*
X015031Y004710D01*
X015381Y004360D01*
X022591Y004360D01*
X024931Y002020D01*
X055881Y001980D01*
X058131Y004220D01*
X058566Y004232D02*
X062395Y004232D01*
X062395Y004073D02*
X061892Y004073D01*
X061369Y004073D02*
X059392Y004073D01*
X059377Y004088D02*
X059217Y004154D01*
X059044Y004154D01*
X058884Y004088D01*
X058762Y003966D01*
X058696Y003806D01*
X058696Y003633D01*
X058762Y003473D01*
X058884Y003351D01*
X059044Y003285D01*
X059217Y003285D01*
X059377Y003351D01*
X059499Y003473D01*
X059566Y003633D01*
X059566Y003806D01*
X059499Y003966D01*
X059377Y004088D01*
X058869Y004073D02*
X058541Y004073D01*
X058441Y003915D02*
X058741Y003915D01*
X059521Y003915D02*
X060992Y003915D01*
X060833Y003756D02*
X059566Y003756D01*
X059551Y003598D02*
X060679Y003598D01*
X060613Y003439D02*
X059465Y003439D01*
X058796Y003439D02*
X057687Y003439D01*
X057007Y003439D02*
X055694Y003439D01*
X055736Y003281D02*
X056847Y003281D01*
X056688Y003122D02*
X055736Y003122D01*
X055736Y002964D02*
X056529Y002964D01*
X057209Y002964D02*
X060511Y002964D01*
X060511Y003122D02*
X057368Y003122D01*
X057527Y003281D02*
X060547Y003281D01*
X058710Y003598D02*
X057846Y003598D01*
X058005Y003756D02*
X058696Y003756D01*
X057484Y003915D02*
X055398Y003915D01*
X055556Y003756D02*
X057325Y003756D01*
X057166Y003598D02*
X055629Y003598D01*
X053863Y003915D02*
X053433Y003915D01*
X053592Y003756D02*
X053705Y003756D01*
X051710Y003915D02*
X023375Y003915D01*
X022696Y003915D02*
X019189Y003915D01*
X019074Y004030D02*
X017541Y004030D01*
X017158Y003646D01*
X017158Y003104D01*
X017541Y002720D01*
X019074Y002720D01*
X019458Y003104D01*
X019458Y003646D01*
X019074Y004030D01*
X019711Y003653D02*
X019957Y003899D01*
X020304Y003899D01*
X020551Y003653D01*
X020551Y002786D01*
X020304Y002540D01*
X019957Y002540D01*
X019711Y002786D01*
X019711Y003653D01*
X019711Y003598D02*
X019458Y003598D01*
X019348Y003756D02*
X019813Y003756D01*
X020448Y003756D02*
X021823Y003756D01*
X021721Y003653D02*
X021721Y002786D01*
X021967Y002540D01*
X022314Y002540D01*
X022561Y002786D01*
X022561Y003653D01*
X022314Y003899D01*
X021967Y003899D01*
X021721Y003653D01*
X021721Y003598D02*
X020551Y003598D01*
X020551Y003439D02*
X021721Y003439D01*
X022561Y003439D02*
X023172Y003439D01*
X023850Y003439D02*
X025036Y003439D01*
X026011Y003439D02*
X026171Y003439D01*
X026171Y003281D02*
X026011Y003281D01*
X026011Y003122D02*
X026171Y003122D01*
X026171Y002964D02*
X026011Y002964D01*
X026011Y002944D02*
X026011Y003614D01*
X025211Y003614D01*
X024771Y003175D01*
X024771Y002944D01*
X026011Y002944D01*
X026091Y002864D02*
X029275Y002864D01*
X031131Y004720D01*
X031571Y004720D01*
X031571Y004902D01*
X031313Y005159D01*
X031131Y005159D01*
X031131Y004720D01*
X036131Y004720D01*
X037881Y002970D01*
X038631Y002970D01*
X038591Y002930D01*
X038591Y002864D01*
X039275Y002864D01*
X041131Y004720D01*
X044131Y004720D01*
X044571Y004720D01*
X044571Y004902D01*
X044313Y005159D01*
X044131Y005159D01*
X044131Y004720D01*
X044631Y004220D01*
X047881Y004220D01*
X049131Y002970D01*
X050131Y002970D01*
X050131Y002903D01*
X050091Y002864D01*
X050275Y002864D01*
X052131Y004720D01*
X054131Y004720D01*
X055631Y006220D01*
X058131Y006220D01*
X058138Y006227D02*
X058586Y006227D01*
X058586Y006310D01*
X058516Y006477D01*
X058388Y006605D01*
X058221Y006674D01*
X058138Y006674D01*
X058138Y006227D01*
X058123Y006227D02*
X058123Y006674D01*
X058040Y006674D01*
X057873Y006605D01*
X057745Y006477D01*
X057676Y006310D01*
X057676Y006227D01*
X058123Y006227D01*
X058123Y006293D02*
X058138Y006293D01*
X058586Y006293D02*
X060723Y006293D01*
X060633Y006451D02*
X058527Y006451D01*
X058138Y006451D02*
X058123Y006451D01*
X057734Y006451D02*
X054633Y006451D01*
X054694Y006390D02*
X054310Y006774D01*
X052778Y006774D01*
X052394Y006390D01*
X052394Y005848D01*
X052778Y005464D01*
X054310Y005464D01*
X054694Y005848D01*
X054694Y006390D01*
X054694Y006293D02*
X057676Y006293D01*
X057676Y006134D02*
X054694Y006134D01*
X054694Y005976D02*
X057739Y005976D01*
X058123Y005976D02*
X058138Y005976D01*
X058123Y006134D02*
X058138Y006134D01*
X058522Y005976D02*
X058772Y005976D01*
X058586Y006134D02*
X058995Y006134D01*
X059266Y006134D02*
X060882Y006134D01*
X059660Y005976D02*
X059489Y005976D01*
X059131Y005720D02*
X056331Y005720D01*
X055381Y004770D01*
X055381Y004720D01*
X055741Y004707D02*
X058696Y004707D01*
X058696Y004633D02*
X058762Y004473D01*
X058884Y004351D01*
X059044Y004285D01*
X059217Y004285D01*
X059377Y004351D01*
X059499Y004473D01*
X059566Y004633D01*
X059566Y004806D01*
X059499Y004966D01*
X059377Y005088D01*
X059217Y005154D01*
X059044Y005154D01*
X058884Y005088D01*
X058762Y004966D01*
X058696Y004806D01*
X058696Y004633D01*
X058730Y004549D02*
X058416Y004549D01*
X057845Y004549D02*
X055699Y004549D01*
X055062Y004549D02*
X051431Y004549D01*
X051431Y004707D02*
X055021Y004707D01*
X055052Y004866D02*
X051431Y004866D01*
X051431Y005022D02*
X051003Y005449D01*
X049258Y005449D01*
X048831Y005022D01*
X048831Y004959D01*
X047480Y004959D01*
X046301Y006139D01*
X046301Y006653D01*
X046054Y006899D01*
X045707Y006899D01*
X045461Y006653D01*
X045461Y006459D01*
X044531Y006459D01*
X044391Y006319D01*
X044211Y006139D01*
X043957Y006139D01*
X043711Y005893D01*
X043711Y005546D01*
X043957Y005300D01*
X044304Y005300D01*
X044551Y005546D01*
X044551Y005800D01*
X044730Y005980D01*
X045461Y005980D01*
X045461Y005786D01*
X045707Y005540D01*
X046054Y005540D01*
X046138Y005623D01*
X047141Y004620D01*
X047281Y004480D01*
X048831Y004480D01*
X048831Y004417D01*
X049258Y003990D01*
X051003Y003990D01*
X051431Y004417D01*
X051431Y005022D01*
X051428Y005025D02*
X055176Y005025D01*
X055455Y005183D02*
X051269Y005183D01*
X051111Y005342D02*
X055613Y005342D01*
X055772Y005500D02*
X054346Y005500D01*
X054505Y005659D02*
X055930Y005659D01*
X056089Y005817D02*
X054663Y005817D01*
X052742Y005500D02*
X046939Y005500D01*
X046781Y005659D02*
X047587Y005659D01*
X047707Y005540D02*
X047461Y005786D01*
X047461Y006653D01*
X047707Y006899D01*
X048054Y006899D01*
X048301Y006653D01*
X048301Y005786D01*
X048054Y005540D01*
X047707Y005540D01*
X048174Y005659D02*
X052583Y005659D01*
X052424Y005817D02*
X048301Y005817D01*
X048831Y006273D02*
X049258Y005845D01*
X051003Y005845D01*
X051431Y006273D01*
X051431Y006877D01*
X051003Y007305D01*
X049258Y007305D01*
X048831Y006877D01*
X048831Y006273D01*
X048831Y006293D02*
X048301Y006293D01*
X047461Y006293D02*
X046301Y006293D01*
X045881Y006220D02*
X047381Y004720D01*
X050131Y004720D01*
X051404Y004390D02*
X055234Y004390D01*
X055527Y004390D02*
X057731Y004390D01*
X058531Y004390D02*
X058844Y004390D01*
X059417Y004390D02*
X062395Y004390D01*
X062395Y004549D02*
X059531Y004549D01*
X059566Y004707D02*
X062395Y004707D01*
X062395Y004866D02*
X061393Y004866D01*
X061552Y005025D02*
X062395Y005025D01*
X062395Y005183D02*
X061666Y005183D01*
X061666Y005342D02*
X062395Y005342D01*
X062395Y005500D02*
X061666Y005500D01*
X061666Y005659D02*
X062395Y005659D01*
X062395Y005817D02*
X061531Y005817D01*
X062158Y005976D02*
X062395Y005976D01*
X062379Y006134D02*
X062395Y006134D01*
X060567Y006610D02*
X058377Y006610D01*
X058138Y006610D02*
X058123Y006610D01*
X057884Y006610D02*
X054474Y006610D01*
X054316Y006769D02*
X060511Y006769D01*
X060511Y006927D02*
X051381Y006927D01*
X051431Y006769D02*
X052772Y006769D01*
X052614Y006610D02*
X051431Y006610D01*
X051431Y006451D02*
X052455Y006451D01*
X052394Y006293D02*
X051431Y006293D01*
X051292Y006134D02*
X052394Y006134D01*
X052394Y005976D02*
X051134Y005976D01*
X049127Y005976D02*
X048301Y005976D01*
X048301Y006134D02*
X048969Y006134D01*
X047461Y006134D02*
X046305Y006134D01*
X046464Y005976D02*
X047461Y005976D01*
X047461Y005817D02*
X046622Y005817D01*
X045461Y005817D02*
X044568Y005817D01*
X044631Y006220D02*
X044131Y005720D01*
X044551Y005659D02*
X045587Y005659D01*
X046260Y005500D02*
X044505Y005500D01*
X043756Y005500D02*
X031505Y005500D01*
X031551Y005546D02*
X031304Y005300D01*
X030957Y005300D01*
X030711Y005546D01*
X030711Y005893D01*
X030957Y006139D01*
X031304Y006139D01*
X031551Y005893D01*
X031551Y005546D01*
X031551Y005659D02*
X032837Y005659D01*
X032957Y005540D02*
X032711Y005786D01*
X032711Y006653D01*
X032957Y006899D01*
X033304Y006899D01*
X033551Y006653D01*
X033551Y005786D01*
X033304Y005540D01*
X032957Y005540D01*
X033424Y005659D02*
X034837Y005659D01*
X034957Y005540D02*
X034711Y005786D01*
X034711Y006653D01*
X034957Y006899D01*
X035304Y006899D01*
X035551Y006653D01*
X035551Y005786D01*
X035304Y005540D01*
X034957Y005540D01*
X035424Y005659D02*
X043711Y005659D01*
X043711Y005817D02*
X035551Y005817D01*
X035551Y005976D02*
X037627Y005976D01*
X037469Y006134D02*
X035551Y006134D01*
X035551Y006293D02*
X037331Y006293D01*
X037331Y006273D02*
X037758Y005845D01*
X039503Y005845D01*
X039931Y006273D01*
X039931Y006877D01*
X039503Y007305D01*
X037758Y007305D01*
X037331Y006877D01*
X037331Y006273D01*
X037331Y006451D02*
X035551Y006451D01*
X035551Y006610D02*
X037331Y006610D01*
X037331Y006769D02*
X035435Y006769D01*
X034826Y006769D02*
X033435Y006769D01*
X033551Y006610D02*
X034711Y006610D01*
X034711Y006451D02*
X033551Y006451D01*
X033551Y006293D02*
X034711Y006293D01*
X034711Y006134D02*
X033551Y006134D01*
X033551Y005976D02*
X034711Y005976D01*
X034711Y005817D02*
X033551Y005817D01*
X032711Y005817D02*
X031551Y005817D01*
X030711Y005817D02*
X022551Y005817D01*
X022551Y005786D02*
X022551Y006653D01*
X022304Y006899D01*
X021957Y006899D01*
X021711Y006653D01*
X021711Y005786D01*
X021957Y005540D01*
X022304Y005540D01*
X022551Y005786D01*
X021711Y005817D02*
X020872Y005817D01*
X021031Y005659D02*
X021837Y005659D01*
X022424Y005659D02*
X030711Y005659D01*
X030756Y005500D02*
X021189Y005500D01*
X020510Y005500D02*
X017531Y005500D01*
X017495Y005464D02*
X017879Y005848D01*
X017879Y006390D01*
X017495Y006774D01*
X015963Y006774D01*
X015579Y006390D01*
X015579Y005848D01*
X015963Y005464D01*
X017495Y005464D01*
X018380Y005342D02*
X014611Y005342D01*
X014769Y005183D02*
X018222Y005183D01*
X018191Y005152D02*
X018448Y005409D01*
X018630Y005409D01*
X018630Y004970D01*
X018191Y004970D01*
X018191Y005152D01*
X018191Y005025D02*
X014928Y005025D01*
X015213Y004866D02*
X018191Y004866D01*
X018630Y004866D02*
X018631Y004866D01*
X018631Y004970D02*
X019071Y004970D01*
X019071Y005152D01*
X018813Y005409D01*
X018631Y005409D01*
X018631Y004970D01*
X018630Y005025D02*
X018631Y005025D01*
X018630Y005183D02*
X018631Y005183D01*
X019039Y005183D02*
X020828Y005183D01*
X020986Y005025D02*
X019071Y005025D01*
X019071Y004866D02*
X021145Y004866D01*
X021303Y004707D02*
X018991Y004707D01*
X018631Y004707D02*
X018630Y004707D01*
X018270Y004707D02*
X015372Y004707D01*
X015010Y004390D02*
X014904Y004390D01*
X014745Y004232D02*
X015169Y004232D01*
X014587Y004073D02*
X022537Y004073D01*
X023058Y004232D02*
X025016Y004232D01*
X025174Y004073D02*
X023216Y004073D01*
X022899Y004390D02*
X024857Y004390D01*
X026131Y004720D02*
X021631Y004720D01*
X020131Y006220D01*
X018881Y006220D01*
X018631Y005970D01*
X019051Y005976D02*
X019711Y005976D01*
X019711Y005817D02*
X019051Y005817D01*
X018211Y005817D02*
X017848Y005817D01*
X017879Y005976D02*
X018211Y005976D01*
X018211Y006134D02*
X017879Y006134D01*
X017879Y006293D02*
X018360Y006293D01*
X018773Y006451D02*
X017818Y006451D01*
X018211Y006796D02*
X018457Y006550D01*
X018804Y006550D01*
X019051Y006796D01*
X019051Y007143D01*
X018804Y007389D01*
X018457Y007389D01*
X018211Y007143D01*
X018211Y006796D01*
X018238Y006769D02*
X017501Y006769D01*
X017659Y006610D02*
X018396Y006610D01*
X018865Y006610D02*
X019711Y006610D01*
X019826Y006769D02*
X019024Y006769D01*
X019051Y006927D02*
X024880Y006927D01*
X024831Y006877D02*
X024831Y006273D01*
X025258Y005845D01*
X027003Y005845D01*
X027431Y006273D01*
X027431Y006877D01*
X027003Y007305D01*
X025258Y007305D01*
X024831Y006877D01*
X024831Y006769D02*
X022435Y006769D01*
X022551Y006610D02*
X024831Y006610D01*
X024831Y006451D02*
X022551Y006451D01*
X021711Y006451D02*
X020551Y006451D01*
X020551Y006293D02*
X021711Y006293D01*
X022551Y006293D02*
X024831Y006293D01*
X024969Y006134D02*
X022551Y006134D01*
X022551Y005976D02*
X025127Y005976D01*
X027134Y005976D02*
X030793Y005976D01*
X030951Y006134D02*
X027292Y006134D01*
X027431Y006293D02*
X032711Y006293D01*
X032711Y006451D02*
X031456Y006451D01*
X031551Y006546D02*
X031304Y006300D01*
X030957Y006300D01*
X030711Y006546D01*
X030711Y006893D01*
X030957Y007139D01*
X031304Y007139D01*
X031551Y006893D01*
X031551Y006546D01*
X031551Y006610D02*
X032711Y006610D01*
X032826Y006769D02*
X031551Y006769D01*
X030711Y006769D02*
X027431Y006769D01*
X027431Y006610D02*
X030711Y006610D01*
X030805Y006451D02*
X027431Y006451D01*
X027381Y006927D02*
X030744Y006927D01*
X031517Y006927D02*
X037380Y006927D01*
X037539Y007086D02*
X031358Y007086D01*
X030903Y007086D02*
X027222Y007086D01*
X027064Y007244D02*
X037697Y007244D01*
X039564Y007244D02*
X040111Y007244D01*
X040176Y007086D02*
X039722Y007086D01*
X039881Y006927D02*
X040310Y006927D01*
X040469Y006769D02*
X039931Y006769D01*
X039931Y006610D02*
X040801Y006610D01*
X041460Y006610D02*
X043711Y006610D01*
X043711Y006546D02*
X043957Y006300D01*
X044304Y006300D01*
X044551Y006546D01*
X044551Y006893D01*
X044304Y007139D01*
X043957Y007139D01*
X043711Y006893D01*
X043711Y006546D01*
X043805Y006451D02*
X039931Y006451D01*
X039931Y006293D02*
X044365Y006293D01*
X044631Y006220D02*
X045881Y006220D01*
X045461Y005976D02*
X044726Y005976D01*
X043951Y006134D02*
X039792Y006134D01*
X039634Y005976D02*
X043793Y005976D01*
X044456Y006451D02*
X044523Y006451D01*
X044551Y006610D02*
X045461Y006610D01*
X045576Y006769D02*
X044551Y006769D01*
X043711Y006769D02*
X041792Y006769D01*
X041951Y006927D02*
X043744Y006927D01*
X044517Y006927D02*
X048880Y006927D01*
X048831Y006769D02*
X048185Y006769D01*
X048301Y006610D02*
X048831Y006610D01*
X048831Y006451D02*
X048301Y006451D01*
X047461Y006451D02*
X046301Y006451D01*
X046301Y006610D02*
X047461Y006610D01*
X047576Y006769D02*
X046185Y006769D01*
X044358Y007086D02*
X049039Y007086D01*
X049197Y007244D02*
X042150Y007244D01*
X042085Y007086D02*
X043903Y007086D01*
X042216Y007403D02*
X060598Y007403D01*
X060663Y007561D02*
X042236Y007561D01*
X042236Y007720D02*
X060797Y007720D01*
X060955Y007878D02*
X042236Y007878D01*
X042174Y008037D02*
X061281Y008037D01*
X061980Y008037D02*
X062395Y008037D01*
X062395Y007878D02*
X062306Y007878D01*
X060532Y007244D02*
X051064Y007244D01*
X051222Y007086D02*
X060511Y007086D01*
X059366Y005342D02*
X059355Y005342D01*
X058906Y005342D02*
X058551Y005342D01*
X058131Y005220D02*
X056631Y005220D01*
X056271Y005183D02*
X056134Y005183D01*
X055975Y005025D02*
X056322Y005025D01*
X056543Y004866D02*
X055816Y004866D01*
X056718Y004866D02*
X057869Y004866D01*
X058392Y004866D02*
X058720Y004866D01*
X059541Y004866D02*
X059640Y004866D01*
X059481Y005025D02*
X059441Y005025D01*
X059366Y005183D02*
X058566Y005183D01*
X058521Y005025D02*
X058820Y005025D01*
X057696Y004232D02*
X051245Y004232D01*
X051087Y004073D02*
X054046Y004073D01*
X055215Y004073D02*
X057644Y004073D01*
X062269Y003915D02*
X062395Y003915D01*
X060511Y002805D02*
X057050Y002805D01*
X056891Y002646D02*
X060552Y002646D01*
X060618Y002488D02*
X056731Y002488D01*
X056051Y002488D02*
X055562Y002488D01*
X055631Y002646D02*
X056210Y002646D01*
X056370Y002805D02*
X055696Y002805D01*
X053699Y002488D02*
X051346Y002488D01*
X051411Y002646D02*
X053630Y002646D01*
X053565Y002805D02*
X053442Y002805D01*
X051701Y002805D02*
X048311Y002805D01*
X048311Y002786D02*
X048311Y003653D01*
X048064Y003899D01*
X047717Y003899D01*
X047471Y003653D01*
X047471Y002786D01*
X047717Y002540D01*
X048064Y002540D01*
X048311Y002786D01*
X048171Y002646D02*
X048771Y002646D01*
X048837Y002488D02*
X039846Y002488D01*
X039911Y002646D02*
X045600Y002646D01*
X045707Y002540D02*
X045461Y002786D01*
X045461Y003653D01*
X045707Y003899D01*
X046054Y003899D01*
X046301Y003653D01*
X046301Y002786D01*
X046054Y002540D01*
X045707Y002540D01*
X046161Y002646D02*
X047610Y002646D01*
X047471Y002805D02*
X046301Y002805D01*
X045461Y002805D02*
X035561Y002805D01*
X035561Y002786D02*
X035561Y003653D01*
X035314Y003899D01*
X034967Y003899D01*
X034721Y003653D01*
X034721Y002786D01*
X034967Y002540D01*
X035314Y002540D01*
X035561Y002786D01*
X035421Y002646D02*
X037271Y002646D01*
X037337Y002488D02*
X027346Y002488D01*
X027411Y002646D02*
X032850Y002646D01*
X032957Y002540D02*
X032711Y002786D01*
X032711Y003653D01*
X032957Y003899D01*
X033304Y003899D01*
X033551Y003653D01*
X033551Y002786D01*
X033304Y002540D01*
X032957Y002540D01*
X033411Y002646D02*
X034860Y002646D01*
X034721Y002805D02*
X033551Y002805D01*
X033551Y002964D02*
X034721Y002964D01*
X034721Y003122D02*
X033551Y003122D01*
X033551Y003281D02*
X034721Y003281D01*
X034721Y003439D02*
X033551Y003439D01*
X033551Y003598D02*
X034721Y003598D01*
X034823Y003756D02*
X033448Y003756D01*
X032813Y003756D02*
X023533Y003756D01*
X023692Y003598D02*
X025194Y003598D01*
X026011Y003598D02*
X026171Y003598D01*
X026171Y003614D02*
X026972Y003614D01*
X027411Y003175D01*
X027411Y002944D01*
X026171Y002944D01*
X026171Y003614D01*
X026988Y003598D02*
X032711Y003598D01*
X032711Y003439D02*
X027147Y003439D01*
X027305Y003281D02*
X032711Y003281D01*
X032711Y003122D02*
X027411Y003122D01*
X027411Y002964D02*
X032711Y002964D01*
X032711Y002805D02*
X024484Y002805D01*
X024643Y002646D02*
X024771Y002646D01*
X024802Y002488D02*
X024837Y002488D01*
X024960Y002329D02*
X024995Y002329D01*
X026011Y002329D02*
X026171Y002329D01*
X026171Y002488D02*
X026011Y002488D01*
X026011Y002646D02*
X026171Y002646D01*
X024771Y002964D02*
X024326Y002964D01*
X024167Y003122D02*
X024771Y003122D01*
X024877Y003281D02*
X024009Y003281D01*
X023489Y003122D02*
X022561Y003122D01*
X022561Y003281D02*
X023330Y003281D01*
X021721Y003281D02*
X020551Y003281D01*
X020551Y003122D02*
X021721Y003122D01*
X021721Y002964D02*
X020551Y002964D01*
X020551Y002805D02*
X021721Y002805D01*
X021860Y002646D02*
X020411Y002646D01*
X019850Y002646D02*
X014911Y002646D01*
X014911Y002553D02*
X014472Y002114D01*
X013671Y002114D01*
X013671Y002784D01*
X014911Y002784D01*
X014911Y002553D01*
X014846Y002488D02*
X022399Y002488D01*
X022421Y002646D02*
X022495Y002646D01*
X022561Y002805D02*
X022653Y002805D01*
X022561Y002964D02*
X022893Y002964D01*
X019711Y002964D02*
X019317Y002964D01*
X019458Y003122D02*
X019711Y003122D01*
X019711Y003281D02*
X019458Y003281D01*
X019458Y003439D02*
X019711Y003439D01*
X017268Y003756D02*
X012007Y003756D01*
X011848Y003598D02*
X012694Y003598D01*
X012711Y003614D02*
X012271Y003175D01*
X012271Y002944D01*
X013511Y002944D01*
X013511Y003614D01*
X012711Y003614D01*
X013511Y003598D02*
X013671Y003598D01*
X013671Y003614D02*
X014472Y003614D01*
X014911Y003175D01*
X014911Y002944D01*
X013671Y002944D01*
X013671Y003614D01*
X013671Y003439D02*
X013511Y003439D01*
X012536Y003439D02*
X011689Y003439D01*
X011011Y003439D02*
X010974Y003439D01*
X010852Y003281D02*
X009659Y003281D01*
X009817Y003122D02*
X010694Y003122D01*
X011372Y003122D02*
X012271Y003122D01*
X012377Y003281D02*
X011531Y003281D01*
X011214Y002964D02*
X012271Y002964D01*
X011801Y002643D02*
X011554Y002889D01*
X011207Y002889D01*
X010961Y002643D01*
X010961Y002296D01*
X011207Y002050D01*
X011554Y002050D01*
X011801Y002296D01*
X011801Y002643D01*
X011798Y002646D02*
X012271Y002646D01*
X012271Y002553D02*
X012711Y002114D01*
X013511Y002114D01*
X013511Y002784D01*
X012271Y002784D01*
X012271Y002553D01*
X012337Y002488D02*
X011801Y002488D01*
X010961Y002488D02*
X010801Y002488D01*
X010801Y002329D02*
X010961Y002329D01*
X011801Y002329D02*
X012495Y002329D01*
X012654Y002171D02*
X011676Y002171D01*
X011085Y002171D02*
X010676Y002171D01*
X010085Y002171D02*
X009704Y002171D01*
X009381Y002171D02*
X009380Y002171D01*
X009380Y002030D02*
X009198Y002030D01*
X008941Y002287D01*
X008941Y002469D01*
X009380Y002469D01*
X009380Y002030D01*
X009057Y002171D02*
X002862Y002171D01*
X002862Y002012D02*
X022276Y002012D01*
X022276Y002171D02*
X014529Y002171D01*
X014687Y002329D02*
X022334Y002329D01*
X024486Y002012D02*
X024598Y002012D01*
X024486Y001854D02*
X024757Y001854D01*
X024463Y001695D02*
X062395Y001695D01*
X062395Y001537D02*
X024397Y001537D01*
X022364Y001537D02*
X002862Y001537D01*
X002862Y001695D02*
X022298Y001695D01*
X022276Y001854D02*
X002862Y001854D01*
X002862Y002329D02*
X008941Y002329D01*
X009380Y002329D02*
X009381Y002329D01*
X009821Y002329D02*
X009931Y002329D01*
X009381Y002470D02*
X005881Y002470D01*
X005131Y003220D01*
X005131Y003720D01*
X005571Y003720D01*
X005571Y003902D01*
X005313Y004159D01*
X005131Y004159D01*
X005131Y003720D01*
X005130Y003720D02*
X005130Y004159D01*
X004428Y004159D01*
X004171Y003902D01*
X004171Y003720D01*
X005130Y003720D01*
X005130Y003719D02*
X004171Y003719D01*
X004171Y003537D01*
X004428Y003280D01*
X005130Y003280D01*
X005130Y003719D01*
X005131Y003719D02*
X005131Y003280D01*
X005313Y003280D01*
X005571Y003537D01*
X005571Y003719D01*
X005131Y003719D01*
X005130Y003756D02*
X005131Y003756D01*
X005130Y003598D02*
X005131Y003598D01*
X005571Y003598D02*
X005961Y003598D01*
X005961Y003653D02*
X005961Y002786D01*
X006207Y002540D01*
X006554Y002540D01*
X006801Y002786D01*
X006801Y003653D01*
X006554Y003899D01*
X006207Y003899D01*
X005961Y003653D01*
X006063Y003756D02*
X005571Y003756D01*
X005557Y003915D02*
X008346Y003915D01*
X008187Y004073D02*
X005399Y004073D01*
X005131Y004073D02*
X005130Y004073D01*
X004342Y004073D02*
X002862Y004073D01*
X002862Y004232D02*
X008029Y004232D01*
X008708Y004232D02*
X008988Y004232D01*
X008988Y004073D02*
X008866Y004073D01*
X009083Y004390D02*
X008549Y004390D01*
X007870Y004390D02*
X005395Y004390D01*
X005304Y004300D02*
X005551Y004546D01*
X005551Y004893D01*
X005304Y005139D01*
X004437Y005139D01*
X004191Y004893D01*
X004191Y004546D01*
X004437Y004300D01*
X005304Y004300D01*
X004346Y004390D02*
X002862Y004390D01*
X002862Y004549D02*
X004191Y004549D01*
X004191Y004707D02*
X002862Y004707D01*
X002862Y004866D02*
X004191Y004866D01*
X004322Y005025D02*
X002862Y005025D01*
X002862Y005183D02*
X007078Y005183D01*
X007236Y005025D02*
X005419Y005025D01*
X005551Y004866D02*
X007395Y004866D01*
X008073Y004866D02*
X009266Y004866D01*
X009356Y004775D02*
X010889Y004775D01*
X011273Y005159D01*
X011273Y005701D01*
X010889Y006085D01*
X009356Y006085D01*
X008973Y005701D01*
X008973Y005159D01*
X009356Y004775D01*
X009241Y004549D02*
X008390Y004549D01*
X008232Y004707D02*
X012279Y004707D01*
X012121Y004549D02*
X011035Y004549D01*
X011194Y004390D02*
X011962Y004390D01*
X011804Y004232D02*
X011288Y004232D01*
X011288Y004073D02*
X011645Y004073D01*
X012324Y004073D02*
X012674Y004073D01*
X012516Y004232D02*
X012482Y004232D01*
X012165Y003915D02*
X017426Y003915D01*
X017158Y003598D02*
X014488Y003598D01*
X014647Y003439D02*
X017158Y003439D01*
X017158Y003281D02*
X014805Y003281D01*
X014911Y003122D02*
X017158Y003122D01*
X017298Y002964D02*
X014911Y002964D01*
X013671Y002964D02*
X013511Y002964D01*
X013631Y002970D02*
X012381Y001720D01*
X010131Y001720D01*
X009381Y002470D01*
X009380Y002488D02*
X009381Y002488D01*
X008941Y002488D02*
X002862Y002488D01*
X002862Y002646D02*
X006100Y002646D01*
X005961Y002805D02*
X002862Y002805D01*
X002862Y002964D02*
X005961Y002964D01*
X006801Y002964D02*
X007971Y002964D01*
X008811Y002964D02*
X009297Y002964D01*
X009976Y002964D02*
X010535Y002964D01*
X011055Y002805D02*
X011122Y002805D01*
X010964Y002646D02*
X010897Y002646D01*
X011639Y002805D02*
X017456Y002805D01*
X019159Y002805D02*
X019711Y002805D01*
X022561Y003598D02*
X023013Y003598D01*
X022854Y003756D02*
X022458Y003756D01*
X027087Y004073D02*
X037674Y004073D01*
X037758Y003990D02*
X039503Y003990D01*
X039931Y004417D01*
X039931Y005022D01*
X039503Y005449D01*
X037758Y005449D01*
X037331Y005022D01*
X037331Y004417D01*
X037758Y003990D01*
X037516Y004232D02*
X027245Y004232D01*
X027404Y004390D02*
X030837Y004390D01*
X030948Y004280D02*
X030691Y004537D01*
X030691Y004719D01*
X031130Y004719D01*
X031130Y004280D01*
X030948Y004280D01*
X031131Y004280D02*
X031313Y004280D01*
X031571Y004537D01*
X031571Y004719D01*
X031131Y004719D01*
X031131Y004280D01*
X031130Y004390D02*
X031131Y004390D01*
X031424Y004390D02*
X037357Y004390D01*
X037331Y004549D02*
X031571Y004549D01*
X031571Y004707D02*
X037331Y004707D01*
X037331Y004866D02*
X031571Y004866D01*
X031131Y004866D02*
X031130Y004866D01*
X030948Y005159D02*
X030691Y004902D01*
X030691Y004720D01*
X031130Y004720D01*
X031130Y005159D01*
X030948Y005159D01*
X030813Y005025D02*
X027428Y005025D01*
X027269Y005183D02*
X037492Y005183D01*
X037333Y005025D02*
X031448Y005025D01*
X031131Y005025D02*
X031130Y005025D01*
X030691Y004866D02*
X027431Y004866D01*
X027431Y004707D02*
X030691Y004707D01*
X030691Y004549D02*
X027431Y004549D01*
X024833Y005025D02*
X021665Y005025D01*
X021506Y005183D02*
X024992Y005183D01*
X025150Y005342D02*
X021348Y005342D01*
X020669Y005342D02*
X018881Y005342D01*
X018631Y005342D02*
X018630Y005342D01*
X018347Y005659D02*
X017690Y005659D01*
X018914Y005659D02*
X019837Y005659D01*
X020714Y005976D02*
X021711Y005976D01*
X021711Y006134D02*
X020555Y006134D01*
X020551Y006610D02*
X021711Y006610D01*
X021826Y006769D02*
X020435Y006769D01*
X019051Y007086D02*
X025039Y007086D01*
X025197Y007244D02*
X018950Y007244D01*
X018311Y007244D02*
X014564Y007244D01*
X014503Y007305D02*
X012758Y007305D01*
X012331Y006877D01*
X012331Y006273D01*
X012758Y005845D01*
X014503Y005845D01*
X014931Y006273D01*
X014931Y006877D01*
X014503Y007305D01*
X014722Y007086D02*
X018211Y007086D01*
X018211Y006927D02*
X014881Y006927D01*
X014931Y006769D02*
X015957Y006769D01*
X015799Y006610D02*
X014931Y006610D01*
X014931Y006451D02*
X015640Y006451D01*
X015579Y006293D02*
X014931Y006293D01*
X014792Y006134D02*
X015579Y006134D01*
X015579Y005976D02*
X014634Y005976D01*
X015610Y005817D02*
X011157Y005817D01*
X011273Y005659D02*
X015768Y005659D01*
X015927Y005500D02*
X011273Y005500D01*
X011273Y005342D02*
X012650Y005342D01*
X012492Y005183D02*
X011273Y005183D01*
X011138Y005025D02*
X012333Y005025D01*
X012331Y004866D02*
X010980Y004866D01*
X009107Y005025D02*
X007915Y005025D01*
X007756Y005183D02*
X008973Y005183D01*
X008973Y005342D02*
X007598Y005342D01*
X006919Y005342D02*
X005347Y005342D01*
X005304Y005300D02*
X005551Y005546D01*
X005551Y005893D01*
X005304Y006139D01*
X004437Y006139D01*
X004191Y005893D01*
X004191Y005546D01*
X004437Y005300D01*
X005304Y005300D01*
X005505Y005500D02*
X006761Y005500D01*
X007281Y005659D02*
X008087Y005659D01*
X008674Y005659D02*
X008973Y005659D01*
X008973Y005500D02*
X007439Y005500D01*
X006087Y005659D02*
X005551Y005659D01*
X005551Y005817D02*
X005961Y005817D01*
X007122Y005817D02*
X007961Y005817D01*
X008801Y005817D02*
X009089Y005817D01*
X009247Y005976D02*
X008801Y005976D01*
X008801Y006134D02*
X012469Y006134D01*
X012627Y005976D02*
X010998Y005976D01*
X007961Y005976D02*
X006964Y005976D01*
X006805Y006134D02*
X007961Y006134D01*
X005961Y006134D02*
X005310Y006134D01*
X005468Y005976D02*
X005961Y005976D01*
X005961Y006293D02*
X002862Y006293D01*
X002862Y006134D02*
X004431Y006134D01*
X004273Y005976D02*
X002862Y005976D01*
X002862Y005817D02*
X004191Y005817D01*
X004191Y005659D02*
X002862Y005659D01*
X002862Y005500D02*
X004236Y005500D01*
X004394Y005342D02*
X002862Y005342D01*
X005551Y004707D02*
X007553Y004707D01*
X007712Y004549D02*
X005551Y004549D01*
X005131Y003915D02*
X005130Y003915D01*
X004184Y003915D02*
X002862Y003915D01*
X002862Y003756D02*
X004171Y003756D01*
X004171Y003598D02*
X002862Y003598D01*
X002862Y003439D02*
X004269Y003439D01*
X005130Y003439D02*
X005131Y003439D01*
X005472Y003439D02*
X005961Y003439D01*
X006801Y003439D02*
X007971Y003439D01*
X008811Y003439D02*
X008822Y003439D01*
X008811Y003281D02*
X008980Y003281D01*
X009139Y003122D02*
X008811Y003122D01*
X007971Y003122D02*
X006801Y003122D01*
X006801Y003281D02*
X007971Y003281D01*
X005961Y003281D02*
X005314Y003281D01*
X005131Y003281D02*
X005130Y003281D01*
X004427Y003281D02*
X002862Y003281D01*
X002862Y003122D02*
X005961Y003122D01*
X006801Y002805D02*
X007971Y002805D01*
X008110Y002646D02*
X006661Y002646D01*
X008671Y002646D02*
X008941Y002646D01*
X008811Y002805D02*
X009094Y002805D01*
X009380Y002805D02*
X009381Y002805D01*
X009380Y002646D02*
X009381Y002646D01*
X013511Y002646D02*
X013671Y002646D01*
X013671Y002488D02*
X013511Y002488D01*
X013511Y002329D02*
X013671Y002329D01*
X013671Y002171D02*
X013511Y002171D01*
X013591Y002864D02*
X013631Y002903D01*
X013631Y002970D01*
X013671Y003122D02*
X013511Y003122D01*
X013511Y003281D02*
X013671Y003281D01*
X011169Y003598D02*
X011133Y003598D01*
X011288Y003756D02*
X011328Y003756D01*
X011288Y003915D02*
X011486Y003915D01*
X008073Y003756D02*
X006698Y003756D01*
X006801Y003598D02*
X007971Y003598D01*
X027111Y005342D02*
X030914Y005342D01*
X031347Y005342D02*
X037650Y005342D01*
X039611Y005342D02*
X043914Y005342D01*
X044347Y005342D02*
X046419Y005342D01*
X047098Y005342D02*
X049150Y005342D01*
X048992Y005183D02*
X047256Y005183D01*
X047415Y005025D02*
X048833Y005025D01*
X046895Y004866D02*
X044571Y004866D01*
X044131Y004866D02*
X044130Y004866D01*
X043948Y005159D02*
X043691Y004902D01*
X043691Y004720D01*
X044130Y004720D01*
X044130Y005159D01*
X043948Y005159D01*
X043813Y005025D02*
X039928Y005025D01*
X039769Y005183D02*
X046578Y005183D01*
X046736Y005025D02*
X044448Y005025D01*
X044131Y005025D02*
X044130Y005025D01*
X043691Y004866D02*
X039931Y004866D01*
X039931Y004707D02*
X043691Y004707D01*
X043691Y004719D02*
X043691Y004537D01*
X043948Y004280D01*
X044130Y004280D01*
X044130Y004719D01*
X043691Y004719D01*
X043691Y004549D02*
X039931Y004549D01*
X039904Y004390D02*
X043837Y004390D01*
X044130Y004390D02*
X044131Y004390D01*
X044131Y004280D02*
X044313Y004280D01*
X044571Y004537D01*
X044571Y004719D01*
X044131Y004719D01*
X044131Y004280D01*
X044424Y004390D02*
X048857Y004390D01*
X049016Y004232D02*
X039745Y004232D01*
X039587Y004073D02*
X049174Y004073D01*
X048208Y003756D02*
X051551Y003756D01*
X051421Y003598D02*
X050988Y003598D01*
X050972Y003614D02*
X050171Y003614D01*
X050171Y002944D01*
X051411Y002944D01*
X051411Y003175D01*
X050972Y003614D01*
X050171Y003598D02*
X050011Y003598D01*
X050011Y003614D02*
X049211Y003614D01*
X048771Y003175D01*
X048771Y002944D01*
X050011Y002944D01*
X050011Y003614D01*
X050011Y003439D02*
X050171Y003439D01*
X051147Y003439D02*
X051421Y003439D01*
X051421Y003281D02*
X051305Y003281D01*
X051411Y003122D02*
X051421Y003122D01*
X051411Y002964D02*
X051542Y002964D01*
X050171Y002964D02*
X050011Y002964D01*
X050011Y003122D02*
X050171Y003122D01*
X050171Y003281D02*
X050011Y003281D01*
X049036Y003439D02*
X048311Y003439D01*
X047471Y003439D02*
X046301Y003439D01*
X045461Y003439D02*
X039647Y003439D01*
X039805Y003281D02*
X045461Y003281D01*
X045461Y003122D02*
X039911Y003122D01*
X039911Y003175D02*
X039472Y003614D01*
X038671Y003614D01*
X038671Y002944D01*
X039911Y002944D01*
X039911Y003175D01*
X039911Y002964D02*
X045461Y002964D01*
X046301Y002964D02*
X047471Y002964D01*
X048311Y002964D02*
X048771Y002964D01*
X048771Y003122D02*
X048311Y003122D01*
X048311Y003281D02*
X048877Y003281D01*
X047471Y003281D02*
X046301Y003281D01*
X046301Y003122D02*
X047471Y003122D01*
X047471Y003598D02*
X046301Y003598D01*
X046198Y003756D02*
X047573Y003756D01*
X048311Y003598D02*
X049194Y003598D01*
X045563Y003756D02*
X035458Y003756D01*
X035561Y003598D02*
X037694Y003598D01*
X037711Y003614D02*
X037271Y003175D01*
X037271Y002944D01*
X038511Y002944D01*
X038511Y003614D01*
X037711Y003614D01*
X038511Y003598D02*
X038671Y003598D01*
X038671Y003439D02*
X038511Y003439D01*
X037536Y003439D02*
X035561Y003439D01*
X035561Y003281D02*
X037377Y003281D01*
X037271Y003122D02*
X035561Y003122D01*
X035561Y002964D02*
X037271Y002964D01*
X038511Y002964D02*
X038671Y002964D01*
X038671Y003122D02*
X038511Y003122D01*
X038511Y003281D02*
X038671Y003281D01*
X039488Y003598D02*
X045461Y003598D01*
X044571Y004549D02*
X047212Y004549D01*
X047053Y004707D02*
X044571Y004707D01*
X044131Y004707D02*
X044130Y004707D01*
X044130Y004549D02*
X044131Y004549D01*
X032711Y005976D02*
X031468Y005976D01*
X031310Y006134D02*
X032711Y006134D01*
X040045Y007403D02*
X010436Y007403D01*
X010436Y007561D02*
X040026Y007561D01*
X040026Y007720D02*
X010436Y007720D01*
X010419Y007878D02*
X040026Y007878D01*
X040087Y008037D02*
X010354Y008037D01*
X010371Y007244D02*
X012697Y007244D01*
X012539Y007086D02*
X010305Y007086D01*
X010201Y006927D02*
X012380Y006927D01*
X012331Y006769D02*
X010042Y006769D01*
X009781Y006610D02*
X012331Y006610D01*
X008880Y006610D02*
X008801Y006610D01*
X008076Y006769D02*
X006685Y006769D01*
X006801Y006610D02*
X007961Y006610D01*
X031130Y004707D02*
X031131Y004707D01*
X031130Y004549D02*
X031131Y004549D01*
X038511Y002646D02*
X038671Y002646D01*
X038671Y002488D02*
X038511Y002488D01*
X038511Y002329D02*
X038671Y002329D01*
X037495Y002329D02*
X027187Y002329D01*
X039687Y002329D02*
X048995Y002329D01*
X050011Y002329D02*
X050171Y002329D01*
X051187Y002329D02*
X053858Y002329D01*
X055403Y002329D02*
X055892Y002329D01*
X056413Y002171D02*
X060845Y002171D01*
X061015Y002012D02*
X056254Y002012D01*
X056094Y001854D02*
X061398Y001854D01*
X061863Y001854D02*
X062395Y001854D01*
X062395Y002012D02*
X062246Y002012D01*
X060687Y002329D02*
X056572Y002329D01*
X050171Y002488D02*
X050011Y002488D01*
X050011Y002646D02*
X050171Y002646D01*
D17*
X055381Y004720D03*
X056631Y005220D03*
M02*
