G75*
G70*
%OFA0B0*%
%FSLAX24Y24*%
%IPPOS*%
%LPD*%
%AMOC8*
5,1,8,0,0,1.08239X$1,22.5*
%
%ADD10C,0.1330*%
%ADD11O,0.2060X0.1070*%
%ADD12O,0.0600X0.1120*%
%ADD13O,0.2360X0.1220*%
%ADD14C,0.0630*%
%ADD15C,0.1360*%
%ADD16O,0.1120X0.0600*%
%ADD17OC8,0.0600*%
%ADD18R,0.0474X0.0513*%
%ADD19C,0.0480*%
D10*
X041131Y007670D03*
X054631Y003120D03*
X023381Y001970D03*
X009331Y007620D03*
D11*
X016729Y006119D03*
X010123Y005430D03*
X010138Y004025D03*
X018308Y003375D03*
X052571Y003355D03*
X060516Y005410D03*
X053544Y006119D03*
D12*
X047881Y006220D03*
X045881Y006220D03*
X035131Y006220D03*
X033131Y006220D03*
X022131Y006220D03*
X020131Y006220D03*
X008381Y006220D03*
X006381Y006220D03*
X006381Y003220D03*
X008391Y003220D03*
X020131Y003220D03*
X022141Y003220D03*
X033131Y003220D03*
X035141Y003220D03*
X045881Y003220D03*
X047891Y003220D03*
D13*
X050091Y002864D03*
X038591Y002864D03*
X038631Y004720D03*
X050131Y004720D03*
X050131Y006575D03*
X038631Y006575D03*
X026131Y006575D03*
X013631Y006575D03*
X013631Y004720D03*
X013591Y002864D03*
X026091Y002864D03*
X026131Y004720D03*
D14*
X058131Y004220D03*
X059131Y004720D03*
X058131Y005220D03*
X059131Y005720D03*
X058131Y006220D03*
X059131Y003720D03*
D15*
X061631Y002970D03*
X061631Y006970D03*
D16*
X004871Y005720D03*
X004871Y004720D03*
X004871Y003720D03*
D17*
X009381Y002470D03*
X010381Y002470D03*
X011381Y002470D03*
X018631Y004970D03*
X018631Y005970D03*
X018631Y006970D03*
X031131Y006720D03*
X031131Y005720D03*
X031131Y004720D03*
X044131Y004720D03*
X044131Y005720D03*
X044131Y006720D03*
D18*
X058796Y006720D03*
X059465Y006720D03*
X007215Y004720D03*
X006546Y004720D03*
D19*
X055381Y004720D03*
X056631Y005220D03*
M02*
