G75*
G70*
%OFA0B0*%
%FSLAX24Y24*%
%IPPOS*%
%LPD*%
%AMOC8*
5,1,8,0,0,1.08239X$1,22.5*
%
%ADD10R,0.0217X0.0472*%
%ADD11R,0.0394X0.0433*%
%ADD12O,0.1040X0.0520*%
%ADD13R,0.0866X0.0236*%
%ADD14R,0.0433X0.0394*%
%ADD15C,0.0160*%
%ADD16C,0.0360*%
D10*
X008920Y009839D03*
X008546Y009839D03*
X008172Y009839D03*
X008172Y008815D03*
X008920Y008815D03*
D11*
X008143Y010802D03*
X008802Y011034D03*
X009472Y011034D03*
X008143Y011471D03*
X012290Y010844D03*
X012290Y010174D03*
D12*
X011047Y009807D03*
X011047Y008807D03*
X013547Y008841D03*
X013547Y009841D03*
X013547Y010841D03*
X011047Y010807D03*
D13*
X014630Y010827D03*
X014630Y010327D03*
X014630Y009827D03*
X014630Y009327D03*
X016677Y009327D03*
X016677Y009827D03*
X016677Y010327D03*
X016677Y010827D03*
D14*
X010127Y010655D03*
X010127Y009986D03*
X010127Y009475D03*
X010127Y008806D03*
D15*
X009097Y008307D02*
X008920Y008484D01*
X008920Y008815D01*
X009467Y008807D02*
X009467Y008457D01*
X009317Y008307D01*
X009947Y008307D01*
X010127Y008487D01*
X010127Y008806D01*
X010127Y008807D01*
X010127Y008806D02*
X011317Y008806D01*
X011317Y008807D01*
X011307Y008807D01*
X011317Y008807D02*
X011317Y008817D01*
X011807Y009307D02*
X011807Y011007D01*
X011287Y011517D01*
X009047Y011517D01*
X008797Y011257D01*
X008797Y010697D01*
X008802Y010702D01*
X008802Y010752D01*
X008802Y011034D01*
X008802Y010752D02*
X008920Y010634D01*
X008920Y009839D01*
X008546Y009839D02*
X008546Y010288D01*
X008547Y010387D01*
X008547Y010617D01*
X008363Y010801D01*
X008143Y010802D01*
X007917Y010307D02*
X008177Y010047D01*
X008177Y009844D01*
X008172Y009839D01*
X008307Y009407D02*
X010047Y009407D01*
X010127Y009487D01*
X010127Y009475D01*
X010127Y009487D02*
X010127Y009986D01*
X010116Y009986D01*
X010107Y009977D01*
X009807Y009977D01*
X009562Y010222D01*
X009472Y010307D01*
X009527Y010257D01*
X009472Y010307D02*
X009472Y011034D01*
X010127Y010655D02*
X010415Y010655D01*
X010567Y010807D01*
X011307Y010807D01*
X011317Y010797D01*
X012290Y010844D02*
X013274Y010844D01*
X013287Y010857D01*
X013287Y010841D01*
X013273Y010841D01*
X013287Y010827D01*
X014630Y010827D01*
X014630Y010327D02*
X015647Y010327D01*
X014630Y009327D02*
X012697Y009327D01*
X013187Y008837D01*
X013291Y008837D01*
X013287Y008841D01*
X013291Y008837D02*
X013297Y008837D01*
X012697Y009327D02*
X012287Y009737D01*
X012287Y010167D01*
X012290Y010170D01*
X012290Y010174D01*
X013267Y010847D02*
X013273Y010841D01*
X010127Y010007D02*
X010127Y009986D01*
X008307Y009407D02*
X008172Y009272D01*
X008172Y008815D01*
X009097Y008307D02*
X009317Y008307D01*
X008481Y011471D02*
X008143Y011471D01*
X008481Y011471D02*
X008657Y011647D01*
D16*
X008657Y011647D03*
X008547Y010387D03*
X007917Y010307D03*
X009467Y008807D03*
X011807Y009307D03*
X015647Y010327D03*
M02*
