G75*
G70*
%OFA0B0*%
%FSLAX24Y24*%
%IPPOS*%
%LPD*%
%AMOC8*
5,1,8,0,0,1.08239X$1,22.5*
%
%ADD10O,0.1040X0.0520*%
%ADD11C,0.0160*%
%ADD12C,0.0360*%
D10*
X013547Y010841D03*
X013547Y009841D03*
X013547Y008841D03*
X011047Y008807D03*
X011047Y009807D03*
X011047Y010807D03*
D11*
X007307Y009068D02*
X007307Y007807D01*
X017307Y007807D01*
X017307Y011807D01*
X008959Y011807D01*
X008997Y011715D01*
X008997Y011579D01*
X008945Y011454D01*
X008850Y011359D01*
X008725Y011307D01*
X008646Y011307D01*
X007986Y010647D01*
X008110Y010595D01*
X008205Y010500D01*
X008257Y010375D01*
X008257Y010313D01*
X008544Y010037D01*
X010423Y010037D01*
X010613Y010227D01*
X011378Y010227D01*
X011718Y010567D01*
X011916Y010567D01*
X012967Y010567D01*
X012867Y010667D01*
X012867Y011015D01*
X013113Y011261D01*
X013981Y011261D01*
X014165Y011077D01*
X016086Y011077D01*
X016227Y010936D01*
X016227Y010936D01*
X016426Y010737D01*
X016426Y010737D01*
X016567Y010596D01*
X016567Y009808D01*
X016426Y009667D01*
X015826Y009067D01*
X015628Y009067D01*
X014203Y009067D01*
X014247Y009023D01*
X014247Y008841D01*
X013287Y008841D01*
X013287Y009067D01*
X013287Y009067D01*
X013287Y008841D01*
X012956Y008841D01*
X012956Y008841D01*
X013287Y008841D01*
X013287Y008837D01*
X016837Y008837D01*
X017307Y009307D01*
X017307Y010307D01*
X016307Y011307D01*
X011827Y011307D01*
X011317Y010797D01*
X011327Y010797D01*
X011317Y010807D01*
X010757Y010807D01*
X010337Y010387D01*
X008547Y010387D01*
X008257Y010319D02*
X011470Y010319D01*
X011489Y010367D02*
X011307Y010367D01*
X010605Y010367D01*
X010347Y010625D01*
X010347Y010807D01*
X011307Y010807D01*
X011307Y010367D01*
X011307Y010807D01*
X011747Y010807D01*
X011747Y010625D01*
X011489Y010367D01*
X011600Y010478D02*
X011629Y010478D01*
X011817Y010327D02*
X011297Y009807D01*
X011307Y009807D01*
X011297Y009797D01*
X008447Y009797D01*
X007917Y010307D01*
X007924Y009967D02*
X008279Y009625D01*
X008348Y009557D01*
X010443Y009557D01*
X010613Y009387D01*
X011472Y009387D01*
X011467Y009375D01*
X011467Y009239D01*
X011472Y009227D01*
X010613Y009227D01*
X010367Y008981D01*
X010367Y008633D01*
X010613Y008387D01*
X011481Y008387D01*
X011661Y008567D01*
X012488Y008567D01*
X012686Y008567D01*
X012758Y008638D01*
X012758Y008638D01*
X012827Y008708D01*
X012827Y008709D01*
X012847Y008730D01*
X012847Y008659D01*
X013105Y008401D01*
X013287Y008401D01*
X013287Y008841D01*
X013287Y008401D01*
X013989Y008401D01*
X014247Y008659D01*
X014247Y008841D01*
X013287Y008841D01*
X013287Y008893D02*
X013287Y008893D01*
X013287Y009051D02*
X013287Y009051D01*
X013077Y009307D02*
X015727Y009307D01*
X016327Y009907D01*
X016327Y010497D01*
X015987Y010837D01*
X013277Y010837D01*
X013273Y010841D01*
X013287Y010841D01*
X013273Y010841D02*
X013267Y010847D01*
X012964Y011112D02*
X011624Y011112D01*
X011747Y010989D02*
X011489Y011247D01*
X011307Y011247D01*
X010605Y011247D01*
X010347Y010989D01*
X010347Y010807D01*
X011307Y010807D01*
X011307Y011247D01*
X011307Y010807D01*
X011747Y010807D01*
X011747Y010989D01*
X011747Y010954D02*
X012867Y010954D01*
X012867Y010795D02*
X011747Y010795D01*
X011747Y010636D02*
X012897Y010636D01*
X011817Y010327D02*
X015647Y010327D01*
X016368Y010795D02*
X017307Y010795D01*
X017307Y010636D02*
X016527Y010636D01*
X016567Y010478D02*
X017307Y010478D01*
X017307Y010319D02*
X016567Y010319D01*
X016567Y010161D02*
X017307Y010161D01*
X017307Y010002D02*
X016567Y010002D01*
X016567Y009844D02*
X017307Y009844D01*
X017307Y009685D02*
X016445Y009685D01*
X016286Y009527D02*
X017307Y009527D01*
X017307Y009368D02*
X016128Y009368D01*
X015969Y009210D02*
X017307Y009210D01*
X017307Y009051D02*
X014219Y009051D01*
X014247Y008893D02*
X017307Y008893D01*
X017307Y008734D02*
X014247Y008734D01*
X014164Y008575D02*
X017307Y008575D01*
X017307Y008417D02*
X014005Y008417D01*
X013287Y008417D02*
X013287Y008417D01*
X013287Y008575D02*
X013287Y008575D01*
X013287Y008734D02*
X013287Y008734D01*
X013089Y008417D02*
X011511Y008417D01*
X011317Y008807D02*
X012587Y008807D01*
X013077Y009307D01*
X013287Y009841D02*
X012341Y009841D01*
X011807Y009307D01*
X011467Y009368D02*
X007777Y009368D01*
X007777Y009276D02*
X007777Y009997D01*
X007849Y009967D01*
X007924Y009967D01*
X008052Y009844D02*
X007777Y009844D01*
X007777Y009685D02*
X008217Y009685D01*
X007777Y009527D02*
X010474Y009527D01*
X010596Y009210D02*
X007844Y009210D01*
X007777Y009276D02*
X008006Y009047D01*
X009226Y009047D01*
X009274Y009095D01*
X009399Y009147D01*
X009535Y009147D01*
X009660Y009095D01*
X009755Y009000D01*
X009807Y008875D01*
X009807Y008739D01*
X009755Y008614D01*
X009660Y008519D01*
X009535Y008467D01*
X009399Y008467D01*
X009274Y008519D01*
X009226Y008567D01*
X007808Y008567D01*
X007667Y008708D01*
X007307Y009068D01*
X007307Y009051D02*
X007324Y009051D01*
X007307Y008893D02*
X007482Y008893D01*
X007641Y008734D02*
X007307Y008734D01*
X007307Y008575D02*
X007799Y008575D01*
X007907Y008807D02*
X009467Y008807D01*
X009230Y009051D02*
X008002Y009051D01*
X007907Y008807D02*
X007537Y009177D01*
X007537Y010537D01*
X008647Y011647D01*
X008657Y011647D01*
X008920Y011429D02*
X017307Y011429D01*
X017307Y011588D02*
X008997Y011588D01*
X008984Y011746D02*
X017307Y011746D01*
X017307Y011271D02*
X008610Y011271D01*
X008451Y011112D02*
X010470Y011112D01*
X010347Y010954D02*
X008293Y010954D01*
X008134Y010795D02*
X010347Y010795D01*
X010347Y010636D02*
X008010Y010636D01*
X008214Y010478D02*
X010494Y010478D01*
X010547Y010161D02*
X008415Y010161D01*
X009704Y009051D02*
X010437Y009051D01*
X010367Y008893D02*
X009800Y008893D01*
X009805Y008734D02*
X010367Y008734D01*
X010425Y008575D02*
X009716Y008575D01*
X010583Y008417D02*
X007307Y008417D01*
X007307Y008258D02*
X017307Y008258D01*
X017307Y008100D02*
X007307Y008100D01*
X007307Y007941D02*
X017307Y007941D01*
X012930Y008575D02*
X012695Y008575D01*
X011307Y010478D02*
X011307Y010478D01*
X011307Y010636D02*
X011307Y010636D01*
X011307Y010795D02*
X011307Y010795D01*
X011307Y010954D02*
X011307Y010954D01*
X011307Y011112D02*
X011307Y011112D01*
X014130Y011112D02*
X017307Y011112D01*
X017307Y010954D02*
X016210Y010954D01*
D12*
X015647Y010327D03*
X011807Y009307D03*
X009467Y008807D03*
X007917Y010307D03*
X008547Y010387D03*
X008657Y011647D03*
M02*
