G75*
G70*
%OFA0B0*%
%FSLAX24Y24*%
%IPPOS*%
%LPD*%
%AMOC8*
5,1,8,0,0,1.08239X$1,22.5*
%
%ADD10R,0.0394X0.0433*%
%ADD11O,0.1200X0.0600*%
%ADD12C,0.0520*%
%ADD13R,0.0236X0.0866*%
%ADD14C,0.0160*%
%ADD15C,0.0400*%
D10*
X008480Y005374D03*
X007811Y005374D03*
X007230Y005374D03*
X006561Y005374D03*
X003796Y003609D03*
X003796Y002939D03*
D11*
X004996Y005774D03*
X004996Y006774D03*
X004996Y007774D03*
X010496Y007774D03*
X010496Y006774D03*
X010496Y005774D03*
D12*
X010696Y002774D03*
X009696Y002774D03*
X011696Y002774D03*
X007546Y002774D03*
X006546Y002774D03*
X005546Y002774D03*
D13*
X001546Y002250D03*
X002046Y002250D03*
X002546Y002250D03*
X003046Y002250D03*
X003046Y004297D03*
X002546Y004297D03*
X002046Y004297D03*
X001546Y004297D03*
D14*
X001546Y003724D01*
X001746Y003524D01*
X003796Y003524D01*
X003796Y003609D01*
X004711Y003609D01*
X005546Y002774D01*
X005496Y003524D02*
X006646Y003524D01*
X007246Y004124D01*
X007230Y004139D01*
X007230Y005374D01*
X007796Y005374D02*
X007846Y005324D01*
X007846Y004224D01*
X007246Y004124D02*
X009346Y002024D01*
X009946Y002024D01*
X010696Y002774D01*
X011696Y002774D01*
X009696Y002774D02*
X009696Y004824D01*
X009146Y005374D01*
X008480Y005374D01*
X007811Y005374D02*
X007796Y005374D01*
X007811Y005374D02*
X007811Y005489D01*
X009096Y006774D01*
X010196Y006774D01*
X006561Y005374D02*
X006046Y005374D01*
X003796Y003609D02*
X003796Y007224D01*
X004346Y007774D01*
X005296Y007774D01*
X003046Y006774D02*
X003046Y004297D01*
X002546Y004297D02*
X002546Y005374D01*
X002446Y004924D02*
X002146Y004924D01*
X002046Y004824D01*
X002046Y004297D01*
X002546Y004297D02*
X002546Y004824D01*
X002446Y004924D01*
X002546Y003074D02*
X002546Y002250D01*
X003046Y002250D02*
X003046Y002774D01*
X003246Y002974D01*
X003796Y002974D01*
X003796Y002939D01*
X003796Y002274D01*
X002046Y002250D02*
X002046Y003074D01*
X001546Y003074D02*
X001546Y002250D01*
D15*
X001546Y003074D03*
X002046Y003074D03*
X002546Y003074D03*
X003796Y002274D03*
X005496Y003524D03*
X007846Y004224D03*
X006046Y005374D03*
X003046Y006774D03*
X002546Y005374D03*
M02*
