G75*
G70*
%OFA0B0*%
%FSLAX24Y24*%
%IPPOS*%
%LPD*%
%AMOC8*
5,1,8,0,0,1.08239X$1,22.5*
%
%ADD10O,0.1200X0.0600*%
%ADD11C,0.0520*%
%ADD12C,0.0160*%
%ADD13C,0.0400*%
D10*
X010496Y007774D03*
X010496Y006774D03*
X010496Y005774D03*
X004996Y005774D03*
X004996Y006774D03*
X004996Y007774D03*
D11*
X005546Y002774D03*
X006546Y002774D03*
X007546Y002774D03*
X009696Y002774D03*
X010696Y002774D03*
X011696Y002774D03*
D12*
X001228Y002901D02*
X001228Y001769D01*
X013285Y001769D01*
X013120Y001837D01*
X012809Y002148D01*
X012641Y002554D01*
X012641Y002994D01*
X012809Y003400D01*
X013120Y003711D01*
X013526Y003879D01*
X013966Y003879D01*
X014260Y003757D01*
X014260Y008279D01*
X008207Y008279D01*
X008372Y008211D01*
X008683Y007900D01*
X008851Y007494D01*
X008851Y007054D01*
X008683Y006648D01*
X008372Y006337D01*
X007966Y006169D01*
X007526Y006169D01*
X007120Y006337D01*
X006809Y006648D01*
X006641Y007054D01*
X006641Y007494D01*
X006809Y007900D01*
X007120Y008211D01*
X007285Y008279D01*
X001228Y008279D01*
X001228Y003247D01*
X001241Y003278D01*
X001306Y003343D01*
X001306Y003974D01*
X001306Y004173D01*
X001506Y004373D01*
X001646Y004514D01*
X007627Y004514D01*
X007642Y004529D01*
X007774Y004584D01*
X007917Y004584D01*
X008050Y004529D01*
X008151Y004428D01*
X008206Y004295D01*
X008206Y004152D01*
X008151Y004020D01*
X008050Y003919D01*
X007917Y003864D01*
X007774Y003864D01*
X007642Y003919D01*
X007541Y004020D01*
X007535Y004034D01*
X001845Y004034D01*
X001786Y003974D01*
X001786Y003343D01*
X001796Y003333D01*
X001806Y003343D01*
X001806Y003373D01*
X002056Y003623D01*
X002196Y003764D01*
X005227Y003764D01*
X005292Y003829D01*
X005424Y003884D01*
X005567Y003884D01*
X005700Y003829D01*
X005801Y003728D01*
X005856Y003595D01*
X005856Y003452D01*
X005801Y003320D01*
X005700Y003219D01*
X005635Y003192D01*
X005784Y003130D01*
X005902Y003012D01*
X005966Y002857D01*
X005966Y002690D01*
X005902Y002536D01*
X005784Y002418D01*
X005774Y002414D01*
X005846Y002414D01*
X006126Y002693D01*
X006126Y002857D01*
X006190Y003012D01*
X006308Y003130D01*
X006462Y003194D01*
X006629Y003194D01*
X006784Y003130D01*
X006902Y003012D01*
X006966Y002857D01*
X006966Y002690D01*
X006902Y002536D01*
X006784Y002418D01*
X006629Y002354D01*
X006465Y002354D01*
X006045Y001934D01*
X005846Y001934D01*
X004846Y001934D01*
X004706Y002074D01*
X003946Y002834D01*
X002815Y002834D01*
X002750Y002769D01*
X002617Y002714D01*
X002474Y002714D01*
X002342Y002769D01*
X002296Y002815D01*
X002250Y002769D01*
X002117Y002714D01*
X001974Y002714D01*
X001842Y002769D01*
X001796Y002815D01*
X001750Y002769D01*
X001617Y002714D01*
X001474Y002714D01*
X001342Y002769D01*
X001241Y002870D01*
X001228Y002901D01*
X001228Y002884D02*
X001235Y002884D01*
X001228Y002725D02*
X001447Y002725D01*
X001645Y002725D02*
X001947Y002725D01*
X002145Y002725D02*
X002447Y002725D01*
X002645Y002725D02*
X004055Y002725D01*
X004214Y002567D02*
X001228Y002567D01*
X001228Y002408D02*
X004372Y002408D01*
X004531Y002249D02*
X001228Y002249D01*
X001228Y002091D02*
X004689Y002091D01*
X004946Y002174D02*
X005946Y002174D01*
X006546Y002774D01*
X006137Y002884D02*
X005955Y002884D01*
X005871Y003042D02*
X006220Y003042D01*
X006126Y002725D02*
X005966Y002725D01*
X005999Y002567D02*
X005915Y002567D01*
X006361Y002249D02*
X012767Y002249D01*
X012866Y002091D02*
X006202Y002091D01*
X006760Y002408D02*
X007289Y002408D01*
X007297Y002401D02*
X007458Y002334D01*
X007546Y002334D01*
X007633Y002334D01*
X007795Y002401D01*
X007919Y002525D01*
X007986Y002686D01*
X007986Y002774D01*
X007986Y002861D01*
X007919Y003023D01*
X007795Y003147D01*
X007633Y003214D01*
X007546Y003214D01*
X007546Y002774D01*
X007986Y002774D01*
X007546Y002774D01*
X007546Y002334D01*
X007546Y002774D01*
X007546Y003214D01*
X007458Y003214D01*
X007297Y003147D01*
X007173Y003023D01*
X007106Y002861D01*
X007106Y002774D01*
X007546Y002774D01*
X007106Y002774D01*
X007106Y002686D01*
X007173Y002525D01*
X007297Y002401D01*
X007155Y002567D02*
X006915Y002567D01*
X006966Y002725D02*
X007106Y002725D01*
X007115Y002884D02*
X006955Y002884D01*
X006871Y003042D02*
X007192Y003042D01*
X007427Y003201D02*
X005656Y003201D01*
X005817Y003359D02*
X012792Y003359D01*
X012727Y003201D02*
X007665Y003201D01*
X007546Y003201D02*
X007546Y003201D01*
X007546Y003042D02*
X007546Y003042D01*
X007546Y002884D02*
X007546Y002884D01*
X007546Y002725D02*
X007546Y002725D01*
X007546Y002567D02*
X007546Y002567D01*
X007546Y002408D02*
X007546Y002408D01*
X007802Y002408D02*
X009481Y002408D01*
X009458Y002418D02*
X009612Y002354D01*
X009779Y002354D01*
X009934Y002418D01*
X010052Y002536D01*
X010116Y002690D01*
X010116Y002857D01*
X010052Y003012D01*
X009934Y003130D01*
X009779Y003194D01*
X009612Y003194D01*
X009458Y003130D01*
X009340Y003012D01*
X009276Y002857D01*
X009276Y002690D01*
X009340Y002536D01*
X009458Y002418D01*
X009327Y002567D02*
X007936Y002567D01*
X007986Y002725D02*
X009276Y002725D01*
X009287Y002884D02*
X007977Y002884D01*
X007900Y003042D02*
X009370Y003042D01*
X010021Y003042D02*
X010370Y003042D01*
X010340Y003012D02*
X010276Y002857D01*
X010276Y002690D01*
X010340Y002536D01*
X010458Y002418D01*
X010612Y002354D01*
X010779Y002354D01*
X010934Y002418D01*
X011052Y002536D01*
X011116Y002690D01*
X011116Y002857D01*
X011052Y003012D01*
X010934Y003130D01*
X010779Y003194D01*
X010612Y003194D01*
X010458Y003130D01*
X010340Y003012D01*
X010287Y002884D02*
X010105Y002884D01*
X010116Y002725D02*
X010276Y002725D01*
X010327Y002567D02*
X010065Y002567D01*
X009910Y002408D02*
X010481Y002408D01*
X010910Y002408D02*
X011481Y002408D01*
X011458Y002418D02*
X011612Y002354D01*
X011779Y002354D01*
X011934Y002418D01*
X012052Y002536D01*
X012116Y002690D01*
X012116Y002857D01*
X012052Y003012D01*
X011934Y003130D01*
X011779Y003194D01*
X011612Y003194D01*
X011458Y003130D01*
X011340Y003012D01*
X011276Y002857D01*
X011276Y002690D01*
X011340Y002536D01*
X011458Y002418D01*
X011327Y002567D02*
X011065Y002567D01*
X011116Y002725D02*
X011276Y002725D01*
X011287Y002884D02*
X011105Y002884D01*
X011021Y003042D02*
X011370Y003042D01*
X012021Y003042D02*
X012661Y003042D01*
X012641Y002884D02*
X012105Y002884D01*
X012116Y002725D02*
X012641Y002725D01*
X012641Y002567D02*
X012065Y002567D01*
X011910Y002408D02*
X012701Y002408D01*
X013025Y001932D02*
X001228Y001932D01*
X001228Y001774D02*
X013273Y001774D01*
X012927Y003518D02*
X005856Y003518D01*
X005822Y003676D02*
X013086Y003676D01*
X013420Y003835D02*
X005685Y003835D01*
X005496Y003524D02*
X002296Y003524D01*
X002046Y003274D01*
X002046Y003074D01*
X001806Y003359D02*
X001786Y003359D01*
X001786Y003518D02*
X001950Y003518D01*
X002109Y003676D02*
X001786Y003676D01*
X001786Y003835D02*
X005306Y003835D01*
X004046Y003074D02*
X004946Y002174D01*
X004046Y003074D02*
X002546Y003074D01*
X001546Y003074D02*
X001546Y004074D01*
X001746Y004274D01*
X007796Y004274D01*
X007846Y004224D01*
X008110Y004469D02*
X014260Y004469D01*
X014260Y004628D02*
X001228Y004628D01*
X001228Y004469D02*
X001602Y004469D01*
X001443Y004311D02*
X001228Y004311D01*
X001228Y004152D02*
X001306Y004152D01*
X001306Y003993D02*
X001228Y003993D01*
X001228Y003835D02*
X001306Y003835D01*
X001306Y003676D02*
X001228Y003676D01*
X001228Y003518D02*
X001306Y003518D01*
X001306Y003359D02*
X001228Y003359D01*
X001805Y003993D02*
X007567Y003993D01*
X008125Y003993D02*
X014260Y003993D01*
X014260Y003835D02*
X014072Y003835D01*
X014260Y004152D02*
X008206Y004152D01*
X008200Y004311D02*
X014260Y004311D01*
X014260Y004786D02*
X001228Y004786D01*
X001228Y004945D02*
X004036Y004945D01*
X004096Y004884D02*
X005696Y004884D01*
X005895Y004884D01*
X006025Y005014D01*
X006117Y005014D01*
X006250Y005069D01*
X006351Y005170D01*
X006406Y005302D01*
X006406Y005445D01*
X006351Y005578D01*
X006250Y005679D01*
X006117Y005734D01*
X005974Y005734D01*
X005842Y005679D01*
X005776Y005613D01*
X005776Y005754D01*
X005316Y005754D01*
X005316Y005364D01*
X005276Y005364D01*
X005276Y005754D01*
X004216Y005754D01*
X004216Y005575D01*
X004427Y005364D01*
X004295Y005364D01*
X004045Y005614D01*
X003846Y005614D01*
X002815Y005614D01*
X002750Y005679D01*
X002617Y005734D01*
X002474Y005734D01*
X002342Y005679D01*
X002241Y005578D01*
X002186Y005445D01*
X002186Y005302D01*
X002241Y005170D01*
X002342Y005069D01*
X002474Y005014D01*
X002617Y005014D01*
X002750Y005069D01*
X002815Y005134D01*
X003846Y005134D01*
X003956Y005024D01*
X004096Y004884D01*
X004196Y005124D02*
X005796Y005124D01*
X006046Y005374D01*
X006389Y005262D02*
X014260Y005262D01*
X014260Y005420D02*
X011093Y005420D01*
X010986Y005314D02*
X011256Y005583D01*
X011256Y005964D01*
X010986Y006234D01*
X010005Y006234D01*
X009785Y006014D01*
X006845Y006014D01*
X006486Y006373D01*
X006486Y007373D01*
X006345Y007514D01*
X005845Y008014D01*
X005706Y008014D01*
X005486Y008234D01*
X004505Y008234D01*
X004236Y007964D01*
X004236Y007583D01*
X004505Y007314D01*
X005486Y007314D01*
X005676Y007504D01*
X006006Y007174D01*
X006006Y006373D01*
X006006Y006174D01*
X006646Y005534D01*
X006845Y005534D01*
X009785Y005534D01*
X010005Y005314D01*
X010986Y005314D01*
X011251Y005579D02*
X014260Y005579D01*
X014260Y005737D02*
X011256Y005737D01*
X011256Y005896D02*
X014260Y005896D01*
X014260Y006055D02*
X011166Y006055D01*
X011007Y006213D02*
X014260Y006213D01*
X014260Y006372D02*
X011044Y006372D01*
X010986Y006314D02*
X011256Y006583D01*
X011256Y006964D01*
X010986Y007234D01*
X010005Y007234D01*
X009736Y006964D01*
X009736Y006583D01*
X010005Y006314D01*
X010986Y006314D01*
X011203Y006530D02*
X014260Y006530D01*
X014260Y006689D02*
X011256Y006689D01*
X011256Y006847D02*
X014260Y006847D01*
X014260Y007006D02*
X011214Y007006D01*
X011056Y007164D02*
X014260Y007164D01*
X014260Y007323D02*
X011024Y007323D01*
X010995Y007294D02*
X011276Y007575D01*
X011276Y007754D01*
X010216Y007754D01*
X010216Y007294D01*
X010995Y007294D01*
X011182Y007481D02*
X014260Y007481D01*
X014260Y007640D02*
X011276Y007640D01*
X011276Y007794D02*
X011276Y007973D01*
X010995Y008254D01*
X010216Y008254D01*
X010216Y007794D01*
X011276Y007794D01*
X011276Y007799D02*
X014260Y007799D01*
X014260Y007957D02*
X011276Y007957D01*
X011133Y008116D02*
X014260Y008116D01*
X014260Y008274D02*
X008218Y008274D01*
X008467Y008116D02*
X009859Y008116D01*
X009997Y008254D02*
X009716Y007973D01*
X009716Y007794D01*
X010176Y007794D01*
X010176Y008254D01*
X009997Y008254D01*
X010176Y008116D02*
X010216Y008116D01*
X010216Y007957D02*
X010176Y007957D01*
X010176Y007799D02*
X010216Y007799D01*
X010176Y007754D02*
X009716Y007754D01*
X009716Y007575D01*
X009997Y007294D01*
X010176Y007294D01*
X010176Y007754D01*
X010176Y007640D02*
X010216Y007640D01*
X010216Y007481D02*
X010176Y007481D01*
X010176Y007323D02*
X010216Y007323D01*
X009968Y007323D02*
X008851Y007323D01*
X008851Y007481D02*
X009809Y007481D01*
X009716Y007640D02*
X008790Y007640D01*
X008725Y007799D02*
X009716Y007799D01*
X009716Y007957D02*
X008625Y007957D01*
X008851Y007164D02*
X009936Y007164D01*
X009777Y007006D02*
X008831Y007006D01*
X008765Y006847D02*
X009736Y006847D01*
X009736Y006689D02*
X008699Y006689D01*
X008565Y006530D02*
X009789Y006530D01*
X009948Y006372D02*
X008406Y006372D01*
X008072Y006213D02*
X009985Y006213D01*
X009826Y006055D02*
X006804Y006055D01*
X006646Y006213D02*
X007419Y006213D01*
X007085Y006372D02*
X006487Y006372D01*
X006486Y006530D02*
X006927Y006530D01*
X006792Y006689D02*
X006486Y006689D01*
X006486Y006847D02*
X006726Y006847D01*
X006661Y007006D02*
X006486Y007006D01*
X006486Y007164D02*
X006641Y007164D01*
X006641Y007323D02*
X006486Y007323D01*
X006378Y007481D02*
X006641Y007481D01*
X006701Y007640D02*
X006219Y007640D01*
X006061Y007799D02*
X006767Y007799D01*
X006866Y007957D02*
X005902Y007957D01*
X005746Y007774D02*
X006246Y007274D01*
X006246Y006274D01*
X006746Y005774D01*
X010196Y005774D01*
X010246Y005774D01*
X009899Y005420D02*
X006406Y005420D01*
X006350Y005579D02*
X006601Y005579D01*
X006443Y005737D02*
X005776Y005737D01*
X005776Y005794D02*
X005776Y005973D01*
X005495Y006254D01*
X005316Y006254D01*
X005316Y005794D01*
X005776Y005794D01*
X005776Y005896D02*
X006284Y005896D01*
X006126Y006055D02*
X005694Y006055D01*
X005535Y006213D02*
X006006Y006213D01*
X006006Y006372D02*
X005544Y006372D01*
X005486Y006314D02*
X005756Y006583D01*
X005756Y006964D01*
X005486Y007234D01*
X004505Y007234D01*
X004285Y007014D01*
X003315Y007014D01*
X003250Y007079D01*
X003117Y007134D01*
X002974Y007134D01*
X002842Y007079D01*
X002741Y006978D01*
X002686Y006845D01*
X002686Y006702D01*
X002741Y006570D01*
X002842Y006469D01*
X002974Y006414D01*
X003117Y006414D01*
X003250Y006469D01*
X003315Y006534D01*
X004285Y006534D01*
X004505Y006314D01*
X005486Y006314D01*
X005316Y006213D02*
X005276Y006213D01*
X005276Y006254D02*
X004497Y006254D01*
X004216Y005973D01*
X004216Y005794D01*
X005276Y005794D01*
X005276Y006254D01*
X005276Y006055D02*
X005316Y006055D01*
X005316Y005896D02*
X005276Y005896D01*
X005276Y005737D02*
X005316Y005737D01*
X005316Y005579D02*
X005276Y005579D01*
X005276Y005420D02*
X005316Y005420D01*
X005956Y004945D02*
X014260Y004945D01*
X014260Y005103D02*
X006284Y005103D01*
X004456Y006213D02*
X001228Y006213D01*
X001228Y006372D02*
X004448Y006372D01*
X004289Y006530D02*
X003311Y006530D01*
X003046Y006774D02*
X005296Y006774D01*
X005756Y006847D02*
X006006Y006847D01*
X006006Y006689D02*
X005756Y006689D01*
X005703Y006530D02*
X006006Y006530D01*
X006006Y007006D02*
X005714Y007006D01*
X005556Y007164D02*
X006006Y007164D01*
X005857Y007323D02*
X005495Y007323D01*
X005654Y007481D02*
X005699Y007481D01*
X005746Y007774D02*
X005296Y007774D01*
X005605Y008116D02*
X007025Y008116D01*
X007273Y008274D02*
X001228Y008274D01*
X001228Y008116D02*
X004387Y008116D01*
X004236Y007957D02*
X001228Y007957D01*
X001228Y007799D02*
X004236Y007799D01*
X004236Y007640D02*
X001228Y007640D01*
X001228Y007481D02*
X004338Y007481D01*
X004496Y007323D02*
X001228Y007323D01*
X001228Y007164D02*
X004436Y007164D01*
X002769Y007006D02*
X001228Y007006D01*
X001228Y006847D02*
X002687Y006847D01*
X002691Y006689D02*
X001228Y006689D01*
X001228Y006530D02*
X002780Y006530D01*
X002242Y005579D02*
X001228Y005579D01*
X001228Y005737D02*
X004216Y005737D01*
X004216Y005579D02*
X004080Y005579D01*
X004239Y005420D02*
X004371Y005420D01*
X004196Y005124D02*
X003946Y005374D01*
X002546Y005374D01*
X002203Y005262D02*
X001228Y005262D01*
X001228Y005420D02*
X002186Y005420D01*
X002307Y005103D02*
X001228Y005103D01*
X001228Y005896D02*
X004216Y005896D01*
X004298Y006055D02*
X001228Y006055D01*
X002784Y005103D02*
X003877Y005103D01*
D13*
X002546Y005374D03*
X003046Y006774D03*
X006046Y005374D03*
X007846Y004224D03*
X005496Y003524D03*
X003796Y002274D03*
X002546Y003074D03*
X002046Y003074D03*
X001546Y003074D03*
M02*
