G75*
G70*
%OFA0B0*%
%FSLAX24Y24*%
%IPPOS*%
%LPD*%
%AMOC8*
5,1,8,0,0,1.08239X$1,22.5*
%
%ADD10C,0.1330*%
%ADD11OC8,0.0680*%
%ADD12C,0.0940*%
%ADD13C,0.0830*%
%ADD14R,0.0770X0.0770*%
%ADD15C,0.0630*%
%ADD16C,0.1360*%
%ADD17C,0.0740*%
%ADD18C,0.0780*%
%ADD19C,0.0480*%
%ADD20C,0.0560*%
%ADD21C,0.1070*%
D10*
X001544Y002048D03*
X027044Y002048D03*
X030044Y024048D03*
X001544Y024048D03*
D11*
X024544Y022548D03*
X025544Y022548D03*
X026544Y022548D03*
X027544Y022548D03*
X027544Y021548D03*
X026544Y021548D03*
X025544Y021548D03*
X024544Y021548D03*
X024544Y020548D03*
X025544Y020548D03*
X026544Y020548D03*
X027544Y020548D03*
D12*
X015194Y022635D03*
X004194Y022635D03*
X009795Y003462D03*
X020795Y003462D03*
D13*
X019220Y005076D03*
X017173Y005076D03*
X021267Y006414D03*
X021621Y007950D03*
X019220Y007950D03*
X016818Y007950D03*
X015598Y010548D03*
X010621Y007950D03*
X010267Y006414D03*
X008220Y005076D03*
X006173Y005076D03*
X005818Y007950D03*
X008220Y007950D03*
X004598Y010548D03*
X009391Y015548D03*
X008170Y018147D03*
X005769Y018147D03*
X003367Y018147D03*
X003721Y019682D03*
X005769Y021021D03*
X007816Y021021D03*
X014721Y019682D03*
X016769Y021021D03*
X018816Y021021D03*
X019170Y018147D03*
X016769Y018147D03*
X014367Y018147D03*
X020391Y015548D03*
D14*
X020328Y017265D03*
X018044Y017166D03*
X015761Y017265D03*
X018044Y015434D03*
X015623Y019548D03*
X015997Y021595D03*
X020466Y019558D03*
X009466Y019558D03*
X009328Y017265D03*
X007044Y017166D03*
X004761Y017265D03*
X007044Y015434D03*
X004623Y019548D03*
X004997Y021595D03*
X004997Y009095D03*
X004623Y007048D03*
X004761Y004765D03*
X007044Y004666D03*
X007044Y002934D03*
X009328Y004765D03*
X009466Y007058D03*
X015623Y007048D03*
X015997Y009095D03*
X020466Y007058D03*
X020328Y004765D03*
X018044Y004666D03*
X015761Y004765D03*
X018044Y002934D03*
D15*
X033444Y019798D03*
X034444Y020298D03*
X033444Y020798D03*
X034444Y021298D03*
X033444Y021798D03*
X034444Y022298D03*
D16*
X036944Y023048D03*
X036944Y019048D03*
D17*
X034044Y006548D03*
X032544Y006548D03*
X031044Y006548D03*
X029544Y006548D03*
X029544Y002548D03*
X031044Y002548D03*
X032544Y002548D03*
X034044Y002548D03*
X039276Y004577D03*
D18*
X037504Y004577D03*
D19*
X036444Y008248D03*
X038244Y009348D03*
X037344Y009548D03*
X037344Y010548D03*
X037344Y011548D03*
X038444Y011648D03*
X039644Y010748D03*
X040044Y012348D03*
X038694Y014398D03*
X037744Y014548D03*
X037344Y015548D03*
X037744Y016548D03*
X038544Y017648D03*
X039644Y015548D03*
X036394Y013348D03*
X034644Y013348D03*
X032344Y014448D03*
X033544Y015048D03*
X032444Y016548D03*
X033544Y017048D03*
X030044Y019448D03*
X029144Y018648D03*
X028844Y018098D03*
X028044Y018048D03*
X026144Y018048D03*
X025294Y018048D03*
X024844Y015948D03*
X025544Y013948D03*
X029344Y014898D03*
X030844Y014648D03*
X029444Y013198D03*
X030444Y013048D03*
X031244Y012648D03*
X029844Y012148D03*
X031244Y011348D03*
X029544Y010648D03*
X028044Y009948D03*
X026144Y009998D03*
X025344Y009948D03*
X027444Y011348D03*
X030444Y009348D03*
X031344Y009448D03*
X035344Y011048D03*
X028944Y005848D03*
X026644Y007748D03*
X025344Y005398D03*
X025744Y005048D03*
X025344Y004598D03*
X025694Y004148D03*
X025394Y003698D03*
X021544Y015548D03*
X022244Y019248D03*
X022244Y021548D03*
X026044Y020148D03*
X028044Y021048D03*
X029744Y021048D03*
X029844Y021848D03*
X017394Y021898D03*
X002544Y016048D03*
D20*
X024544Y002048D03*
D21*
X035444Y006748D03*
M02*
