G75*
G70*
%OFA0B0*%
%FSLAX24Y24*%
%IPPOS*%
%LPD*%
%AMOC8*
5,1,8,0,0,1.08239X$1,22.5*
%
%ADD10C,0.0000*%
D10*
X000296Y025233D02*
X000296Y000863D01*
X040788Y000863D01*
X040788Y025233D01*
X000296Y025233D01*
X000919Y024048D02*
X000922Y024105D01*
X000929Y024161D01*
X000942Y024217D01*
X000960Y024271D01*
X000983Y024323D01*
X001010Y024373D01*
X001042Y024420D01*
X001078Y024464D01*
X001117Y024505D01*
X001161Y024542D01*
X001207Y024574D01*
X001256Y024603D01*
X001308Y024627D01*
X001362Y024646D01*
X001417Y024660D01*
X001473Y024669D01*
X001530Y024673D01*
X001587Y024672D01*
X001643Y024665D01*
X001699Y024654D01*
X001753Y024637D01*
X001806Y024615D01*
X001856Y024589D01*
X001904Y024559D01*
X001949Y024524D01*
X001991Y024485D01*
X002029Y024442D01*
X002063Y024397D01*
X002092Y024348D01*
X002117Y024297D01*
X002138Y024244D01*
X002153Y024189D01*
X002163Y024133D01*
X002168Y024076D01*
X002168Y024020D01*
X002163Y023963D01*
X002153Y023907D01*
X002138Y023852D01*
X002117Y023799D01*
X002092Y023748D01*
X002063Y023699D01*
X002029Y023654D01*
X001991Y023611D01*
X001949Y023572D01*
X001904Y023537D01*
X001857Y023507D01*
X001806Y023481D01*
X001753Y023459D01*
X001699Y023442D01*
X001643Y023431D01*
X001587Y023424D01*
X001530Y023423D01*
X001473Y023427D01*
X001417Y023436D01*
X001362Y023450D01*
X001308Y023469D01*
X001256Y023493D01*
X001207Y023522D01*
X001161Y023554D01*
X001117Y023591D01*
X001078Y023632D01*
X001042Y023676D01*
X001010Y023723D01*
X000983Y023773D01*
X000960Y023825D01*
X000942Y023879D01*
X000929Y023935D01*
X000922Y023991D01*
X000919Y024048D01*
X003764Y022635D02*
X003766Y022677D01*
X003772Y022718D01*
X003782Y022758D01*
X003796Y022797D01*
X003813Y022835D01*
X003834Y022871D01*
X003859Y022904D01*
X003886Y022935D01*
X003917Y022964D01*
X003950Y022989D01*
X003985Y023011D01*
X004022Y023029D01*
X004061Y023044D01*
X004101Y023055D01*
X004142Y023062D01*
X004184Y023065D01*
X004225Y023064D01*
X004266Y023059D01*
X004307Y023050D01*
X004346Y023037D01*
X004385Y023020D01*
X004421Y023000D01*
X004455Y022977D01*
X004487Y022950D01*
X004516Y022920D01*
X004542Y022888D01*
X004565Y022853D01*
X004584Y022816D01*
X004600Y022778D01*
X004612Y022738D01*
X004619Y022697D01*
X004623Y022656D01*
X004623Y022614D01*
X004619Y022573D01*
X004612Y022532D01*
X004600Y022492D01*
X004584Y022454D01*
X004565Y022417D01*
X004542Y022382D01*
X004516Y022350D01*
X004487Y022320D01*
X004455Y022293D01*
X004421Y022270D01*
X004385Y022250D01*
X004346Y022233D01*
X004307Y022220D01*
X004266Y022211D01*
X004225Y022206D01*
X004184Y022205D01*
X004142Y022208D01*
X004101Y022215D01*
X004061Y022226D01*
X004022Y022241D01*
X003985Y022259D01*
X003950Y022281D01*
X003917Y022306D01*
X003886Y022335D01*
X003859Y022366D01*
X003834Y022399D01*
X003813Y022435D01*
X003796Y022473D01*
X003782Y022512D01*
X003772Y022552D01*
X003766Y022593D01*
X003764Y022635D01*
X014764Y022635D02*
X014766Y022677D01*
X014772Y022718D01*
X014782Y022758D01*
X014796Y022797D01*
X014813Y022835D01*
X014834Y022871D01*
X014859Y022904D01*
X014886Y022935D01*
X014917Y022964D01*
X014950Y022989D01*
X014985Y023011D01*
X015022Y023029D01*
X015061Y023044D01*
X015101Y023055D01*
X015142Y023062D01*
X015184Y023065D01*
X015225Y023064D01*
X015266Y023059D01*
X015307Y023050D01*
X015346Y023037D01*
X015385Y023020D01*
X015421Y023000D01*
X015455Y022977D01*
X015487Y022950D01*
X015516Y022920D01*
X015542Y022888D01*
X015565Y022853D01*
X015584Y022816D01*
X015600Y022778D01*
X015612Y022738D01*
X015619Y022697D01*
X015623Y022656D01*
X015623Y022614D01*
X015619Y022573D01*
X015612Y022532D01*
X015600Y022492D01*
X015584Y022454D01*
X015565Y022417D01*
X015542Y022382D01*
X015516Y022350D01*
X015487Y022320D01*
X015455Y022293D01*
X015421Y022270D01*
X015385Y022250D01*
X015346Y022233D01*
X015307Y022220D01*
X015266Y022211D01*
X015225Y022206D01*
X015184Y022205D01*
X015142Y022208D01*
X015101Y022215D01*
X015061Y022226D01*
X015022Y022241D01*
X014985Y022259D01*
X014950Y022281D01*
X014917Y022306D01*
X014886Y022335D01*
X014859Y022366D01*
X014834Y022399D01*
X014813Y022435D01*
X014796Y022473D01*
X014782Y022512D01*
X014772Y022552D01*
X014766Y022593D01*
X014764Y022635D01*
X029419Y024048D02*
X029422Y024105D01*
X029429Y024161D01*
X029442Y024217D01*
X029460Y024271D01*
X029483Y024323D01*
X029510Y024373D01*
X029542Y024420D01*
X029578Y024464D01*
X029617Y024505D01*
X029661Y024542D01*
X029707Y024574D01*
X029756Y024603D01*
X029808Y024627D01*
X029862Y024646D01*
X029917Y024660D01*
X029973Y024669D01*
X030030Y024673D01*
X030087Y024672D01*
X030143Y024665D01*
X030199Y024654D01*
X030253Y024637D01*
X030306Y024615D01*
X030356Y024589D01*
X030404Y024559D01*
X030449Y024524D01*
X030491Y024485D01*
X030529Y024442D01*
X030563Y024397D01*
X030592Y024348D01*
X030617Y024297D01*
X030638Y024244D01*
X030653Y024189D01*
X030663Y024133D01*
X030668Y024076D01*
X030668Y024020D01*
X030663Y023963D01*
X030653Y023907D01*
X030638Y023852D01*
X030617Y023799D01*
X030592Y023748D01*
X030563Y023699D01*
X030529Y023654D01*
X030491Y023611D01*
X030449Y023572D01*
X030404Y023537D01*
X030357Y023507D01*
X030306Y023481D01*
X030253Y023459D01*
X030199Y023442D01*
X030143Y023431D01*
X030087Y023424D01*
X030030Y023423D01*
X029973Y023427D01*
X029917Y023436D01*
X029862Y023450D01*
X029808Y023469D01*
X029756Y023493D01*
X029707Y023522D01*
X029661Y023554D01*
X029617Y023591D01*
X029578Y023632D01*
X029542Y023676D01*
X029510Y023723D01*
X029483Y023773D01*
X029460Y023825D01*
X029442Y023879D01*
X029429Y023935D01*
X029422Y023991D01*
X029419Y024048D01*
X036304Y023048D02*
X036307Y023106D01*
X036315Y023164D01*
X036328Y023221D01*
X036346Y023276D01*
X036369Y023329D01*
X036397Y023381D01*
X036430Y023429D01*
X036466Y023474D01*
X036507Y023516D01*
X036552Y023554D01*
X036599Y023587D01*
X036650Y023616D01*
X036702Y023641D01*
X036757Y023660D01*
X036814Y023675D01*
X036871Y023684D01*
X036929Y023688D01*
X036988Y023687D01*
X037046Y023680D01*
X037103Y023668D01*
X037158Y023651D01*
X037212Y023629D01*
X037264Y023602D01*
X037313Y023571D01*
X037359Y023535D01*
X037402Y023495D01*
X037440Y023452D01*
X037475Y023405D01*
X037505Y023355D01*
X037531Y023303D01*
X037552Y023249D01*
X037567Y023192D01*
X037578Y023135D01*
X037583Y023077D01*
X037583Y023019D01*
X037578Y022961D01*
X037567Y022904D01*
X037552Y022847D01*
X037531Y022793D01*
X037505Y022741D01*
X037475Y022691D01*
X037440Y022644D01*
X037402Y022601D01*
X037359Y022561D01*
X037313Y022525D01*
X037264Y022494D01*
X037212Y022467D01*
X037158Y022445D01*
X037103Y022428D01*
X037046Y022416D01*
X036988Y022409D01*
X036929Y022408D01*
X036871Y022412D01*
X036814Y022421D01*
X036757Y022436D01*
X036702Y022455D01*
X036650Y022480D01*
X036599Y022509D01*
X036552Y022542D01*
X036507Y022580D01*
X036466Y022622D01*
X036430Y022667D01*
X036397Y022715D01*
X036369Y022767D01*
X036346Y022820D01*
X036328Y022875D01*
X036315Y022932D01*
X036307Y022990D01*
X036304Y023048D01*
X036304Y019048D02*
X036307Y019106D01*
X036315Y019164D01*
X036328Y019221D01*
X036346Y019276D01*
X036369Y019329D01*
X036397Y019381D01*
X036430Y019429D01*
X036466Y019474D01*
X036507Y019516D01*
X036552Y019554D01*
X036599Y019587D01*
X036650Y019616D01*
X036702Y019641D01*
X036757Y019660D01*
X036814Y019675D01*
X036871Y019684D01*
X036929Y019688D01*
X036988Y019687D01*
X037046Y019680D01*
X037103Y019668D01*
X037158Y019651D01*
X037212Y019629D01*
X037264Y019602D01*
X037313Y019571D01*
X037359Y019535D01*
X037402Y019495D01*
X037440Y019452D01*
X037475Y019405D01*
X037505Y019355D01*
X037531Y019303D01*
X037552Y019249D01*
X037567Y019192D01*
X037578Y019135D01*
X037583Y019077D01*
X037583Y019019D01*
X037578Y018961D01*
X037567Y018904D01*
X037552Y018847D01*
X037531Y018793D01*
X037505Y018741D01*
X037475Y018691D01*
X037440Y018644D01*
X037402Y018601D01*
X037359Y018561D01*
X037313Y018525D01*
X037264Y018494D01*
X037212Y018467D01*
X037158Y018445D01*
X037103Y018428D01*
X037046Y018416D01*
X036988Y018409D01*
X036929Y018408D01*
X036871Y018412D01*
X036814Y018421D01*
X036757Y018436D01*
X036702Y018455D01*
X036650Y018480D01*
X036599Y018509D01*
X036552Y018542D01*
X036507Y018580D01*
X036466Y018622D01*
X036430Y018667D01*
X036397Y018715D01*
X036369Y018767D01*
X036346Y018820D01*
X036328Y018875D01*
X036315Y018932D01*
X036307Y018990D01*
X036304Y019048D01*
X037154Y004577D02*
X037156Y004615D01*
X037162Y004652D01*
X037172Y004689D01*
X037186Y004724D01*
X037204Y004757D01*
X037225Y004789D01*
X037250Y004818D01*
X037277Y004844D01*
X037308Y004867D01*
X037340Y004886D01*
X037374Y004902D01*
X037410Y004914D01*
X037447Y004922D01*
X037485Y004926D01*
X037523Y004926D01*
X037561Y004922D01*
X037598Y004914D01*
X037634Y004902D01*
X037668Y004886D01*
X037700Y004867D01*
X037731Y004844D01*
X037758Y004818D01*
X037783Y004789D01*
X037804Y004757D01*
X037822Y004724D01*
X037836Y004689D01*
X037846Y004652D01*
X037852Y004615D01*
X037854Y004577D01*
X037852Y004539D01*
X037846Y004502D01*
X037836Y004465D01*
X037822Y004430D01*
X037804Y004397D01*
X037783Y004365D01*
X037758Y004336D01*
X037731Y004310D01*
X037700Y004287D01*
X037668Y004268D01*
X037634Y004252D01*
X037598Y004240D01*
X037561Y004232D01*
X037523Y004228D01*
X037485Y004228D01*
X037447Y004232D01*
X037410Y004240D01*
X037374Y004252D01*
X037340Y004268D01*
X037308Y004287D01*
X037277Y004310D01*
X037250Y004336D01*
X037225Y004365D01*
X037204Y004397D01*
X037186Y004430D01*
X037172Y004465D01*
X037162Y004502D01*
X037156Y004539D01*
X037154Y004577D01*
X038946Y004577D02*
X038948Y004613D01*
X038954Y004649D01*
X038964Y004684D01*
X038978Y004718D01*
X038995Y004750D01*
X039016Y004780D01*
X039039Y004807D01*
X039066Y004832D01*
X039096Y004853D01*
X039127Y004871D01*
X039160Y004886D01*
X039195Y004897D01*
X039231Y004904D01*
X039267Y004907D01*
X039303Y004906D01*
X039339Y004901D01*
X039375Y004892D01*
X039409Y004879D01*
X039441Y004863D01*
X039471Y004843D01*
X039500Y004820D01*
X039525Y004794D01*
X039547Y004765D01*
X039566Y004734D01*
X039582Y004701D01*
X039594Y004667D01*
X039601Y004631D01*
X039605Y004595D01*
X039605Y004559D01*
X039601Y004523D01*
X039594Y004487D01*
X039582Y004453D01*
X039566Y004420D01*
X039547Y004389D01*
X039525Y004360D01*
X039500Y004334D01*
X039471Y004311D01*
X039441Y004291D01*
X039409Y004275D01*
X039375Y004262D01*
X039339Y004253D01*
X039303Y004248D01*
X039267Y004247D01*
X039231Y004250D01*
X039195Y004257D01*
X039160Y004268D01*
X039127Y004283D01*
X039096Y004301D01*
X039066Y004322D01*
X039039Y004347D01*
X039016Y004374D01*
X038995Y004404D01*
X038978Y004436D01*
X038964Y004470D01*
X038954Y004505D01*
X038948Y004541D01*
X038946Y004577D01*
X026419Y002048D02*
X026422Y002105D01*
X026429Y002161D01*
X026442Y002217D01*
X026460Y002271D01*
X026483Y002323D01*
X026510Y002373D01*
X026542Y002420D01*
X026578Y002464D01*
X026617Y002505D01*
X026661Y002542D01*
X026707Y002574D01*
X026756Y002603D01*
X026808Y002627D01*
X026862Y002646D01*
X026917Y002660D01*
X026973Y002669D01*
X027030Y002673D01*
X027087Y002672D01*
X027143Y002665D01*
X027199Y002654D01*
X027253Y002637D01*
X027306Y002615D01*
X027356Y002589D01*
X027404Y002559D01*
X027449Y002524D01*
X027491Y002485D01*
X027529Y002442D01*
X027563Y002397D01*
X027592Y002348D01*
X027617Y002297D01*
X027638Y002244D01*
X027653Y002189D01*
X027663Y002133D01*
X027668Y002076D01*
X027668Y002020D01*
X027663Y001963D01*
X027653Y001907D01*
X027638Y001852D01*
X027617Y001799D01*
X027592Y001748D01*
X027563Y001699D01*
X027529Y001654D01*
X027491Y001611D01*
X027449Y001572D01*
X027404Y001537D01*
X027357Y001507D01*
X027306Y001481D01*
X027253Y001459D01*
X027199Y001442D01*
X027143Y001431D01*
X027087Y001424D01*
X027030Y001423D01*
X026973Y001427D01*
X026917Y001436D01*
X026862Y001450D01*
X026808Y001469D01*
X026756Y001493D01*
X026707Y001522D01*
X026661Y001554D01*
X026617Y001591D01*
X026578Y001632D01*
X026542Y001676D01*
X026510Y001723D01*
X026483Y001773D01*
X026460Y001825D01*
X026442Y001879D01*
X026429Y001935D01*
X026422Y001991D01*
X026419Y002048D01*
X020365Y003462D02*
X020367Y003504D01*
X020373Y003545D01*
X020383Y003585D01*
X020397Y003624D01*
X020414Y003662D01*
X020435Y003698D01*
X020460Y003731D01*
X020487Y003762D01*
X020518Y003791D01*
X020551Y003816D01*
X020586Y003838D01*
X020623Y003856D01*
X020662Y003871D01*
X020702Y003882D01*
X020743Y003889D01*
X020785Y003892D01*
X020826Y003891D01*
X020867Y003886D01*
X020908Y003877D01*
X020947Y003864D01*
X020986Y003847D01*
X021022Y003827D01*
X021056Y003804D01*
X021088Y003777D01*
X021117Y003747D01*
X021143Y003715D01*
X021166Y003680D01*
X021185Y003643D01*
X021201Y003605D01*
X021213Y003565D01*
X021220Y003524D01*
X021224Y003483D01*
X021224Y003441D01*
X021220Y003400D01*
X021213Y003359D01*
X021201Y003319D01*
X021185Y003281D01*
X021166Y003244D01*
X021143Y003209D01*
X021117Y003177D01*
X021088Y003147D01*
X021056Y003120D01*
X021022Y003097D01*
X020986Y003077D01*
X020947Y003060D01*
X020908Y003047D01*
X020867Y003038D01*
X020826Y003033D01*
X020785Y003032D01*
X020743Y003035D01*
X020702Y003042D01*
X020662Y003053D01*
X020623Y003068D01*
X020586Y003086D01*
X020551Y003108D01*
X020518Y003133D01*
X020487Y003162D01*
X020460Y003193D01*
X020435Y003226D01*
X020414Y003262D01*
X020397Y003300D01*
X020383Y003339D01*
X020373Y003379D01*
X020367Y003420D01*
X020365Y003462D01*
X009365Y003462D02*
X009367Y003504D01*
X009373Y003545D01*
X009383Y003585D01*
X009397Y003624D01*
X009414Y003662D01*
X009435Y003698D01*
X009460Y003731D01*
X009487Y003762D01*
X009518Y003791D01*
X009551Y003816D01*
X009586Y003838D01*
X009623Y003856D01*
X009662Y003871D01*
X009702Y003882D01*
X009743Y003889D01*
X009785Y003892D01*
X009826Y003891D01*
X009867Y003886D01*
X009908Y003877D01*
X009947Y003864D01*
X009986Y003847D01*
X010022Y003827D01*
X010056Y003804D01*
X010088Y003777D01*
X010117Y003747D01*
X010143Y003715D01*
X010166Y003680D01*
X010185Y003643D01*
X010201Y003605D01*
X010213Y003565D01*
X010220Y003524D01*
X010224Y003483D01*
X010224Y003441D01*
X010220Y003400D01*
X010213Y003359D01*
X010201Y003319D01*
X010185Y003281D01*
X010166Y003244D01*
X010143Y003209D01*
X010117Y003177D01*
X010088Y003147D01*
X010056Y003120D01*
X010022Y003097D01*
X009986Y003077D01*
X009947Y003060D01*
X009908Y003047D01*
X009867Y003038D01*
X009826Y003033D01*
X009785Y003032D01*
X009743Y003035D01*
X009702Y003042D01*
X009662Y003053D01*
X009623Y003068D01*
X009586Y003086D01*
X009551Y003108D01*
X009518Y003133D01*
X009487Y003162D01*
X009460Y003193D01*
X009435Y003226D01*
X009414Y003262D01*
X009397Y003300D01*
X009383Y003339D01*
X009373Y003379D01*
X009367Y003420D01*
X009365Y003462D01*
X000919Y002048D02*
X000922Y002105D01*
X000929Y002161D01*
X000942Y002217D01*
X000960Y002271D01*
X000983Y002323D01*
X001010Y002373D01*
X001042Y002420D01*
X001078Y002464D01*
X001117Y002505D01*
X001161Y002542D01*
X001207Y002574D01*
X001256Y002603D01*
X001308Y002627D01*
X001362Y002646D01*
X001417Y002660D01*
X001473Y002669D01*
X001530Y002673D01*
X001587Y002672D01*
X001643Y002665D01*
X001699Y002654D01*
X001753Y002637D01*
X001806Y002615D01*
X001856Y002589D01*
X001904Y002559D01*
X001949Y002524D01*
X001991Y002485D01*
X002029Y002442D01*
X002063Y002397D01*
X002092Y002348D01*
X002117Y002297D01*
X002138Y002244D01*
X002153Y002189D01*
X002163Y002133D01*
X002168Y002076D01*
X002168Y002020D01*
X002163Y001963D01*
X002153Y001907D01*
X002138Y001852D01*
X002117Y001799D01*
X002092Y001748D01*
X002063Y001699D01*
X002029Y001654D01*
X001991Y001611D01*
X001949Y001572D01*
X001904Y001537D01*
X001857Y001507D01*
X001806Y001481D01*
X001753Y001459D01*
X001699Y001442D01*
X001643Y001431D01*
X001587Y001424D01*
X001530Y001423D01*
X001473Y001427D01*
X001417Y001436D01*
X001362Y001450D01*
X001308Y001469D01*
X001256Y001493D01*
X001207Y001522D01*
X001161Y001554D01*
X001117Y001591D01*
X001078Y001632D01*
X001042Y001676D01*
X001010Y001723D01*
X000983Y001773D01*
X000960Y001825D01*
X000942Y001879D01*
X000929Y001935D01*
X000922Y001991D01*
X000919Y002048D01*
M02*
