G75*
G70*
%OFA0B0*%
%FSLAX24Y24*%
%IPPOS*%
%LPD*%
%AMOC8*
5,1,8,0,0,1.08239X$1,22.5*
%
%ADD10C,0.0550*%
%ADD11O,0.0600X0.1200*%
%ADD12OC8,0.0600*%
%ADD13C,0.0160*%
%ADD14C,0.0400*%
%ADD15C,0.1650*%
D10*
X019258Y007655D03*
X018258Y007655D03*
X017258Y007655D03*
X017758Y006655D03*
X018758Y006655D03*
X016758Y006655D03*
X012258Y004655D03*
X011258Y004655D03*
X010258Y004655D03*
X010758Y003655D03*
X011758Y003655D03*
X009758Y003655D03*
X004758Y006655D03*
X003758Y006655D03*
X002758Y006655D03*
X003258Y007655D03*
X004258Y007655D03*
X005258Y007655D03*
D11*
X008508Y001905D03*
X009508Y001905D03*
X010508Y001905D03*
X011508Y001905D03*
X012508Y001905D03*
X013508Y001905D03*
D12*
X015008Y009155D03*
X016008Y009155D03*
X017008Y009155D03*
X018008Y009155D03*
X018008Y010155D03*
X017008Y010155D03*
X016008Y010155D03*
X015008Y010155D03*
X007008Y010155D03*
X006008Y010155D03*
X005008Y010155D03*
X004008Y010155D03*
X004008Y009155D03*
X005008Y009155D03*
X006008Y009155D03*
X007008Y009155D03*
D13*
X001540Y003137D02*
X001540Y001150D01*
X008312Y001150D01*
X008048Y001415D01*
X008048Y002396D01*
X008317Y002665D01*
X008659Y002665D01*
X007918Y003406D01*
X007918Y003604D01*
X007918Y004540D01*
X005574Y006415D01*
X005129Y006415D01*
X005127Y006409D01*
X005004Y006286D01*
X004844Y006220D01*
X004671Y006220D01*
X004511Y006286D01*
X004498Y006300D01*
X004498Y003504D01*
X004937Y003065D01*
X005029Y003065D01*
X005162Y003010D01*
X005263Y002909D01*
X005318Y002777D01*
X005318Y002633D01*
X005263Y002501D01*
X005162Y002400D01*
X005029Y002345D01*
X004886Y002345D01*
X004754Y002400D01*
X004653Y002501D01*
X004598Y002633D01*
X004598Y002726D01*
X004018Y003306D01*
X004018Y003504D01*
X004018Y006300D01*
X004004Y006286D01*
X003844Y006220D01*
X003671Y006220D01*
X003511Y006286D01*
X003389Y006409D01*
X003323Y006569D01*
X003323Y006742D01*
X003389Y006901D01*
X003511Y007024D01*
X003518Y007026D01*
X003518Y007300D01*
X003504Y007286D01*
X003344Y007220D01*
X003171Y007220D01*
X003011Y007286D01*
X002889Y007409D01*
X002823Y007569D01*
X002823Y007742D01*
X002889Y007901D01*
X003011Y008024D01*
X003171Y008090D01*
X003344Y008090D01*
X003504Y008024D01*
X003521Y008007D01*
X003658Y008145D01*
X004548Y009034D01*
X004548Y009346D01*
X004817Y009615D01*
X005198Y009615D01*
X005468Y009346D01*
X005468Y008965D01*
X005198Y008695D01*
X004887Y008695D01*
X004282Y008090D01*
X004344Y008090D01*
X004504Y008024D01*
X004627Y007901D01*
X004693Y007742D01*
X004693Y007569D01*
X004627Y007409D01*
X004504Y007286D01*
X004498Y007284D01*
X004498Y007010D01*
X004511Y007024D01*
X004671Y007090D01*
X004844Y007090D01*
X005004Y007024D01*
X005127Y006901D01*
X005129Y006895D01*
X005558Y006895D01*
X005742Y006895D01*
X005757Y006895D01*
X005818Y006834D01*
X008242Y004895D01*
X008257Y004895D01*
X009886Y004895D01*
X009889Y004901D01*
X010011Y005024D01*
X010171Y005090D01*
X010344Y005090D01*
X010504Y005024D01*
X010627Y004901D01*
X010693Y004742D01*
X010693Y004569D01*
X010627Y004409D01*
X010504Y004286D01*
X010344Y004220D01*
X010171Y004220D01*
X010011Y004286D01*
X009889Y004409D01*
X009886Y004415D01*
X008398Y004415D01*
X008398Y003604D01*
X009337Y002665D01*
X009698Y002665D01*
X009968Y002396D01*
X009968Y001415D01*
X009703Y001150D01*
X010312Y001150D01*
X010048Y001415D01*
X010048Y002396D01*
X010268Y002616D01*
X010268Y003504D01*
X010326Y003562D01*
X010323Y003569D01*
X010323Y003742D01*
X010389Y003901D01*
X010511Y004024D01*
X010671Y004090D01*
X010844Y004090D01*
X011004Y004024D01*
X011018Y004010D01*
X011018Y004284D01*
X011011Y004286D01*
X010889Y004409D01*
X010823Y004569D01*
X010823Y004742D01*
X010889Y004901D01*
X011011Y005024D01*
X011171Y005090D01*
X011344Y005090D01*
X011351Y005087D01*
X012408Y006145D01*
X012520Y006145D01*
X012373Y006206D01*
X012058Y006521D01*
X009958Y006521D01*
X009957Y006521D02*
X010128Y006932D01*
X010128Y007378D01*
X009957Y007790D01*
X012058Y007790D01*
X011888Y007378D01*
X011888Y006932D01*
X012058Y006521D01*
X012216Y006363D02*
X009799Y006363D01*
X009642Y006206D02*
X009957Y006521D01*
X010023Y006680D02*
X011992Y006680D01*
X011927Y006838D02*
X010089Y006838D01*
X010128Y006997D02*
X011888Y006997D01*
X011888Y007155D02*
X010128Y007155D01*
X010128Y007314D02*
X011888Y007314D01*
X011927Y007472D02*
X010089Y007472D01*
X010023Y007631D02*
X011993Y007631D01*
X012058Y007790D02*
X012373Y008105D01*
X012785Y008275D01*
X013231Y008275D01*
X013642Y008105D01*
X013957Y007790D01*
X016034Y007790D01*
X015875Y007948D02*
X013799Y007948D01*
X013957Y007790D02*
X014128Y007378D01*
X014128Y006932D01*
X013957Y006521D01*
X013642Y006206D01*
X013496Y006145D01*
X017908Y006145D01*
X018294Y006530D01*
X018193Y006631D01*
X018193Y006569D01*
X018127Y006409D01*
X018004Y006286D01*
X017844Y006220D01*
X017671Y006220D01*
X017511Y006286D01*
X017389Y006409D01*
X017371Y006453D01*
X017268Y006556D01*
X017193Y006631D01*
X017193Y006569D01*
X017127Y006409D01*
X017004Y006286D01*
X016844Y006220D01*
X016671Y006220D01*
X016511Y006286D01*
X016389Y006409D01*
X016323Y006569D01*
X016323Y006742D01*
X016389Y006901D01*
X016511Y007024D01*
X016671Y007090D01*
X016734Y007090D01*
X015768Y008056D01*
X015768Y008254D01*
X015768Y008745D01*
X015548Y008965D01*
X015548Y009346D01*
X015817Y009615D01*
X016198Y009615D01*
X016468Y009346D01*
X016468Y008965D01*
X016248Y008745D01*
X016248Y008254D01*
X016823Y007679D01*
X016823Y007742D01*
X016889Y007901D01*
X017011Y008024D01*
X017171Y008090D01*
X017234Y008090D01*
X016768Y008556D01*
X016768Y008745D01*
X016548Y008965D01*
X016548Y009346D01*
X016817Y009615D01*
X017198Y009615D01*
X017468Y009346D01*
X017468Y008965D01*
X017253Y008750D01*
X017857Y008145D01*
X017995Y008007D01*
X018011Y008024D01*
X018171Y008090D01*
X018344Y008090D01*
X018504Y008024D01*
X018627Y007901D01*
X018693Y007742D01*
X018693Y007569D01*
X018627Y007409D01*
X018504Y007286D01*
X018344Y007220D01*
X018282Y007220D01*
X018495Y007007D01*
X018511Y007024D01*
X018671Y007090D01*
X018844Y007090D01*
X019004Y007024D01*
X019127Y006901D01*
X019193Y006742D01*
X019193Y006569D01*
X019127Y006409D01*
X019004Y006286D01*
X018844Y006220D01*
X018671Y006220D01*
X018665Y006223D01*
X018248Y005806D01*
X018107Y005665D01*
X012607Y005665D01*
X011690Y004748D01*
X011693Y004742D01*
X011693Y004569D01*
X011627Y004409D01*
X011504Y004286D01*
X011498Y004284D01*
X011498Y004010D01*
X011511Y004024D01*
X011671Y004090D01*
X011844Y004090D01*
X012004Y004024D01*
X012127Y003901D01*
X012193Y003742D01*
X012193Y003569D01*
X012127Y003409D01*
X012004Y003286D01*
X011998Y003284D01*
X011998Y003004D01*
X012337Y002665D01*
X012698Y002665D01*
X012968Y002396D01*
X012968Y001415D01*
X012703Y001150D01*
X013284Y001150D01*
X013028Y001406D01*
X013028Y001885D01*
X013488Y001885D01*
X013488Y001150D01*
X013528Y001150D01*
X013528Y001885D01*
X013988Y001885D01*
X013988Y001406D01*
X013732Y001150D01*
X020572Y001150D01*
X020572Y003177D01*
X020231Y003035D01*
X019785Y003035D01*
X019373Y003206D01*
X019058Y003521D01*
X018888Y003932D01*
X018888Y004378D01*
X019058Y004790D01*
X019373Y005105D01*
X019785Y005275D01*
X020231Y005275D01*
X020572Y005134D01*
X020572Y008938D01*
X020493Y008747D01*
X020216Y008470D01*
X019854Y008320D01*
X019462Y008320D01*
X019100Y008470D01*
X018823Y008747D01*
X018673Y009109D01*
X018673Y009501D01*
X018823Y009863D01*
X019100Y010140D01*
X019462Y010290D01*
X019854Y010290D01*
X020216Y010140D01*
X020493Y009863D01*
X020572Y009672D01*
X020572Y010660D01*
X001540Y010660D01*
X001540Y009930D01*
X001800Y010190D01*
X002162Y010340D01*
X002554Y010340D01*
X002916Y010190D01*
X003193Y009913D01*
X003343Y009551D01*
X003343Y009159D01*
X003193Y008797D01*
X002916Y008520D01*
X002554Y008370D01*
X002162Y008370D01*
X001800Y008520D01*
X001540Y008780D01*
X001540Y005173D01*
X001785Y005275D01*
X002231Y005275D01*
X002642Y005105D01*
X002957Y004790D01*
X003128Y004378D01*
X003128Y003932D01*
X002957Y003521D01*
X002642Y003206D01*
X002231Y003035D01*
X001785Y003035D01*
X001540Y003137D01*
X001540Y003033D02*
X004290Y003033D01*
X004449Y002875D02*
X001540Y002875D01*
X001540Y002716D02*
X004598Y002716D01*
X004629Y002558D02*
X001540Y002558D01*
X001540Y002399D02*
X004756Y002399D01*
X005160Y002399D02*
X008051Y002399D01*
X008048Y002241D02*
X001540Y002241D01*
X001540Y002082D02*
X008048Y002082D01*
X008048Y001923D02*
X001540Y001923D01*
X001540Y001765D02*
X008048Y001765D01*
X008048Y001606D02*
X001540Y001606D01*
X001540Y001448D02*
X008048Y001448D01*
X008173Y001289D02*
X001540Y001289D01*
X002609Y003192D02*
X004132Y003192D01*
X004018Y003350D02*
X002787Y003350D01*
X002946Y003509D02*
X004018Y003509D01*
X004018Y003667D02*
X003018Y003667D01*
X003084Y003826D02*
X004018Y003826D01*
X004018Y003985D02*
X003128Y003985D01*
X003128Y004143D02*
X004018Y004143D01*
X004018Y004302D02*
X003128Y004302D01*
X003094Y004460D02*
X004018Y004460D01*
X004018Y004619D02*
X003028Y004619D01*
X002962Y004777D02*
X004018Y004777D01*
X004018Y004936D02*
X002811Y004936D01*
X002653Y005094D02*
X004018Y005094D01*
X004018Y005253D02*
X002284Y005253D01*
X001731Y005253D02*
X001540Y005253D01*
X001540Y005411D02*
X004018Y005411D01*
X004018Y005570D02*
X001540Y005570D01*
X001540Y005729D02*
X004018Y005729D01*
X004018Y005887D02*
X001540Y005887D01*
X001540Y006046D02*
X004018Y006046D01*
X004018Y006204D02*
X001540Y006204D01*
X001540Y006363D02*
X002435Y006363D01*
X002389Y006409D02*
X002511Y006286D01*
X002671Y006220D01*
X002844Y006220D01*
X003004Y006286D01*
X003127Y006409D01*
X003193Y006569D01*
X003193Y006742D01*
X003127Y006901D01*
X003004Y007024D01*
X002844Y007090D01*
X002671Y007090D01*
X002511Y007024D01*
X002389Y006901D01*
X002323Y006742D01*
X002323Y006569D01*
X002389Y006409D01*
X002342Y006521D02*
X001540Y006521D01*
X001540Y006680D02*
X002323Y006680D01*
X002363Y006838D02*
X001540Y006838D01*
X001540Y006997D02*
X002484Y006997D01*
X003031Y006997D02*
X003484Y006997D01*
X003363Y006838D02*
X003153Y006838D01*
X003193Y006680D02*
X003323Y006680D01*
X003342Y006521D02*
X003173Y006521D01*
X003081Y006363D02*
X003435Y006363D01*
X003758Y006655D02*
X003758Y007905D01*
X005008Y009155D01*
X005468Y009216D02*
X005548Y009216D01*
X005548Y009346D02*
X005548Y008965D01*
X005817Y008695D01*
X006198Y008695D01*
X006468Y008965D01*
X006468Y009346D01*
X006198Y009615D01*
X005817Y009615D01*
X005548Y009346D01*
X005577Y009375D02*
X005438Y009375D01*
X005280Y009534D02*
X005736Y009534D01*
X005817Y009695D02*
X006198Y009695D01*
X006468Y009965D01*
X006468Y010346D01*
X006198Y010615D01*
X005817Y010615D01*
X005548Y010346D01*
X005548Y009965D01*
X005817Y009695D01*
X005662Y009851D02*
X005354Y009851D01*
X005468Y009965D02*
X005198Y009695D01*
X004817Y009695D01*
X004548Y009965D01*
X004548Y010346D01*
X004817Y010615D01*
X005198Y010615D01*
X005468Y010346D01*
X005468Y009965D01*
X005468Y010009D02*
X005548Y010009D01*
X005548Y010168D02*
X005468Y010168D01*
X005468Y010326D02*
X005548Y010326D01*
X005687Y010485D02*
X005329Y010485D01*
X004687Y010485D02*
X004329Y010485D01*
X004198Y010615D02*
X003817Y010615D01*
X003548Y010346D01*
X003548Y009965D01*
X003817Y009695D01*
X004198Y009695D01*
X004468Y009965D01*
X004468Y010346D01*
X004198Y010615D01*
X004468Y010326D02*
X004548Y010326D01*
X004548Y010168D02*
X004468Y010168D01*
X004468Y010009D02*
X004548Y010009D01*
X004662Y009851D02*
X004354Y009851D01*
X004198Y009615D02*
X003817Y009615D01*
X003548Y009346D01*
X003548Y008965D01*
X003817Y008695D01*
X004198Y008695D01*
X004468Y008965D01*
X004468Y009346D01*
X004198Y009615D01*
X004280Y009534D02*
X004736Y009534D01*
X004577Y009375D02*
X004438Y009375D01*
X004468Y009216D02*
X004548Y009216D01*
X004548Y009058D02*
X004468Y009058D01*
X004413Y008899D02*
X004403Y008899D01*
X004254Y008741D02*
X004244Y008741D01*
X004096Y008582D02*
X002978Y008582D01*
X003137Y008741D02*
X003772Y008741D01*
X003613Y008899D02*
X003235Y008899D01*
X003301Y009058D02*
X003548Y009058D01*
X003548Y009216D02*
X003343Y009216D01*
X003343Y009375D02*
X003577Y009375D01*
X003736Y009534D02*
X003343Y009534D01*
X003284Y009692D02*
X006792Y009692D01*
X006809Y009675D02*
X006528Y009956D01*
X006528Y010135D01*
X006988Y010135D01*
X006988Y009675D01*
X006809Y009675D01*
X006809Y009635D02*
X006528Y009354D01*
X006528Y009175D01*
X006988Y009175D01*
X006988Y009635D01*
X006809Y009635D01*
X006708Y009534D02*
X006280Y009534D01*
X006438Y009375D02*
X006549Y009375D01*
X006528Y009216D02*
X006468Y009216D01*
X006528Y009135D02*
X006528Y008956D01*
X006809Y008675D01*
X006988Y008675D01*
X006988Y009135D01*
X006528Y009135D01*
X006528Y009058D02*
X006468Y009058D01*
X006403Y008899D02*
X006585Y008899D01*
X006743Y008741D02*
X006244Y008741D01*
X005772Y008741D02*
X005244Y008741D01*
X005403Y008899D02*
X005613Y008899D01*
X005548Y009058D02*
X005468Y009058D01*
X004774Y008582D02*
X015768Y008582D01*
X015768Y008741D02*
X015244Y008741D01*
X015198Y008695D02*
X015468Y008965D01*
X015468Y009346D01*
X015198Y009615D01*
X014817Y009615D01*
X014548Y009346D01*
X014548Y008965D01*
X014817Y008695D01*
X015198Y008695D01*
X014772Y008741D02*
X007272Y008741D01*
X007207Y008675D02*
X007488Y008956D01*
X007488Y009135D01*
X007028Y009135D01*
X007028Y008675D01*
X007207Y008675D01*
X007028Y008741D02*
X006988Y008741D01*
X006988Y008899D02*
X007028Y008899D01*
X007028Y009058D02*
X006988Y009058D01*
X007028Y009175D02*
X007488Y009175D01*
X007488Y009354D01*
X007207Y009635D01*
X007028Y009635D01*
X007028Y009175D01*
X007028Y009216D02*
X006988Y009216D01*
X006988Y009375D02*
X007028Y009375D01*
X007028Y009534D02*
X006988Y009534D01*
X007028Y009675D02*
X007207Y009675D01*
X007488Y009956D01*
X007488Y010135D01*
X007028Y010135D01*
X007028Y009675D01*
X007028Y009692D02*
X006988Y009692D01*
X007224Y009692D02*
X017792Y009692D01*
X017809Y009675D02*
X017528Y009956D01*
X017528Y010135D01*
X017988Y010135D01*
X017988Y009675D01*
X017809Y009675D01*
X017809Y009635D02*
X017528Y009354D01*
X017528Y009175D01*
X017988Y009175D01*
X017988Y009635D01*
X017809Y009635D01*
X017708Y009534D02*
X017280Y009534D01*
X017198Y009695D02*
X017468Y009965D01*
X017468Y010346D01*
X017198Y010615D01*
X016817Y010615D01*
X016548Y010346D01*
X016548Y009965D01*
X016817Y009695D01*
X017198Y009695D01*
X017354Y009851D02*
X017634Y009851D01*
X017528Y010009D02*
X017468Y010009D01*
X017468Y010168D02*
X019167Y010168D01*
X018969Y010009D02*
X018488Y010009D01*
X018488Y009956D02*
X018207Y009675D01*
X018028Y009675D01*
X018028Y010135D01*
X018488Y010135D01*
X018488Y009956D01*
X018382Y009851D02*
X018818Y009851D01*
X018752Y009692D02*
X018224Y009692D01*
X018207Y009635D02*
X018028Y009635D01*
X018028Y009175D01*
X018488Y009175D01*
X018488Y009354D01*
X018207Y009635D01*
X018308Y009534D02*
X018686Y009534D01*
X018673Y009375D02*
X018467Y009375D01*
X018488Y009216D02*
X018673Y009216D01*
X018694Y009058D02*
X018488Y009058D01*
X018488Y009135D02*
X018488Y008956D01*
X018207Y008675D01*
X018028Y008675D01*
X018028Y009135D01*
X018488Y009135D01*
X018431Y008899D02*
X018760Y008899D01*
X018829Y008741D02*
X018272Y008741D01*
X018028Y008741D02*
X017988Y008741D01*
X017988Y008675D02*
X017988Y009135D01*
X017528Y009135D01*
X017528Y008956D01*
X017809Y008675D01*
X017988Y008675D01*
X017743Y008741D02*
X017261Y008741D01*
X017420Y008582D02*
X018988Y008582D01*
X019212Y008424D02*
X017579Y008424D01*
X017737Y008265D02*
X020572Y008265D01*
X020572Y008107D02*
X019357Y008107D01*
X019348Y008110D02*
X019516Y008041D01*
X019644Y007913D01*
X019713Y007746D01*
X019713Y007663D01*
X019265Y007663D01*
X019265Y008110D01*
X019348Y008110D01*
X019265Y008107D02*
X019250Y008107D01*
X019250Y008110D02*
X019167Y008110D01*
X019000Y008041D01*
X018872Y007913D01*
X018803Y007746D01*
X018803Y007663D01*
X019250Y007663D01*
X019250Y008110D01*
X019159Y008107D02*
X017896Y008107D01*
X017758Y007905D02*
X017758Y007405D01*
X018633Y006530D01*
X018758Y006655D01*
X018633Y006530D02*
X018008Y005905D01*
X012508Y005905D01*
X011258Y004655D01*
X011258Y002905D01*
X011508Y002655D01*
X011508Y001905D01*
X012508Y001905D02*
X012508Y002155D01*
X011758Y002905D01*
X011758Y003655D01*
X012158Y003826D02*
X014932Y003826D01*
X014888Y003932D02*
X015058Y003521D01*
X015373Y003206D01*
X015785Y003035D01*
X016231Y003035D01*
X016642Y003206D01*
X016957Y003521D01*
X017128Y003932D01*
X017128Y004378D01*
X016957Y004790D01*
X016642Y005105D01*
X016231Y005275D01*
X015785Y005275D01*
X015373Y005105D01*
X015058Y004790D01*
X014888Y004378D01*
X014888Y003932D01*
X014888Y003985D02*
X012044Y003985D01*
X012167Y004200D02*
X012250Y004200D01*
X012250Y004648D01*
X011803Y004648D01*
X011803Y004565D01*
X011872Y004397D01*
X012000Y004269D01*
X012167Y004200D01*
X012265Y004200D02*
X012348Y004200D01*
X012516Y004269D01*
X012644Y004397D01*
X012713Y004565D01*
X012713Y004648D01*
X012265Y004648D01*
X012265Y004200D01*
X012265Y004302D02*
X012250Y004302D01*
X011968Y004302D02*
X011520Y004302D01*
X011498Y004143D02*
X014888Y004143D01*
X014888Y004302D02*
X012548Y004302D01*
X012670Y004460D02*
X014922Y004460D01*
X014988Y004619D02*
X012713Y004619D01*
X012713Y004663D02*
X012713Y004746D01*
X012644Y004913D01*
X012516Y005041D01*
X012348Y005110D01*
X012265Y005110D01*
X012265Y004663D01*
X012713Y004663D01*
X012700Y004777D02*
X015053Y004777D01*
X015205Y004936D02*
X012621Y004936D01*
X012386Y005094D02*
X015363Y005094D01*
X015731Y005253D02*
X012195Y005253D01*
X012167Y005110D02*
X012000Y005041D01*
X011872Y004913D01*
X011803Y004746D01*
X011803Y004663D01*
X012250Y004663D01*
X012250Y005110D01*
X012167Y005110D01*
X012129Y005094D02*
X012036Y005094D01*
X011895Y004936D02*
X011878Y004936D01*
X012250Y004936D02*
X012265Y004936D01*
X012250Y005094D02*
X012265Y005094D01*
X012250Y004777D02*
X012265Y004777D01*
X012250Y004619D02*
X012265Y004619D01*
X012250Y004460D02*
X012265Y004460D01*
X011846Y004460D02*
X011648Y004460D01*
X011693Y004619D02*
X011803Y004619D01*
X011816Y004777D02*
X011719Y004777D01*
X011358Y005094D02*
X007993Y005094D01*
X008191Y004936D02*
X009923Y004936D01*
X010258Y004655D02*
X008158Y004655D01*
X005658Y006655D01*
X004758Y006655D01*
X005081Y006363D02*
X005639Y006363D01*
X005837Y006204D02*
X004498Y006204D01*
X004498Y006046D02*
X006036Y006046D01*
X006234Y005887D02*
X004498Y005887D01*
X004498Y005729D02*
X006432Y005729D01*
X006630Y005570D02*
X004498Y005570D01*
X004498Y005411D02*
X006828Y005411D01*
X007026Y005253D02*
X006284Y005253D01*
X006231Y005275D02*
X005785Y005275D01*
X005373Y005105D01*
X005058Y004790D01*
X004888Y004378D01*
X004888Y003932D01*
X005058Y003521D01*
X005373Y003206D01*
X005785Y003035D01*
X006231Y003035D01*
X006642Y003206D01*
X006957Y003521D01*
X007128Y003932D01*
X007128Y004378D01*
X006957Y004790D01*
X006642Y005105D01*
X006231Y005275D01*
X006653Y005094D02*
X007225Y005094D01*
X007423Y004936D02*
X006811Y004936D01*
X006962Y004777D02*
X007621Y004777D01*
X007819Y004619D02*
X007028Y004619D01*
X007094Y004460D02*
X007918Y004460D01*
X008158Y004655D02*
X008158Y003505D01*
X009508Y002155D01*
X009508Y001905D01*
X009968Y001923D02*
X010048Y001923D01*
X010048Y001765D02*
X009968Y001765D01*
X009968Y001606D02*
X010048Y001606D01*
X010048Y001448D02*
X009968Y001448D01*
X009843Y001289D02*
X010173Y001289D01*
X010508Y001905D02*
X010508Y003405D01*
X010758Y003655D01*
X010358Y003826D02*
X010158Y003826D01*
X010127Y003901D02*
X010193Y003742D01*
X010193Y003569D01*
X010127Y003409D01*
X010004Y003286D01*
X009844Y003220D01*
X009671Y003220D01*
X009511Y003286D01*
X009389Y003409D01*
X009323Y003569D01*
X009323Y003742D01*
X009389Y003901D01*
X009511Y004024D01*
X009671Y004090D01*
X009844Y004090D01*
X010004Y004024D01*
X010127Y003901D01*
X010044Y003985D02*
X010472Y003985D01*
X010520Y004302D02*
X010996Y004302D01*
X011018Y004143D02*
X008398Y004143D01*
X008398Y003985D02*
X009472Y003985D01*
X009358Y003826D02*
X008398Y003826D01*
X008398Y003667D02*
X009323Y003667D01*
X009348Y003509D02*
X008493Y003509D01*
X008652Y003350D02*
X009447Y003350D01*
X008969Y003033D02*
X010268Y003033D01*
X010268Y002875D02*
X009128Y002875D01*
X009286Y002716D02*
X010268Y002716D01*
X010210Y002558D02*
X009806Y002558D01*
X009964Y002399D02*
X010051Y002399D01*
X010048Y002241D02*
X009968Y002241D01*
X009968Y002082D02*
X010048Y002082D01*
X008607Y002716D02*
X005318Y002716D01*
X005277Y002875D02*
X008449Y002875D01*
X008290Y003033D02*
X005106Y003033D01*
X004811Y003192D02*
X005407Y003192D01*
X005229Y003350D02*
X004652Y003350D01*
X004498Y003509D02*
X005070Y003509D01*
X004998Y003667D02*
X004498Y003667D01*
X004498Y003826D02*
X004932Y003826D01*
X004888Y003985D02*
X004498Y003985D01*
X004498Y004143D02*
X004888Y004143D01*
X004888Y004302D02*
X004498Y004302D01*
X004498Y004460D02*
X004922Y004460D01*
X004988Y004619D02*
X004498Y004619D01*
X004498Y004777D02*
X005053Y004777D01*
X005205Y004936D02*
X004498Y004936D01*
X004498Y005094D02*
X005363Y005094D01*
X005731Y005253D02*
X004498Y005253D01*
X006606Y006204D02*
X008377Y006204D01*
X008373Y006206D02*
X008785Y006035D01*
X009231Y006035D01*
X009642Y006206D01*
X009639Y006204D02*
X012377Y006204D01*
X012309Y006046D02*
X009256Y006046D01*
X008760Y006046D02*
X006804Y006046D01*
X007002Y005887D02*
X012150Y005887D01*
X011992Y005729D02*
X007200Y005729D01*
X007398Y005570D02*
X011833Y005570D01*
X011675Y005411D02*
X007597Y005411D01*
X007795Y005253D02*
X011516Y005253D01*
X010923Y004936D02*
X010592Y004936D01*
X010678Y004777D02*
X010838Y004777D01*
X010823Y004619D02*
X010693Y004619D01*
X010648Y004460D02*
X010868Y004460D01*
X009996Y004302D02*
X008398Y004302D01*
X007918Y004302D02*
X007128Y004302D01*
X007128Y004143D02*
X007918Y004143D01*
X007918Y003985D02*
X007128Y003985D01*
X007084Y003826D02*
X007918Y003826D01*
X007918Y003667D02*
X007018Y003667D01*
X006946Y003509D02*
X007918Y003509D01*
X007973Y003350D02*
X006787Y003350D01*
X006609Y003192D02*
X008132Y003192D01*
X008811Y003192D02*
X010268Y003192D01*
X010268Y003350D02*
X010068Y003350D01*
X010168Y003509D02*
X010272Y003509D01*
X010323Y003667D02*
X010193Y003667D01*
X011998Y003192D02*
X015407Y003192D01*
X015229Y003350D02*
X012068Y003350D01*
X012168Y003509D02*
X015070Y003509D01*
X014998Y003667D02*
X012193Y003667D01*
X011998Y003033D02*
X020572Y003033D01*
X020572Y002875D02*
X012128Y002875D01*
X012286Y002716D02*
X020572Y002716D01*
X020572Y002558D02*
X013834Y002558D01*
X013707Y002685D02*
X013528Y002685D01*
X013528Y001925D01*
X013988Y001925D01*
X013988Y002404D01*
X013707Y002685D01*
X013488Y002685D02*
X013309Y002685D01*
X013028Y002404D01*
X013028Y001925D01*
X013488Y001925D01*
X013488Y002685D01*
X013488Y002558D02*
X013528Y002558D01*
X013528Y002399D02*
X013488Y002399D01*
X013488Y002241D02*
X013528Y002241D01*
X013528Y002082D02*
X013488Y002082D01*
X013488Y001765D02*
X013528Y001765D01*
X013528Y001606D02*
X013488Y001606D01*
X013488Y001448D02*
X013528Y001448D01*
X013528Y001289D02*
X013488Y001289D01*
X013145Y001289D02*
X012843Y001289D01*
X012968Y001448D02*
X013028Y001448D01*
X013028Y001606D02*
X012968Y001606D01*
X012968Y001765D02*
X013028Y001765D01*
X012968Y001923D02*
X020572Y001923D01*
X020572Y001765D02*
X013988Y001765D01*
X013988Y001606D02*
X020572Y001606D01*
X020572Y001448D02*
X013988Y001448D01*
X013871Y001289D02*
X020572Y001289D01*
X020572Y002082D02*
X013988Y002082D01*
X013988Y002241D02*
X020572Y002241D01*
X020572Y002399D02*
X013988Y002399D01*
X013182Y002558D02*
X012806Y002558D01*
X012964Y002399D02*
X013028Y002399D01*
X013028Y002241D02*
X012968Y002241D01*
X012968Y002082D02*
X013028Y002082D01*
X016609Y003192D02*
X019407Y003192D01*
X019229Y003350D02*
X016787Y003350D01*
X016946Y003509D02*
X019070Y003509D01*
X018998Y003667D02*
X017018Y003667D01*
X017084Y003826D02*
X018932Y003826D01*
X018888Y003985D02*
X017128Y003985D01*
X017128Y004143D02*
X018888Y004143D01*
X018888Y004302D02*
X017128Y004302D01*
X017094Y004460D02*
X018922Y004460D01*
X018988Y004619D02*
X017028Y004619D01*
X016962Y004777D02*
X019053Y004777D01*
X019205Y004936D02*
X016811Y004936D01*
X016653Y005094D02*
X019363Y005094D01*
X019731Y005253D02*
X016284Y005253D01*
X017968Y006204D02*
X013639Y006204D01*
X013799Y006363D02*
X016435Y006363D01*
X016342Y006521D02*
X013958Y006521D01*
X014023Y006680D02*
X016323Y006680D01*
X016363Y006838D02*
X014089Y006838D01*
X014128Y006997D02*
X016484Y006997D01*
X016668Y007155D02*
X014128Y007155D01*
X014128Y007314D02*
X016510Y007314D01*
X016351Y007472D02*
X014089Y007472D01*
X014023Y007631D02*
X016193Y007631D01*
X016554Y007948D02*
X016936Y007948D01*
X016843Y007790D02*
X016713Y007790D01*
X016396Y008107D02*
X017217Y008107D01*
X017058Y008265D02*
X016248Y008265D01*
X016248Y008424D02*
X016900Y008424D01*
X016768Y008582D02*
X016248Y008582D01*
X016248Y008741D02*
X016768Y008741D01*
X017008Y008655D02*
X017758Y007905D01*
X018580Y007948D02*
X018907Y007948D01*
X018821Y007790D02*
X018673Y007790D01*
X018693Y007631D02*
X018803Y007631D01*
X018803Y007648D02*
X018803Y007565D01*
X018872Y007397D01*
X019000Y007269D01*
X019167Y007200D01*
X019250Y007200D01*
X019250Y007648D01*
X018803Y007648D01*
X018841Y007472D02*
X018653Y007472D01*
X018532Y007314D02*
X018956Y007314D01*
X019250Y007314D02*
X019265Y007314D01*
X019265Y007200D02*
X019348Y007200D01*
X019516Y007269D01*
X019644Y007397D01*
X019713Y007565D01*
X019713Y007648D01*
X019265Y007648D01*
X019265Y007200D01*
X019560Y007314D02*
X020572Y007314D01*
X020572Y007472D02*
X019675Y007472D01*
X019713Y007631D02*
X020572Y007631D01*
X020572Y007790D02*
X019695Y007790D01*
X019608Y007948D02*
X020572Y007948D01*
X020572Y008424D02*
X020104Y008424D01*
X020328Y008582D02*
X020572Y008582D01*
X020572Y008741D02*
X020487Y008741D01*
X020556Y008899D02*
X020572Y008899D01*
X020564Y009692D02*
X020572Y009692D01*
X020572Y009851D02*
X020498Y009851D01*
X020572Y010009D02*
X020347Y010009D01*
X020149Y010168D02*
X020572Y010168D01*
X020572Y010326D02*
X018488Y010326D01*
X018488Y010354D02*
X018207Y010635D01*
X018028Y010635D01*
X018028Y010175D01*
X018488Y010175D01*
X018488Y010354D01*
X018357Y010485D02*
X020572Y010485D01*
X020572Y010643D02*
X001540Y010643D01*
X001540Y010485D02*
X003687Y010485D01*
X003548Y010326D02*
X002587Y010326D01*
X002938Y010168D02*
X003548Y010168D01*
X003548Y010009D02*
X003097Y010009D01*
X003219Y009851D02*
X003662Y009851D01*
X002129Y010326D02*
X001540Y010326D01*
X001540Y010168D02*
X001778Y010168D01*
X001619Y010009D02*
X001540Y010009D01*
X001540Y008741D02*
X001579Y008741D01*
X001540Y008582D02*
X001738Y008582D01*
X001540Y008424D02*
X002032Y008424D01*
X001540Y008265D02*
X003779Y008265D01*
X003937Y008424D02*
X002683Y008424D01*
X002936Y007948D02*
X001540Y007948D01*
X001540Y007790D02*
X002843Y007790D01*
X002823Y007631D02*
X001540Y007631D01*
X001540Y007472D02*
X002863Y007472D01*
X002984Y007314D02*
X001540Y007314D01*
X001540Y007155D02*
X003518Y007155D01*
X004258Y007655D02*
X004258Y003405D01*
X004958Y002705D01*
X005286Y002558D02*
X008210Y002558D01*
X012354Y005411D02*
X020572Y005411D01*
X020572Y005570D02*
X012512Y005570D01*
X008373Y006206D02*
X008058Y006521D01*
X006209Y006521D01*
X006408Y006363D02*
X008216Y006363D01*
X008058Y006521D02*
X007888Y006932D01*
X007888Y007378D01*
X008058Y007790D01*
X005695Y007790D01*
X005713Y007746D02*
X005644Y007913D01*
X005516Y008041D01*
X005348Y008110D01*
X005265Y008110D01*
X005265Y007663D01*
X005713Y007663D01*
X005713Y007746D01*
X005713Y007648D02*
X005265Y007648D01*
X005265Y007200D01*
X005348Y007200D01*
X005516Y007269D01*
X005644Y007397D01*
X005713Y007565D01*
X005713Y007648D01*
X005713Y007631D02*
X007993Y007631D01*
X008058Y007790D02*
X008373Y008105D01*
X008785Y008275D01*
X009231Y008275D01*
X009642Y008105D01*
X009957Y007790D01*
X009799Y007948D02*
X012217Y007948D01*
X012378Y008107D02*
X009637Y008107D01*
X009254Y008265D02*
X012761Y008265D01*
X013254Y008265D02*
X015768Y008265D01*
X015768Y008107D02*
X013637Y008107D01*
X014613Y008899D02*
X007431Y008899D01*
X007488Y009058D02*
X014548Y009058D01*
X014548Y009216D02*
X007488Y009216D01*
X007467Y009375D02*
X014577Y009375D01*
X014736Y009534D02*
X007308Y009534D01*
X007382Y009851D02*
X014662Y009851D01*
X014548Y009965D02*
X014817Y009695D01*
X015198Y009695D01*
X015468Y009965D01*
X015468Y010346D01*
X015198Y010615D01*
X014817Y010615D01*
X014548Y010346D01*
X014548Y009965D01*
X014548Y010009D02*
X007488Y010009D01*
X007488Y010175D02*
X007488Y010354D01*
X007207Y010635D01*
X007028Y010635D01*
X007028Y010175D01*
X007488Y010175D01*
X007488Y010326D02*
X014548Y010326D01*
X014687Y010485D02*
X007357Y010485D01*
X007028Y010485D02*
X006988Y010485D01*
X006988Y010635D02*
X006809Y010635D01*
X006528Y010354D01*
X006528Y010175D01*
X006988Y010175D01*
X006988Y010635D01*
X006988Y010326D02*
X007028Y010326D01*
X006659Y010485D02*
X006329Y010485D01*
X006468Y010326D02*
X006528Y010326D01*
X006468Y010168D02*
X014548Y010168D01*
X015329Y010485D02*
X015687Y010485D01*
X015817Y010615D02*
X015548Y010346D01*
X015548Y009965D01*
X015817Y009695D01*
X016198Y009695D01*
X016468Y009965D01*
X016468Y010346D01*
X016198Y010615D01*
X015817Y010615D01*
X015548Y010326D02*
X015468Y010326D01*
X015468Y010168D02*
X015548Y010168D01*
X015548Y010009D02*
X015468Y010009D01*
X015354Y009851D02*
X015662Y009851D01*
X015736Y009534D02*
X015280Y009534D01*
X015438Y009375D02*
X015577Y009375D01*
X015548Y009216D02*
X015468Y009216D01*
X015468Y009058D02*
X015548Y009058D01*
X015613Y008899D02*
X015403Y008899D01*
X016008Y009155D02*
X016008Y008155D01*
X017508Y006655D01*
X017758Y006655D01*
X018081Y006363D02*
X018126Y006363D01*
X018173Y006521D02*
X018285Y006521D01*
X018646Y006204D02*
X020572Y006204D01*
X020572Y006046D02*
X018488Y006046D01*
X018329Y005887D02*
X020572Y005887D01*
X020572Y005729D02*
X018171Y005729D01*
X017435Y006363D02*
X017081Y006363D01*
X017173Y006521D02*
X017302Y006521D01*
X018347Y007155D02*
X020572Y007155D01*
X020572Y006997D02*
X019031Y006997D01*
X019153Y006838D02*
X020572Y006838D01*
X020572Y006680D02*
X019193Y006680D01*
X019173Y006521D02*
X020572Y006521D01*
X020572Y006363D02*
X019081Y006363D01*
X019250Y007472D02*
X019265Y007472D01*
X019250Y007631D02*
X019265Y007631D01*
X019250Y007790D02*
X019265Y007790D01*
X019250Y007948D02*
X019265Y007948D01*
X018028Y008899D02*
X017988Y008899D01*
X017988Y009058D02*
X018028Y009058D01*
X018028Y009216D02*
X017988Y009216D01*
X017988Y009375D02*
X018028Y009375D01*
X018028Y009534D02*
X017988Y009534D01*
X017988Y009692D02*
X018028Y009692D01*
X018028Y009851D02*
X017988Y009851D01*
X017988Y010009D02*
X018028Y010009D01*
X017988Y010175D02*
X017988Y010635D01*
X017809Y010635D01*
X017528Y010354D01*
X017528Y010175D01*
X017988Y010175D01*
X017988Y010326D02*
X018028Y010326D01*
X018028Y010485D02*
X017988Y010485D01*
X017659Y010485D02*
X017329Y010485D01*
X017468Y010326D02*
X017528Y010326D01*
X016687Y010485D02*
X016329Y010485D01*
X016468Y010326D02*
X016548Y010326D01*
X016548Y010168D02*
X016468Y010168D01*
X016468Y010009D02*
X016548Y010009D01*
X016662Y009851D02*
X016354Y009851D01*
X016280Y009534D02*
X016736Y009534D01*
X016577Y009375D02*
X016438Y009375D01*
X016468Y009216D02*
X016548Y009216D01*
X016548Y009058D02*
X016468Y009058D01*
X016403Y008899D02*
X016613Y008899D01*
X017008Y008655D02*
X017008Y009155D01*
X017468Y009216D02*
X017528Y009216D01*
X017528Y009058D02*
X017468Y009058D01*
X017403Y008899D02*
X017585Y008899D01*
X017549Y009375D02*
X017438Y009375D01*
X015768Y008424D02*
X004616Y008424D01*
X004457Y008265D02*
X008761Y008265D01*
X008378Y008107D02*
X005357Y008107D01*
X005265Y008107D02*
X005250Y008107D01*
X005250Y008110D02*
X005167Y008110D01*
X005000Y008041D01*
X004872Y007913D01*
X004803Y007746D01*
X004803Y007663D01*
X005250Y007663D01*
X005250Y008110D01*
X005159Y008107D02*
X004299Y008107D01*
X004580Y007948D02*
X004907Y007948D01*
X004821Y007790D02*
X004673Y007790D01*
X004693Y007631D02*
X004803Y007631D01*
X004803Y007648D02*
X004803Y007565D01*
X004872Y007397D01*
X005000Y007269D01*
X005167Y007200D01*
X005250Y007200D01*
X005250Y007648D01*
X004803Y007648D01*
X004841Y007472D02*
X004653Y007472D01*
X004532Y007314D02*
X004956Y007314D01*
X005250Y007314D02*
X005265Y007314D01*
X005250Y007472D02*
X005265Y007472D01*
X005560Y007314D02*
X007888Y007314D01*
X007888Y007155D02*
X004498Y007155D01*
X005031Y006997D02*
X007888Y006997D01*
X007927Y006838D02*
X005814Y006838D01*
X006011Y006680D02*
X007992Y006680D01*
X007927Y007472D02*
X005675Y007472D01*
X005265Y007631D02*
X005250Y007631D01*
X005250Y007790D02*
X005265Y007790D01*
X005250Y007948D02*
X005265Y007948D01*
X005608Y007948D02*
X008217Y007948D01*
X007028Y009851D02*
X006988Y009851D01*
X006988Y010009D02*
X007028Y010009D01*
X006634Y009851D02*
X006354Y009851D01*
X006468Y010009D02*
X006528Y010009D01*
X003620Y008107D02*
X001540Y008107D01*
X020284Y005253D02*
X020572Y005253D01*
D14*
X008508Y010155D03*
X004958Y002705D03*
D15*
X002358Y009355D03*
X019658Y009305D03*
M02*
