G75*
G70*
%OFA0B0*%
%FSLAX24Y24*%
%IPPOS*%
%LPD*%
%AMOC8*
5,1,8,0,0,1.08239X$1,22.5*
%
%ADD10C,0.0000*%
D10*
X001060Y011140D02*
X001060Y000670D01*
X021052Y000670D01*
X021052Y011140D01*
X001060Y011140D01*
X008368Y007155D02*
X008371Y007213D01*
X008379Y007271D01*
X008392Y007328D01*
X008410Y007383D01*
X008433Y007436D01*
X008461Y007488D01*
X008494Y007536D01*
X008530Y007581D01*
X008571Y007623D01*
X008616Y007661D01*
X008663Y007694D01*
X008714Y007723D01*
X008766Y007748D01*
X008821Y007767D01*
X008878Y007782D01*
X008935Y007791D01*
X008993Y007795D01*
X009052Y007794D01*
X009110Y007787D01*
X009167Y007775D01*
X009222Y007758D01*
X009276Y007736D01*
X009328Y007709D01*
X009377Y007678D01*
X009423Y007642D01*
X009466Y007602D01*
X009504Y007559D01*
X009539Y007512D01*
X009569Y007462D01*
X009595Y007410D01*
X009616Y007356D01*
X009631Y007299D01*
X009642Y007242D01*
X009647Y007184D01*
X009647Y007126D01*
X009642Y007068D01*
X009631Y007011D01*
X009616Y006954D01*
X009595Y006900D01*
X009569Y006848D01*
X009539Y006798D01*
X009504Y006751D01*
X009466Y006708D01*
X009423Y006668D01*
X009377Y006632D01*
X009328Y006601D01*
X009276Y006574D01*
X009222Y006552D01*
X009167Y006535D01*
X009110Y006523D01*
X009052Y006516D01*
X008993Y006515D01*
X008935Y006519D01*
X008878Y006528D01*
X008821Y006543D01*
X008766Y006562D01*
X008714Y006587D01*
X008663Y006616D01*
X008616Y006649D01*
X008571Y006687D01*
X008530Y006729D01*
X008494Y006774D01*
X008461Y006822D01*
X008433Y006874D01*
X008410Y006927D01*
X008392Y006982D01*
X008379Y007039D01*
X008371Y007097D01*
X008368Y007155D01*
X012368Y007155D02*
X012371Y007213D01*
X012379Y007271D01*
X012392Y007328D01*
X012410Y007383D01*
X012433Y007436D01*
X012461Y007488D01*
X012494Y007536D01*
X012530Y007581D01*
X012571Y007623D01*
X012616Y007661D01*
X012663Y007694D01*
X012714Y007723D01*
X012766Y007748D01*
X012821Y007767D01*
X012878Y007782D01*
X012935Y007791D01*
X012993Y007795D01*
X013052Y007794D01*
X013110Y007787D01*
X013167Y007775D01*
X013222Y007758D01*
X013276Y007736D01*
X013328Y007709D01*
X013377Y007678D01*
X013423Y007642D01*
X013466Y007602D01*
X013504Y007559D01*
X013539Y007512D01*
X013569Y007462D01*
X013595Y007410D01*
X013616Y007356D01*
X013631Y007299D01*
X013642Y007242D01*
X013647Y007184D01*
X013647Y007126D01*
X013642Y007068D01*
X013631Y007011D01*
X013616Y006954D01*
X013595Y006900D01*
X013569Y006848D01*
X013539Y006798D01*
X013504Y006751D01*
X013466Y006708D01*
X013423Y006668D01*
X013377Y006632D01*
X013328Y006601D01*
X013276Y006574D01*
X013222Y006552D01*
X013167Y006535D01*
X013110Y006523D01*
X013052Y006516D01*
X012993Y006515D01*
X012935Y006519D01*
X012878Y006528D01*
X012821Y006543D01*
X012766Y006562D01*
X012714Y006587D01*
X012663Y006616D01*
X012616Y006649D01*
X012571Y006687D01*
X012530Y006729D01*
X012494Y006774D01*
X012461Y006822D01*
X012433Y006874D01*
X012410Y006927D01*
X012392Y006982D01*
X012379Y007039D01*
X012371Y007097D01*
X012368Y007155D01*
X015368Y004155D02*
X015371Y004213D01*
X015379Y004271D01*
X015392Y004328D01*
X015410Y004383D01*
X015433Y004436D01*
X015461Y004488D01*
X015494Y004536D01*
X015530Y004581D01*
X015571Y004623D01*
X015616Y004661D01*
X015663Y004694D01*
X015714Y004723D01*
X015766Y004748D01*
X015821Y004767D01*
X015878Y004782D01*
X015935Y004791D01*
X015993Y004795D01*
X016052Y004794D01*
X016110Y004787D01*
X016167Y004775D01*
X016222Y004758D01*
X016276Y004736D01*
X016328Y004709D01*
X016377Y004678D01*
X016423Y004642D01*
X016466Y004602D01*
X016504Y004559D01*
X016539Y004512D01*
X016569Y004462D01*
X016595Y004410D01*
X016616Y004356D01*
X016631Y004299D01*
X016642Y004242D01*
X016647Y004184D01*
X016647Y004126D01*
X016642Y004068D01*
X016631Y004011D01*
X016616Y003954D01*
X016595Y003900D01*
X016569Y003848D01*
X016539Y003798D01*
X016504Y003751D01*
X016466Y003708D01*
X016423Y003668D01*
X016377Y003632D01*
X016328Y003601D01*
X016276Y003574D01*
X016222Y003552D01*
X016167Y003535D01*
X016110Y003523D01*
X016052Y003516D01*
X015993Y003515D01*
X015935Y003519D01*
X015878Y003528D01*
X015821Y003543D01*
X015766Y003562D01*
X015714Y003587D01*
X015663Y003616D01*
X015616Y003649D01*
X015571Y003687D01*
X015530Y003729D01*
X015494Y003774D01*
X015461Y003822D01*
X015433Y003874D01*
X015410Y003927D01*
X015392Y003982D01*
X015379Y004039D01*
X015371Y004097D01*
X015368Y004155D01*
X019368Y004155D02*
X019371Y004213D01*
X019379Y004271D01*
X019392Y004328D01*
X019410Y004383D01*
X019433Y004436D01*
X019461Y004488D01*
X019494Y004536D01*
X019530Y004581D01*
X019571Y004623D01*
X019616Y004661D01*
X019663Y004694D01*
X019714Y004723D01*
X019766Y004748D01*
X019821Y004767D01*
X019878Y004782D01*
X019935Y004791D01*
X019993Y004795D01*
X020052Y004794D01*
X020110Y004787D01*
X020167Y004775D01*
X020222Y004758D01*
X020276Y004736D01*
X020328Y004709D01*
X020377Y004678D01*
X020423Y004642D01*
X020466Y004602D01*
X020504Y004559D01*
X020539Y004512D01*
X020569Y004462D01*
X020595Y004410D01*
X020616Y004356D01*
X020631Y004299D01*
X020642Y004242D01*
X020647Y004184D01*
X020647Y004126D01*
X020642Y004068D01*
X020631Y004011D01*
X020616Y003954D01*
X020595Y003900D01*
X020569Y003848D01*
X020539Y003798D01*
X020504Y003751D01*
X020466Y003708D01*
X020423Y003668D01*
X020377Y003632D01*
X020328Y003601D01*
X020276Y003574D01*
X020222Y003552D01*
X020167Y003535D01*
X020110Y003523D01*
X020052Y003516D01*
X019993Y003515D01*
X019935Y003519D01*
X019878Y003528D01*
X019821Y003543D01*
X019766Y003562D01*
X019714Y003587D01*
X019663Y003616D01*
X019616Y003649D01*
X019571Y003687D01*
X019530Y003729D01*
X019494Y003774D01*
X019461Y003822D01*
X019433Y003874D01*
X019410Y003927D01*
X019392Y003982D01*
X019379Y004039D01*
X019371Y004097D01*
X019368Y004155D01*
X005368Y004155D02*
X005371Y004213D01*
X005379Y004271D01*
X005392Y004328D01*
X005410Y004383D01*
X005433Y004436D01*
X005461Y004488D01*
X005494Y004536D01*
X005530Y004581D01*
X005571Y004623D01*
X005616Y004661D01*
X005663Y004694D01*
X005714Y004723D01*
X005766Y004748D01*
X005821Y004767D01*
X005878Y004782D01*
X005935Y004791D01*
X005993Y004795D01*
X006052Y004794D01*
X006110Y004787D01*
X006167Y004775D01*
X006222Y004758D01*
X006276Y004736D01*
X006328Y004709D01*
X006377Y004678D01*
X006423Y004642D01*
X006466Y004602D01*
X006504Y004559D01*
X006539Y004512D01*
X006569Y004462D01*
X006595Y004410D01*
X006616Y004356D01*
X006631Y004299D01*
X006642Y004242D01*
X006647Y004184D01*
X006647Y004126D01*
X006642Y004068D01*
X006631Y004011D01*
X006616Y003954D01*
X006595Y003900D01*
X006569Y003848D01*
X006539Y003798D01*
X006504Y003751D01*
X006466Y003708D01*
X006423Y003668D01*
X006377Y003632D01*
X006328Y003601D01*
X006276Y003574D01*
X006222Y003552D01*
X006167Y003535D01*
X006110Y003523D01*
X006052Y003516D01*
X005993Y003515D01*
X005935Y003519D01*
X005878Y003528D01*
X005821Y003543D01*
X005766Y003562D01*
X005714Y003587D01*
X005663Y003616D01*
X005616Y003649D01*
X005571Y003687D01*
X005530Y003729D01*
X005494Y003774D01*
X005461Y003822D01*
X005433Y003874D01*
X005410Y003927D01*
X005392Y003982D01*
X005379Y004039D01*
X005371Y004097D01*
X005368Y004155D01*
X001368Y004155D02*
X001371Y004213D01*
X001379Y004271D01*
X001392Y004328D01*
X001410Y004383D01*
X001433Y004436D01*
X001461Y004488D01*
X001494Y004536D01*
X001530Y004581D01*
X001571Y004623D01*
X001616Y004661D01*
X001663Y004694D01*
X001714Y004723D01*
X001766Y004748D01*
X001821Y004767D01*
X001878Y004782D01*
X001935Y004791D01*
X001993Y004795D01*
X002052Y004794D01*
X002110Y004787D01*
X002167Y004775D01*
X002222Y004758D01*
X002276Y004736D01*
X002328Y004709D01*
X002377Y004678D01*
X002423Y004642D01*
X002466Y004602D01*
X002504Y004559D01*
X002539Y004512D01*
X002569Y004462D01*
X002595Y004410D01*
X002616Y004356D01*
X002631Y004299D01*
X002642Y004242D01*
X002647Y004184D01*
X002647Y004126D01*
X002642Y004068D01*
X002631Y004011D01*
X002616Y003954D01*
X002595Y003900D01*
X002569Y003848D01*
X002539Y003798D01*
X002504Y003751D01*
X002466Y003708D01*
X002423Y003668D01*
X002377Y003632D01*
X002328Y003601D01*
X002276Y003574D01*
X002222Y003552D01*
X002167Y003535D01*
X002110Y003523D01*
X002052Y003516D01*
X001993Y003515D01*
X001935Y003519D01*
X001878Y003528D01*
X001821Y003543D01*
X001766Y003562D01*
X001714Y003587D01*
X001663Y003616D01*
X001616Y003649D01*
X001571Y003687D01*
X001530Y003729D01*
X001494Y003774D01*
X001461Y003822D01*
X001433Y003874D01*
X001410Y003927D01*
X001392Y003982D01*
X001379Y004039D01*
X001371Y004097D01*
X001368Y004155D01*
M02*
