G75*
G70*
%OFA0B0*%
%FSLAX24Y24*%
%IPPOS*%
%LPD*%
%AMOC8*
5,1,8,0,0,1.08239X$1,22.5*
%
%ADD10C,0.0550*%
%ADD11R,0.0394X0.0433*%
%ADD12R,0.0591X0.0591*%
%ADD13O,0.0600X0.1200*%
%ADD14OC8,0.0600*%
%ADD15C,0.0160*%
%ADD16C,0.0400*%
%ADD17C,0.1650*%
D10*
X019258Y007655D03*
X018258Y007655D03*
X017258Y007655D03*
X017758Y006655D03*
X018758Y006655D03*
X016758Y006655D03*
X012258Y004655D03*
X011258Y004655D03*
X010258Y004655D03*
X010758Y003655D03*
X011758Y003655D03*
X009758Y003655D03*
X004758Y006655D03*
X003758Y006655D03*
X002758Y006655D03*
X003258Y007655D03*
X004258Y007655D03*
X005258Y007655D03*
D11*
X009523Y010155D03*
X010193Y010155D03*
X014873Y006355D03*
X015543Y006355D03*
X017073Y005405D03*
X017743Y005405D03*
X004443Y004605D03*
X003773Y004605D03*
X003943Y003655D03*
X003273Y003655D03*
D12*
X010919Y010155D03*
X012297Y010155D03*
D13*
X012508Y001905D03*
X011508Y001905D03*
X010508Y001905D03*
X009508Y001905D03*
X008508Y001905D03*
X013508Y001905D03*
D14*
X015008Y009155D03*
X016008Y009155D03*
X017008Y009155D03*
X018008Y009155D03*
X018008Y010155D03*
X017008Y010155D03*
X016008Y010155D03*
X015008Y010155D03*
X007008Y010155D03*
X006008Y010155D03*
X005008Y010155D03*
X004008Y010155D03*
X004008Y009155D03*
X005008Y009155D03*
X006008Y009155D03*
X007008Y009155D03*
D15*
X001540Y003137D02*
X001540Y001150D01*
X008284Y001150D01*
X008028Y001406D01*
X008028Y001885D01*
X008488Y001885D01*
X008488Y001150D01*
X008528Y001150D01*
X008528Y001885D01*
X008988Y001885D01*
X008988Y001406D01*
X008732Y001150D01*
X009312Y001150D01*
X009048Y001415D01*
X009048Y002396D01*
X009117Y002465D01*
X008927Y002465D01*
X008988Y002404D01*
X008988Y001925D01*
X008528Y001925D01*
X008528Y002465D01*
X008488Y002465D01*
X008488Y001925D01*
X008028Y001925D01*
X008028Y002404D01*
X008089Y002465D01*
X005227Y002465D01*
X005162Y002400D01*
X005029Y002345D01*
X004886Y002345D01*
X004754Y002400D01*
X004653Y002501D01*
X004598Y002633D01*
X004598Y002777D01*
X004653Y002909D01*
X004754Y003010D01*
X004886Y003065D01*
X005029Y003065D01*
X005079Y003044D01*
X004708Y003415D01*
X004299Y003415D01*
X004299Y003372D01*
X004206Y003279D01*
X003679Y003279D01*
X003608Y003350D01*
X003536Y003279D01*
X003010Y003279D01*
X002916Y003372D01*
X002916Y003480D01*
X002642Y003206D01*
X002231Y003035D01*
X001785Y003035D01*
X001540Y003137D01*
X001540Y003033D02*
X004809Y003033D01*
X004639Y002875D02*
X001540Y002875D01*
X001540Y002716D02*
X004598Y002716D01*
X004629Y002558D02*
X001540Y002558D01*
X001540Y002399D02*
X004756Y002399D01*
X005160Y002399D02*
X008028Y002399D01*
X008028Y002241D02*
X001540Y002241D01*
X001540Y002082D02*
X008028Y002082D01*
X008028Y001765D02*
X001540Y001765D01*
X001540Y001923D02*
X009048Y001923D01*
X009048Y001765D02*
X008988Y001765D01*
X008988Y001606D02*
X009048Y001606D01*
X009048Y001448D02*
X008988Y001448D01*
X008871Y001289D02*
X009173Y001289D01*
X008528Y001289D02*
X008488Y001289D01*
X008488Y001448D02*
X008528Y001448D01*
X008528Y001606D02*
X008488Y001606D01*
X008488Y001765D02*
X008528Y001765D01*
X008528Y002082D02*
X008488Y002082D01*
X008488Y002241D02*
X008528Y002241D01*
X008528Y002399D02*
X008488Y002399D01*
X008988Y002399D02*
X009051Y002399D01*
X009048Y002241D02*
X008988Y002241D01*
X008988Y002082D02*
X009048Y002082D01*
X008028Y001606D02*
X001540Y001606D01*
X001540Y001448D02*
X008028Y001448D01*
X008145Y001289D02*
X001540Y001289D01*
X002609Y003192D02*
X004932Y003192D01*
X004773Y003350D02*
X004277Y003350D01*
X003943Y003655D02*
X004808Y003655D01*
X005458Y003005D01*
X010258Y003005D01*
X010508Y002755D01*
X010858Y002755D01*
X011458Y002155D01*
X011508Y002155D01*
X011508Y001905D01*
X011508Y001855D01*
X012508Y001905D02*
X012558Y001955D01*
X012558Y002255D01*
X013308Y003005D01*
X016858Y003005D01*
X018258Y004405D01*
X018258Y007655D01*
X018208Y007655D01*
X017508Y008355D01*
X017508Y009655D01*
X017008Y010155D01*
X017468Y010168D02*
X017548Y010168D01*
X017468Y010034D02*
X017468Y010346D01*
X017198Y010615D01*
X016817Y010615D01*
X016548Y010346D01*
X016548Y009965D01*
X016817Y009695D01*
X017128Y009695D01*
X017268Y009556D01*
X017268Y009546D01*
X017198Y009615D01*
X016817Y009615D01*
X016548Y009346D01*
X016548Y008965D01*
X016817Y008695D01*
X017198Y008695D01*
X017268Y008765D01*
X017268Y008454D01*
X017268Y008256D01*
X017497Y008027D01*
X017344Y008090D01*
X017171Y008090D01*
X017011Y008024D01*
X016889Y007901D01*
X016886Y007895D01*
X016757Y007895D01*
X016558Y007895D01*
X015748Y007084D01*
X015748Y008765D01*
X015817Y008695D01*
X016198Y008695D01*
X016468Y008965D01*
X016468Y009346D01*
X016198Y009615D01*
X015817Y009615D01*
X015748Y009546D01*
X015748Y009556D01*
X015887Y009695D01*
X016198Y009695D01*
X016468Y009965D01*
X016468Y010346D01*
X016198Y010615D01*
X015817Y010615D01*
X015548Y010346D01*
X015548Y010034D01*
X015488Y009974D01*
X015488Y010135D01*
X015028Y010135D01*
X015028Y009675D01*
X015207Y009675D01*
X015268Y009736D01*
X015268Y009574D01*
X015207Y009635D01*
X015028Y009635D01*
X015028Y009175D01*
X015268Y009175D01*
X015268Y009135D01*
X015028Y009135D01*
X015028Y008675D01*
X015207Y008675D01*
X015268Y008736D01*
X015268Y006720D01*
X015208Y006660D01*
X015136Y006732D01*
X014610Y006732D01*
X014516Y006638D01*
X014516Y006595D01*
X014507Y006595D01*
X014308Y006595D01*
X013958Y006245D01*
X013682Y006245D01*
X013957Y006521D01*
X014128Y006932D01*
X014128Y007378D01*
X013957Y007790D01*
X015268Y007790D01*
X015268Y007948D02*
X013799Y007948D01*
X013642Y008105D02*
X013957Y007790D01*
X014023Y007631D02*
X015268Y007631D01*
X015268Y007472D02*
X014089Y007472D01*
X014128Y007314D02*
X015268Y007314D01*
X015268Y007155D02*
X014128Y007155D01*
X014128Y006997D02*
X015268Y006997D01*
X015268Y006838D02*
X014089Y006838D01*
X014023Y006680D02*
X014558Y006680D01*
X014235Y006521D02*
X013958Y006521D01*
X014076Y006363D02*
X013799Y006363D01*
X014058Y006005D02*
X014408Y006355D01*
X014873Y006355D01*
X014516Y006115D02*
X014516Y006072D01*
X014610Y005979D01*
X015136Y005979D01*
X015208Y006050D01*
X015279Y005979D01*
X015806Y005979D01*
X015899Y006072D01*
X015899Y006557D01*
X016757Y007415D01*
X016886Y007415D01*
X016889Y007409D01*
X017011Y007286D01*
X017171Y007220D01*
X017344Y007220D01*
X017504Y007286D01*
X017627Y007409D01*
X017693Y007569D01*
X017693Y007742D01*
X017630Y007894D01*
X017823Y007701D01*
X017823Y007569D01*
X017889Y007409D01*
X018011Y007286D01*
X018018Y007284D01*
X018018Y007010D01*
X018004Y007024D01*
X017844Y007090D01*
X017671Y007090D01*
X017511Y007024D01*
X017389Y006901D01*
X017323Y006742D01*
X017323Y006569D01*
X017389Y006409D01*
X017503Y006295D01*
X017503Y005782D01*
X017479Y005782D01*
X017408Y005710D01*
X017336Y005782D01*
X016810Y005782D01*
X016716Y005688D01*
X016716Y005645D01*
X014207Y005645D01*
X014008Y005645D01*
X012758Y004395D01*
X012613Y004395D01*
X012627Y004409D01*
X012693Y004569D01*
X012693Y004742D01*
X012627Y004901D01*
X012504Y005024D01*
X012344Y005090D01*
X012171Y005090D01*
X012011Y005024D01*
X011889Y004901D01*
X011823Y004742D01*
X011823Y004569D01*
X011889Y004409D01*
X011903Y004395D01*
X011613Y004395D01*
X011627Y004409D01*
X011693Y004569D01*
X011693Y004742D01*
X011627Y004901D01*
X011504Y005024D01*
X011344Y005090D01*
X011171Y005090D01*
X011011Y005024D01*
X010889Y004901D01*
X010823Y004742D01*
X010823Y004569D01*
X010889Y004409D01*
X011011Y004286D01*
X011039Y004275D01*
X010851Y004087D01*
X010844Y004090D01*
X010671Y004090D01*
X010511Y004024D01*
X010470Y003982D01*
X010357Y004095D01*
X010232Y004220D01*
X010344Y004220D01*
X010504Y004286D01*
X010627Y004409D01*
X010693Y004569D01*
X010693Y004742D01*
X010690Y004748D01*
X011707Y005765D01*
X013958Y005765D01*
X014157Y005765D01*
X014507Y006115D01*
X014516Y006115D01*
X014543Y006046D02*
X014438Y006046D01*
X014279Y005887D02*
X017503Y005887D01*
X017503Y006046D02*
X015873Y006046D01*
X015899Y006204D02*
X016658Y006204D01*
X016667Y006200D02*
X016750Y006200D01*
X016750Y006648D01*
X016303Y006648D01*
X016303Y006565D01*
X016372Y006397D01*
X016500Y006269D01*
X016667Y006200D01*
X016750Y006204D02*
X016765Y006204D01*
X016765Y006200D02*
X016848Y006200D01*
X017016Y006269D01*
X017144Y006397D01*
X017213Y006565D01*
X017213Y006648D01*
X016765Y006648D01*
X016765Y006200D01*
X016858Y006204D02*
X017503Y006204D01*
X017435Y006363D02*
X017109Y006363D01*
X017195Y006521D02*
X017342Y006521D01*
X017213Y006663D02*
X017213Y006746D01*
X017144Y006913D01*
X017016Y007041D01*
X016848Y007110D01*
X016765Y007110D01*
X016765Y006663D01*
X017213Y006663D01*
X017213Y006680D02*
X017323Y006680D01*
X017363Y006838D02*
X017174Y006838D01*
X017060Y006997D02*
X017484Y006997D01*
X018018Y007155D02*
X016498Y007155D01*
X016500Y007041D02*
X016372Y006913D01*
X016303Y006746D01*
X016303Y006663D01*
X016750Y006663D01*
X016750Y007110D01*
X016667Y007110D01*
X016500Y007041D01*
X016456Y006997D02*
X016339Y006997D01*
X016341Y006838D02*
X016180Y006838D01*
X016303Y006680D02*
X016022Y006680D01*
X015899Y006521D02*
X016321Y006521D01*
X016407Y006363D02*
X015899Y006363D01*
X015543Y006355D02*
X015508Y006355D01*
X015508Y009655D01*
X016008Y010155D01*
X016468Y010168D02*
X016548Y010168D01*
X016548Y010009D02*
X016468Y010009D01*
X016354Y009851D02*
X016662Y009851D01*
X017131Y009692D02*
X015884Y009692D01*
X016280Y009534D02*
X016736Y009534D01*
X016577Y009375D02*
X016438Y009375D01*
X016468Y009216D02*
X016548Y009216D01*
X016548Y009058D02*
X016468Y009058D01*
X016403Y008899D02*
X016613Y008899D01*
X016772Y008741D02*
X016244Y008741D01*
X015772Y008741D02*
X015748Y008741D01*
X015748Y008582D02*
X017268Y008582D01*
X017268Y008741D02*
X017244Y008741D01*
X017748Y008741D02*
X017772Y008741D01*
X017748Y008765D02*
X017817Y008695D01*
X018198Y008695D01*
X018468Y008965D01*
X018468Y009346D01*
X018198Y009615D01*
X017817Y009615D01*
X017748Y009546D01*
X017748Y009754D01*
X017607Y009895D01*
X017468Y010034D01*
X017493Y010009D02*
X017548Y010009D01*
X017548Y009965D02*
X017817Y009695D01*
X018198Y009695D01*
X018468Y009965D01*
X018468Y010346D01*
X018198Y010615D01*
X017817Y010615D01*
X017548Y010346D01*
X017548Y009965D01*
X017652Y009851D02*
X017662Y009851D01*
X017748Y009692D02*
X018752Y009692D01*
X018686Y009534D02*
X018280Y009534D01*
X018438Y009375D02*
X018673Y009375D01*
X018673Y009501D02*
X018673Y009109D01*
X018823Y008747D01*
X019100Y008470D01*
X019462Y008320D01*
X019854Y008320D01*
X020216Y008470D01*
X020493Y008747D01*
X020572Y008938D01*
X020572Y005134D01*
X020231Y005275D01*
X019785Y005275D01*
X019373Y005105D01*
X019058Y004790D01*
X018888Y004378D01*
X018888Y003932D01*
X019058Y003521D01*
X019373Y003206D01*
X019785Y003035D01*
X020231Y003035D01*
X020572Y003177D01*
X020572Y001150D01*
X013703Y001150D01*
X013968Y001415D01*
X013968Y002396D01*
X013698Y002665D01*
X013317Y002665D01*
X013048Y002396D01*
X013048Y001415D01*
X013312Y001150D01*
X012703Y001150D01*
X012968Y001415D01*
X012968Y002326D01*
X013407Y002765D01*
X016957Y002765D01*
X017098Y002906D01*
X018357Y004165D01*
X018498Y004306D01*
X018498Y006300D01*
X018511Y006286D01*
X018671Y006220D01*
X018844Y006220D01*
X019004Y006286D01*
X019127Y006409D01*
X019193Y006569D01*
X019193Y006742D01*
X019127Y006901D01*
X019004Y007024D01*
X018844Y007090D01*
X018671Y007090D01*
X018511Y007024D01*
X018498Y007010D01*
X018498Y007284D01*
X018504Y007286D01*
X018627Y007409D01*
X018693Y007569D01*
X018693Y007742D01*
X018627Y007901D01*
X018504Y008024D01*
X018344Y008090D01*
X018171Y008090D01*
X018130Y008073D01*
X017748Y008454D01*
X017748Y008765D01*
X017748Y008582D02*
X018988Y008582D01*
X018829Y008741D02*
X018244Y008741D01*
X018403Y008899D02*
X018760Y008899D01*
X018694Y009058D02*
X018468Y009058D01*
X018468Y009216D02*
X018673Y009216D01*
X018673Y009501D02*
X018823Y009863D01*
X019100Y010140D01*
X019462Y010290D01*
X019854Y010290D01*
X020216Y010140D01*
X020493Y009863D01*
X020572Y009672D01*
X020572Y010660D01*
X001540Y010660D01*
X001540Y009930D01*
X001800Y010190D01*
X002162Y010340D01*
X002554Y010340D01*
X002916Y010190D01*
X003193Y009913D01*
X003343Y009551D01*
X003343Y009159D01*
X003193Y008797D01*
X002916Y008520D01*
X002554Y008370D01*
X002162Y008370D01*
X001800Y008520D01*
X001540Y008780D01*
X001540Y005173D01*
X001785Y005275D01*
X002231Y005275D01*
X002642Y005105D01*
X002957Y004790D01*
X003018Y004643D01*
X003018Y006272D01*
X003016Y006269D01*
X002848Y006200D01*
X002765Y006200D01*
X002765Y006648D01*
X003018Y006648D01*
X003018Y006663D01*
X002765Y006663D01*
X002765Y007110D01*
X002848Y007110D01*
X003016Y007041D01*
X003018Y007039D01*
X003018Y007284D01*
X003011Y007286D01*
X002889Y007409D01*
X002823Y007569D01*
X002823Y007742D01*
X002889Y007901D01*
X003011Y008024D01*
X003171Y008090D01*
X003344Y008090D01*
X003386Y008073D01*
X004028Y008714D01*
X004028Y009135D01*
X004268Y009135D01*
X004268Y009175D01*
X004028Y009175D01*
X004028Y009635D01*
X004207Y009635D01*
X004268Y009574D01*
X004268Y009736D01*
X004207Y009675D01*
X004028Y009675D01*
X004028Y010135D01*
X004488Y010135D01*
X004488Y009974D01*
X004548Y010034D01*
X004548Y010346D01*
X004817Y010615D01*
X005198Y010615D01*
X005468Y010346D01*
X005468Y009965D01*
X005198Y009695D01*
X004887Y009695D01*
X004748Y009556D01*
X004748Y009546D01*
X004817Y009615D01*
X005198Y009615D01*
X005268Y009546D01*
X005268Y009754D01*
X005408Y009895D01*
X005548Y010034D01*
X005548Y010346D01*
X005817Y010615D01*
X006198Y010615D01*
X006468Y010346D01*
X006468Y009965D01*
X006198Y009695D01*
X005887Y009695D01*
X005748Y009556D01*
X005748Y009546D01*
X005817Y009615D01*
X006198Y009615D01*
X006468Y009346D01*
X006468Y008965D01*
X006248Y008745D01*
X006248Y007754D01*
X006248Y007556D01*
X005248Y006556D01*
X005145Y006453D01*
X005127Y006409D01*
X005004Y006286D01*
X004844Y006220D01*
X004671Y006220D01*
X004511Y006286D01*
X004389Y006409D01*
X004323Y006569D01*
X004323Y006742D01*
X004389Y006901D01*
X004511Y007024D01*
X004671Y007090D01*
X004844Y007090D01*
X005004Y007024D01*
X005021Y007007D01*
X005234Y007220D01*
X005171Y007220D01*
X005011Y007286D01*
X004889Y007409D01*
X004823Y007569D01*
X004823Y007742D01*
X004886Y007894D01*
X004693Y007701D01*
X004693Y007569D01*
X004627Y007409D01*
X004504Y007286D01*
X004344Y007220D01*
X004171Y007220D01*
X004011Y007286D01*
X003889Y007409D01*
X003823Y007569D01*
X003823Y007742D01*
X003886Y007894D01*
X003693Y007701D01*
X003693Y007569D01*
X003627Y007409D01*
X003504Y007286D01*
X003498Y007284D01*
X003498Y007010D01*
X003511Y007024D01*
X003671Y007090D01*
X003844Y007090D01*
X004004Y007024D01*
X004127Y006901D01*
X004193Y006742D01*
X004193Y006569D01*
X004127Y006409D01*
X004004Y006286D01*
X003998Y006284D01*
X003998Y004982D01*
X004036Y004982D01*
X004108Y004910D01*
X004179Y004982D01*
X004495Y004982D01*
X005268Y005754D01*
X005268Y005754D01*
X005408Y005895D01*
X008358Y005895D01*
X008557Y005895D01*
X009823Y004629D01*
X009823Y004742D01*
X009889Y004901D01*
X010011Y005024D01*
X010171Y005090D01*
X010344Y005090D01*
X010351Y005087D01*
X011368Y006104D01*
X011368Y006104D01*
X011508Y006245D01*
X012334Y006245D01*
X012058Y006521D01*
X009958Y006521D01*
X009957Y006521D02*
X010128Y006932D01*
X010128Y007378D01*
X009957Y007790D01*
X012058Y007790D01*
X011888Y007378D01*
X011888Y006932D01*
X012058Y006521D01*
X012216Y006363D02*
X009799Y006363D01*
X009642Y006206D02*
X009957Y006521D01*
X010023Y006680D02*
X011992Y006680D01*
X011927Y006838D02*
X010089Y006838D01*
X010128Y006997D02*
X011888Y006997D01*
X011888Y007155D02*
X010128Y007155D01*
X010128Y007314D02*
X011888Y007314D01*
X011927Y007472D02*
X010089Y007472D01*
X010023Y007631D02*
X011993Y007631D01*
X012058Y007790D02*
X012373Y008105D01*
X012785Y008275D01*
X013231Y008275D01*
X013642Y008105D01*
X013637Y008107D02*
X015268Y008107D01*
X015268Y008265D02*
X013254Y008265D01*
X012761Y008265D02*
X009254Y008265D01*
X009231Y008275D02*
X008785Y008275D01*
X008373Y008105D01*
X008058Y007790D01*
X006248Y007790D01*
X006248Y007948D02*
X008217Y007948D01*
X008058Y007790D02*
X007888Y007378D01*
X007888Y006932D01*
X008058Y006521D01*
X005213Y006521D01*
X005081Y006363D02*
X008216Y006363D01*
X008373Y006206D02*
X008058Y006521D01*
X007992Y006680D02*
X005372Y006680D01*
X005530Y006838D02*
X007927Y006838D01*
X007888Y006997D02*
X005689Y006997D01*
X005848Y007155D02*
X007888Y007155D01*
X007888Y007314D02*
X006006Y007314D01*
X006165Y007472D02*
X007927Y007472D01*
X007993Y007631D02*
X006248Y007631D01*
X006008Y007655D02*
X005008Y006655D01*
X004758Y006655D01*
X004363Y006838D02*
X004153Y006838D01*
X004193Y006680D02*
X004323Y006680D01*
X004342Y006521D02*
X004173Y006521D01*
X004081Y006363D02*
X004435Y006363D01*
X003998Y006204D02*
X008377Y006204D01*
X008373Y006206D02*
X008785Y006035D01*
X009231Y006035D01*
X009642Y006206D01*
X009639Y006204D02*
X011468Y006204D01*
X011309Y006046D02*
X009256Y006046D01*
X008760Y006046D02*
X003998Y006046D01*
X003998Y005887D02*
X005400Y005887D01*
X005242Y005729D02*
X003998Y005729D01*
X003998Y005570D02*
X005083Y005570D01*
X004925Y005411D02*
X003998Y005411D01*
X003998Y005253D02*
X004766Y005253D01*
X004608Y005094D02*
X003998Y005094D01*
X004082Y004936D02*
X004134Y004936D01*
X004443Y004605D02*
X004458Y004605D01*
X005508Y005655D01*
X008458Y005655D01*
X010258Y003855D01*
X010258Y003455D01*
X010558Y003155D01*
X011258Y003155D01*
X011758Y003655D01*
X011258Y004155D02*
X010758Y003655D01*
X010472Y003985D02*
X010468Y003985D01*
X010309Y004143D02*
X010906Y004143D01*
X010996Y004302D02*
X010520Y004302D01*
X010648Y004460D02*
X010868Y004460D01*
X010823Y004619D02*
X010693Y004619D01*
X010719Y004777D02*
X010838Y004777D01*
X010878Y004936D02*
X010923Y004936D01*
X011036Y005094D02*
X013458Y005094D01*
X013299Y004936D02*
X012592Y004936D01*
X012678Y004777D02*
X013141Y004777D01*
X012982Y004619D02*
X012693Y004619D01*
X012648Y004460D02*
X012824Y004460D01*
X012858Y004155D02*
X011258Y004155D01*
X011648Y004460D02*
X011868Y004460D01*
X011823Y004619D02*
X011693Y004619D01*
X011678Y004777D02*
X011838Y004777D01*
X011923Y004936D02*
X011592Y004936D01*
X011195Y005253D02*
X013616Y005253D01*
X013775Y005411D02*
X011354Y005411D01*
X011512Y005570D02*
X013933Y005570D01*
X014108Y005405D02*
X012858Y004155D01*
X010516Y005253D02*
X009199Y005253D01*
X009358Y005094D02*
X010358Y005094D01*
X009923Y004936D02*
X009517Y004936D01*
X009675Y004777D02*
X009838Y004777D01*
X010258Y004655D02*
X011608Y006005D01*
X014058Y006005D01*
X014108Y005405D02*
X017073Y005405D01*
X016757Y005729D02*
X011671Y005729D01*
X011150Y005887D02*
X008565Y005887D01*
X008724Y005729D02*
X010992Y005729D01*
X010833Y005570D02*
X008882Y005570D01*
X009041Y005411D02*
X010675Y005411D01*
X009155Y004619D02*
X007028Y004619D01*
X006962Y004777D02*
X008996Y004777D01*
X008838Y004936D02*
X006811Y004936D01*
X006957Y004790D02*
X006642Y005105D01*
X006231Y005275D01*
X005785Y005275D01*
X005373Y005105D01*
X005058Y004790D01*
X004888Y004378D01*
X004888Y003932D01*
X004903Y003895D01*
X004708Y003895D01*
X004299Y003895D01*
X004299Y003938D01*
X004206Y004032D01*
X003679Y004032D01*
X003608Y003960D01*
X003536Y004032D01*
X003498Y004032D01*
X003498Y004241D01*
X003510Y004229D01*
X004036Y004229D01*
X004108Y004300D01*
X004179Y004229D01*
X004706Y004229D01*
X004799Y004322D01*
X004799Y004607D01*
X005607Y005415D01*
X008358Y005415D01*
X009665Y004109D01*
X009500Y004041D01*
X009372Y003913D01*
X009303Y003746D01*
X009303Y003663D01*
X009750Y003663D01*
X009750Y004023D01*
X009765Y004008D01*
X009765Y003663D01*
X010018Y003663D01*
X010018Y003648D01*
X009765Y003648D01*
X009765Y003245D01*
X009750Y003245D01*
X009750Y003648D01*
X009303Y003648D01*
X009303Y003565D01*
X009372Y003397D01*
X009500Y003269D01*
X009559Y003245D01*
X006682Y003245D01*
X006957Y003521D01*
X007128Y003932D01*
X007128Y004378D01*
X006957Y004790D01*
X007094Y004460D02*
X009313Y004460D01*
X009472Y004302D02*
X007128Y004302D01*
X007128Y004143D02*
X009631Y004143D01*
X009750Y003985D02*
X009765Y003985D01*
X009444Y003985D02*
X007128Y003985D01*
X007084Y003826D02*
X009336Y003826D01*
X009303Y003667D02*
X007018Y003667D01*
X006946Y003509D02*
X009326Y003509D01*
X009419Y003350D02*
X006787Y003350D01*
X004958Y002705D02*
X009958Y002705D01*
X010508Y002155D01*
X010508Y001905D01*
X012843Y001289D02*
X013173Y001289D01*
X013048Y001448D02*
X012968Y001448D01*
X012968Y001606D02*
X013048Y001606D01*
X013048Y001765D02*
X012968Y001765D01*
X012968Y001923D02*
X013048Y001923D01*
X013048Y002082D02*
X012968Y002082D01*
X012968Y002241D02*
X013048Y002241D01*
X013041Y002399D02*
X013051Y002399D01*
X013200Y002558D02*
X013210Y002558D01*
X013358Y002716D02*
X020572Y002716D01*
X020572Y002875D02*
X017067Y002875D01*
X017225Y003033D02*
X020572Y003033D01*
X020572Y002558D02*
X013806Y002558D01*
X013964Y002399D02*
X020572Y002399D01*
X020572Y002241D02*
X013968Y002241D01*
X013968Y002082D02*
X020572Y002082D01*
X020572Y001923D02*
X013968Y001923D01*
X013968Y001765D02*
X020572Y001765D01*
X020572Y001606D02*
X013968Y001606D01*
X013968Y001448D02*
X020572Y001448D01*
X020572Y001289D02*
X013843Y001289D01*
X017384Y003192D02*
X019407Y003192D01*
X019229Y003350D02*
X017542Y003350D01*
X017701Y003509D02*
X019070Y003509D01*
X018998Y003667D02*
X017860Y003667D01*
X018018Y003826D02*
X018932Y003826D01*
X018888Y003985D02*
X018177Y003985D01*
X018335Y004143D02*
X018888Y004143D01*
X018888Y004302D02*
X018494Y004302D01*
X018498Y004460D02*
X018922Y004460D01*
X018988Y004619D02*
X018498Y004619D01*
X018498Y004777D02*
X019053Y004777D01*
X019205Y004936D02*
X018498Y004936D01*
X018498Y005094D02*
X019363Y005094D01*
X019731Y005253D02*
X018498Y005253D01*
X018498Y005411D02*
X020572Y005411D01*
X020572Y005570D02*
X018498Y005570D01*
X018498Y005729D02*
X020572Y005729D01*
X020572Y005887D02*
X018498Y005887D01*
X018498Y006046D02*
X020572Y006046D01*
X020572Y006204D02*
X018498Y006204D01*
X019081Y006363D02*
X020572Y006363D01*
X020572Y006521D02*
X019173Y006521D01*
X019193Y006680D02*
X020572Y006680D01*
X020572Y006838D02*
X019153Y006838D01*
X019031Y006997D02*
X020572Y006997D01*
X020572Y007155D02*
X018498Y007155D01*
X018532Y007314D02*
X018984Y007314D01*
X019011Y007286D02*
X018889Y007409D01*
X018823Y007569D01*
X018823Y007742D01*
X018889Y007901D01*
X019011Y008024D01*
X019171Y008090D01*
X019344Y008090D01*
X019504Y008024D01*
X019627Y007901D01*
X019693Y007742D01*
X019693Y007569D01*
X019627Y007409D01*
X019504Y007286D01*
X019344Y007220D01*
X019171Y007220D01*
X019011Y007286D01*
X018863Y007472D02*
X018653Y007472D01*
X018693Y007631D02*
X018823Y007631D01*
X018843Y007790D02*
X018673Y007790D01*
X018580Y007948D02*
X018936Y007948D01*
X019580Y007948D02*
X020572Y007948D01*
X020572Y007790D02*
X019673Y007790D01*
X019693Y007631D02*
X020572Y007631D01*
X020572Y007472D02*
X019653Y007472D01*
X019532Y007314D02*
X020572Y007314D01*
X020572Y008107D02*
X018096Y008107D01*
X017937Y008265D02*
X020572Y008265D01*
X020572Y008424D02*
X020104Y008424D01*
X020328Y008582D02*
X020572Y008582D01*
X020572Y008741D02*
X020487Y008741D01*
X020556Y008899D02*
X020572Y008899D01*
X020564Y009692D02*
X020572Y009692D01*
X020572Y009851D02*
X020498Y009851D01*
X020572Y010009D02*
X020347Y010009D01*
X020149Y010168D02*
X020572Y010168D01*
X020572Y010326D02*
X018468Y010326D01*
X018329Y010485D02*
X020572Y010485D01*
X020572Y010643D02*
X001540Y010643D01*
X001540Y010485D02*
X003659Y010485D01*
X003528Y010354D02*
X003809Y010635D01*
X003988Y010635D01*
X003988Y010175D01*
X003528Y010175D01*
X003528Y010354D01*
X003528Y010326D02*
X002587Y010326D01*
X002938Y010168D02*
X004548Y010168D01*
X004488Y010175D02*
X004488Y010354D01*
X004207Y010635D01*
X004028Y010635D01*
X004028Y010175D01*
X004488Y010175D01*
X004488Y010009D02*
X004523Y010009D01*
X004508Y009655D02*
X005008Y010155D01*
X005468Y010168D02*
X005548Y010168D01*
X005523Y010009D02*
X005468Y010009D01*
X005364Y009851D02*
X005354Y009851D01*
X005268Y009692D02*
X004884Y009692D01*
X004508Y009655D02*
X004508Y008855D01*
X003258Y007605D01*
X003258Y007655D01*
X003258Y003655D01*
X003273Y003655D01*
X002938Y003350D02*
X002787Y003350D01*
X003583Y003985D02*
X003632Y003985D01*
X003498Y004143D02*
X004888Y004143D01*
X004888Y003985D02*
X004253Y003985D01*
X004779Y004302D02*
X004888Y004302D01*
X004922Y004460D02*
X004799Y004460D01*
X004811Y004619D02*
X004988Y004619D01*
X004969Y004777D02*
X005053Y004777D01*
X005128Y004936D02*
X005205Y004936D01*
X005286Y005094D02*
X005363Y005094D01*
X005445Y005253D02*
X005731Y005253D01*
X005604Y005411D02*
X008362Y005411D01*
X008521Y005253D02*
X006284Y005253D01*
X006653Y005094D02*
X008679Y005094D01*
X009750Y003826D02*
X009765Y003826D01*
X009750Y003667D02*
X009765Y003667D01*
X009750Y003509D02*
X009765Y003509D01*
X009750Y003350D02*
X009765Y003350D01*
X015203Y006046D02*
X015212Y006046D01*
X015508Y006355D02*
X015508Y006505D01*
X016658Y007655D01*
X017258Y007655D01*
X017653Y007472D02*
X017863Y007472D01*
X017984Y007314D02*
X017532Y007314D01*
X017693Y007631D02*
X017823Y007631D01*
X017734Y007790D02*
X017673Y007790D01*
X017417Y008107D02*
X015748Y008107D01*
X015748Y008265D02*
X017268Y008265D01*
X017268Y008424D02*
X015748Y008424D01*
X015268Y008424D02*
X006248Y008424D01*
X006248Y008265D02*
X008761Y008265D01*
X008378Y008107D02*
X006248Y008107D01*
X006248Y008582D02*
X015268Y008582D01*
X015028Y008741D02*
X014988Y008741D01*
X014988Y008675D02*
X014988Y009135D01*
X014528Y009135D01*
X014528Y008956D01*
X014809Y008675D01*
X014988Y008675D01*
X014988Y008899D02*
X015028Y008899D01*
X015028Y009058D02*
X014988Y009058D01*
X014988Y009175D02*
X014988Y009635D01*
X014809Y009635D01*
X014528Y009354D01*
X014528Y009175D01*
X014988Y009175D01*
X014988Y009216D02*
X015028Y009216D01*
X015028Y009375D02*
X014988Y009375D01*
X014988Y009534D02*
X015028Y009534D01*
X014988Y009675D02*
X014809Y009675D01*
X014528Y009956D01*
X014528Y010135D01*
X014988Y010135D01*
X014988Y009675D01*
X014988Y009692D02*
X015028Y009692D01*
X015224Y009692D02*
X015268Y009692D01*
X015028Y009851D02*
X014988Y009851D01*
X014988Y010009D02*
X015028Y010009D01*
X015028Y010175D02*
X015488Y010175D01*
X015488Y010354D01*
X015207Y010635D01*
X015028Y010635D01*
X015028Y010175D01*
X014988Y010175D02*
X014988Y010635D01*
X014809Y010635D01*
X014528Y010354D01*
X014528Y010175D01*
X014988Y010175D01*
X014988Y010326D02*
X015028Y010326D01*
X015028Y010485D02*
X014988Y010485D01*
X015357Y010485D02*
X015687Y010485D01*
X015548Y010326D02*
X015488Y010326D01*
X015548Y010168D02*
X011374Y010168D01*
X011374Y010009D02*
X011822Y010009D01*
X011822Y010087D02*
X011822Y009785D01*
X011927Y009680D01*
X012229Y009680D01*
X012229Y010087D01*
X011822Y010087D01*
X011822Y010223D02*
X012229Y010223D01*
X012229Y010630D01*
X011927Y010630D01*
X011822Y010525D01*
X011822Y010223D01*
X011822Y010326D02*
X011374Y010326D01*
X011374Y010485D02*
X011822Y010485D01*
X012229Y010485D02*
X012364Y010485D01*
X012364Y010630D02*
X012364Y010223D01*
X012772Y010223D01*
X012772Y010525D01*
X012667Y010630D01*
X012364Y010630D01*
X012364Y010326D02*
X012229Y010326D01*
X012364Y010087D02*
X012364Y009680D01*
X012667Y009680D01*
X012772Y009785D01*
X012772Y010087D01*
X012364Y010087D01*
X012364Y010009D02*
X012229Y010009D01*
X012229Y009851D02*
X012364Y009851D01*
X012364Y009692D02*
X012229Y009692D01*
X011915Y009692D02*
X005884Y009692D01*
X005508Y009655D02*
X005508Y008855D01*
X004308Y007655D01*
X004258Y007655D01*
X004693Y007631D02*
X004823Y007631D01*
X004843Y007790D02*
X004782Y007790D01*
X004863Y007472D02*
X004653Y007472D01*
X004532Y007314D02*
X004984Y007314D01*
X005169Y007155D02*
X003498Y007155D01*
X003532Y007314D02*
X003984Y007314D01*
X003863Y007472D02*
X003653Y007472D01*
X003693Y007631D02*
X003823Y007631D01*
X003843Y007790D02*
X003782Y007790D01*
X003420Y008107D02*
X001540Y008107D01*
X001540Y008265D02*
X003579Y008265D01*
X003737Y008424D02*
X002683Y008424D01*
X002978Y008582D02*
X003896Y008582D01*
X003809Y008675D02*
X003528Y008956D01*
X003528Y009135D01*
X003988Y009135D01*
X003988Y008675D01*
X003809Y008675D01*
X003743Y008741D02*
X003137Y008741D01*
X003235Y008899D02*
X003585Y008899D01*
X003528Y009058D02*
X003301Y009058D01*
X003343Y009216D02*
X003528Y009216D01*
X003528Y009175D02*
X003988Y009175D01*
X003988Y009635D01*
X003809Y009635D01*
X003528Y009354D01*
X003528Y009175D01*
X003549Y009375D02*
X003343Y009375D01*
X003343Y009534D02*
X003708Y009534D01*
X003809Y009675D02*
X003528Y009956D01*
X003528Y010135D01*
X003988Y010135D01*
X003988Y009675D01*
X003809Y009675D01*
X003792Y009692D02*
X003284Y009692D01*
X003219Y009851D02*
X003634Y009851D01*
X003528Y010009D02*
X003097Y010009D01*
X003988Y010009D02*
X004028Y010009D01*
X004028Y009851D02*
X003988Y009851D01*
X003988Y009692D02*
X004028Y009692D01*
X004028Y009534D02*
X003988Y009534D01*
X003988Y009375D02*
X004028Y009375D01*
X004028Y009216D02*
X003988Y009216D01*
X003988Y009058D02*
X004028Y009058D01*
X004028Y008899D02*
X003988Y008899D01*
X003988Y008741D02*
X004028Y008741D01*
X002936Y007948D02*
X001540Y007948D01*
X001540Y007790D02*
X002843Y007790D01*
X002823Y007631D02*
X001540Y007631D01*
X001540Y007472D02*
X002863Y007472D01*
X002984Y007314D02*
X001540Y007314D01*
X001540Y007155D02*
X003018Y007155D01*
X002750Y007110D02*
X002667Y007110D01*
X002500Y007041D01*
X002372Y006913D01*
X002303Y006746D01*
X002303Y006663D01*
X002750Y006663D01*
X002750Y007110D01*
X002750Y006997D02*
X002765Y006997D01*
X002750Y006838D02*
X002765Y006838D01*
X002750Y006680D02*
X002765Y006680D01*
X002750Y006648D02*
X002303Y006648D01*
X002303Y006565D01*
X002372Y006397D01*
X002500Y006269D01*
X002667Y006200D01*
X002750Y006200D01*
X002750Y006648D01*
X002750Y006521D02*
X002765Y006521D01*
X002750Y006363D02*
X002765Y006363D01*
X002750Y006204D02*
X002765Y006204D01*
X002858Y006204D02*
X003018Y006204D01*
X003018Y006046D02*
X001540Y006046D01*
X001540Y006204D02*
X002658Y006204D01*
X002407Y006363D02*
X001540Y006363D01*
X001540Y006521D02*
X002321Y006521D01*
X002303Y006680D02*
X001540Y006680D01*
X001540Y006838D02*
X002341Y006838D01*
X002456Y006997D02*
X001540Y006997D01*
X001540Y005887D02*
X003018Y005887D01*
X003018Y005729D02*
X001540Y005729D01*
X001540Y005570D02*
X003018Y005570D01*
X003018Y005411D02*
X001540Y005411D01*
X001540Y005253D02*
X001731Y005253D01*
X002284Y005253D02*
X003018Y005253D01*
X003018Y005094D02*
X002653Y005094D01*
X002811Y004936D02*
X003018Y004936D01*
X003018Y004777D02*
X002962Y004777D01*
X003758Y004605D02*
X003758Y006655D01*
X004031Y006997D02*
X004484Y006997D01*
X006008Y007655D02*
X006008Y009155D01*
X006468Y009216D02*
X006548Y009216D01*
X006548Y009346D02*
X006548Y008965D01*
X006817Y008695D01*
X007198Y008695D01*
X007468Y008965D01*
X007468Y009346D01*
X007198Y009615D01*
X006817Y009615D01*
X006548Y009346D01*
X006577Y009375D02*
X006438Y009375D01*
X006280Y009534D02*
X006736Y009534D01*
X006817Y009695D02*
X007198Y009695D01*
X007468Y009965D01*
X007468Y010346D01*
X007198Y010615D01*
X006817Y010615D01*
X006548Y010346D01*
X006548Y009965D01*
X006817Y009695D01*
X006662Y009851D02*
X006354Y009851D01*
X006468Y010009D02*
X006548Y010009D01*
X006548Y010168D02*
X006468Y010168D01*
X006468Y010326D02*
X006548Y010326D01*
X006687Y010485D02*
X006329Y010485D01*
X006008Y010155D02*
X005508Y009655D01*
X006468Y009058D02*
X006548Y009058D01*
X006613Y008899D02*
X006403Y008899D01*
X006248Y008741D02*
X006772Y008741D01*
X007244Y008741D02*
X014743Y008741D01*
X014585Y008899D02*
X007403Y008899D01*
X007468Y009058D02*
X014528Y009058D01*
X014528Y009216D02*
X007468Y009216D01*
X007438Y009375D02*
X014549Y009375D01*
X014708Y009534D02*
X007280Y009534D01*
X007354Y009851D02*
X008303Y009851D01*
X008304Y009850D02*
X008436Y009795D01*
X008579Y009795D01*
X008712Y009850D01*
X008777Y009915D01*
X009166Y009915D01*
X009166Y009872D01*
X009260Y009779D01*
X009786Y009779D01*
X009858Y009850D01*
X009929Y009779D01*
X010456Y009779D01*
X010467Y009790D01*
X010557Y009700D01*
X011280Y009700D01*
X011374Y009794D01*
X011374Y010517D01*
X011280Y010610D01*
X010557Y010610D01*
X010467Y010520D01*
X010456Y010532D01*
X009929Y010532D01*
X009858Y010460D01*
X009786Y010532D01*
X009260Y010532D01*
X009166Y010438D01*
X009166Y010395D01*
X008777Y010395D01*
X008712Y010460D01*
X008579Y010515D01*
X008436Y010515D01*
X008304Y010460D01*
X008203Y010359D01*
X008148Y010227D01*
X008148Y010083D01*
X008203Y009951D01*
X008304Y009850D01*
X008179Y010009D02*
X007468Y010009D01*
X007468Y010168D02*
X008148Y010168D01*
X008189Y010326D02*
X007468Y010326D01*
X007329Y010485D02*
X008363Y010485D01*
X008653Y010485D02*
X009213Y010485D01*
X009833Y010485D02*
X009883Y010485D01*
X010193Y010155D02*
X010919Y010155D01*
X011374Y009851D02*
X011822Y009851D01*
X012679Y009692D02*
X014792Y009692D01*
X014634Y009851D02*
X012772Y009851D01*
X012772Y010009D02*
X014528Y010009D01*
X014528Y010326D02*
X012772Y010326D01*
X012772Y010485D02*
X014659Y010485D01*
X015488Y010009D02*
X015523Y010009D01*
X016329Y010485D02*
X016687Y010485D01*
X016548Y010326D02*
X016468Y010326D01*
X017329Y010485D02*
X017687Y010485D01*
X017548Y010326D02*
X017468Y010326D01*
X018354Y009851D02*
X018818Y009851D01*
X018969Y010009D02*
X018468Y010009D01*
X018468Y010168D02*
X019167Y010168D01*
X019212Y008424D02*
X017779Y008424D01*
X016936Y007948D02*
X015748Y007948D01*
X015748Y007790D02*
X016453Y007790D01*
X016294Y007631D02*
X015748Y007631D01*
X015748Y007472D02*
X016136Y007472D01*
X015977Y007314D02*
X015748Y007314D01*
X015748Y007155D02*
X015819Y007155D01*
X015228Y006680D02*
X015188Y006680D01*
X016750Y006680D02*
X016765Y006680D01*
X016750Y006838D02*
X016765Y006838D01*
X016750Y006997D02*
X016765Y006997D01*
X016656Y007314D02*
X016984Y007314D01*
X017743Y006640D02*
X017743Y005405D01*
X017758Y005405D01*
X017426Y005729D02*
X017389Y005729D01*
X016765Y006363D02*
X016750Y006363D01*
X016750Y006521D02*
X016765Y006521D01*
X020284Y005253D02*
X020572Y005253D01*
X012378Y008107D02*
X009637Y008107D01*
X009642Y008105D02*
X009231Y008275D01*
X009642Y008105D02*
X009957Y007790D01*
X009799Y007948D02*
X012217Y007948D01*
X009188Y009851D02*
X008712Y009851D01*
X008508Y010155D02*
X009523Y010155D01*
X005687Y010485D02*
X005329Y010485D01*
X005468Y010326D02*
X005548Y010326D01*
X004687Y010485D02*
X004357Y010485D01*
X004488Y010326D02*
X004548Y010326D01*
X004028Y010326D02*
X003988Y010326D01*
X003988Y010485D02*
X004028Y010485D01*
X004224Y009692D02*
X004268Y009692D01*
X002129Y010326D02*
X001540Y010326D01*
X001540Y010168D02*
X001778Y010168D01*
X001619Y010009D02*
X001540Y010009D01*
X001540Y008741D02*
X001579Y008741D01*
X001540Y008582D02*
X001738Y008582D01*
X001540Y008424D02*
X002032Y008424D01*
X003758Y004605D02*
X003773Y004605D01*
D16*
X004958Y002705D03*
X008508Y010155D03*
D17*
X002358Y009355D03*
X019658Y009305D03*
M02*
